%TF.GenerationSoftware,KiCad,Pcbnew,8.0.3*%
%TF.CreationDate,2024-06-18T14:47:22-04:00*%
%TF.ProjectId,SoarerMax,536f6172-6572-44d6-9178-2e6b69636164,rev?*%
%TF.SameCoordinates,Original*%
%TF.FileFunction,Drillmap*%
%TF.FilePolarity,Positive*%
%FSLAX45Y45*%
G04 Gerber Fmt 4.5, Leading zero omitted, Abs format (unit mm)*
G04 Created by KiCad (PCBNEW 8.0.3) date 2024-06-18 14:47:22*
%MOMM*%
%LPD*%
G01*
G04 APERTURE LIST*
%ADD10C,0.050000*%
%ADD11C,0.200000*%
%ADD12C,0.100000*%
G04 APERTURE END LIST*
D10*
X14000000Y-8100000D02*
X15800000Y-8100000D01*
X15800000Y-11900000D01*
X14000000Y-11900000D01*
X14000000Y-8100000D01*
D11*
D12*
X15245000Y-9275000D02*
X15275000Y-9305000D01*
X15275000Y-9275000D02*
X15245000Y-9305000D01*
X14130000Y-8470000D02*
G75*
G02*
X14090000Y-8470000I-20000J0D01*
G01*
X14090000Y-8470000D02*
G75*
G02*
X14130000Y-8470000I20000J0D01*
G01*
X14140000Y-8600000D02*
G75*
G02*
X14100000Y-8600000I-20000J0D01*
G01*
X14100000Y-8600000D02*
G75*
G02*
X14140000Y-8600000I20000J0D01*
G01*
X14140000Y-9090000D02*
G75*
G02*
X14100000Y-9090000I-20000J0D01*
G01*
X14100000Y-9090000D02*
G75*
G02*
X14140000Y-9090000I20000J0D01*
G01*
X14260000Y-11190000D02*
G75*
G02*
X14220000Y-11190000I-20000J0D01*
G01*
X14220000Y-11190000D02*
G75*
G02*
X14260000Y-11190000I20000J0D01*
G01*
X14290000Y-8600000D02*
G75*
G02*
X14250000Y-8600000I-20000J0D01*
G01*
X14250000Y-8600000D02*
G75*
G02*
X14290000Y-8600000I20000J0D01*
G01*
X14300000Y-9530000D02*
G75*
G02*
X14260000Y-9530000I-20000J0D01*
G01*
X14260000Y-9530000D02*
G75*
G02*
X14300000Y-9530000I20000J0D01*
G01*
X14300000Y-9610000D02*
G75*
G02*
X14260000Y-9610000I-20000J0D01*
G01*
X14260000Y-9610000D02*
G75*
G02*
X14300000Y-9610000I20000J0D01*
G01*
X14310000Y-9890000D02*
G75*
G02*
X14270000Y-9890000I-20000J0D01*
G01*
X14270000Y-9890000D02*
G75*
G02*
X14310000Y-9890000I20000J0D01*
G01*
X14315000Y-9775000D02*
G75*
G02*
X14275000Y-9775000I-20000J0D01*
G01*
X14275000Y-9775000D02*
G75*
G02*
X14315000Y-9775000I20000J0D01*
G01*
X14320000Y-10020000D02*
G75*
G02*
X14280000Y-10020000I-20000J0D01*
G01*
X14280000Y-10020000D02*
G75*
G02*
X14320000Y-10020000I20000J0D01*
G01*
X14330000Y-9010000D02*
G75*
G02*
X14290000Y-9010000I-20000J0D01*
G01*
X14290000Y-9010000D02*
G75*
G02*
X14330000Y-9010000I20000J0D01*
G01*
X14350000Y-10180000D02*
G75*
G02*
X14310000Y-10180000I-20000J0D01*
G01*
X14310000Y-10180000D02*
G75*
G02*
X14350000Y-10180000I20000J0D01*
G01*
X14370000Y-10260000D02*
G75*
G02*
X14330000Y-10260000I-20000J0D01*
G01*
X14330000Y-10260000D02*
G75*
G02*
X14370000Y-10260000I20000J0D01*
G01*
X14400000Y-11190000D02*
G75*
G02*
X14360000Y-11190000I-20000J0D01*
G01*
X14360000Y-11190000D02*
G75*
G02*
X14400000Y-11190000I20000J0D01*
G01*
X14460000Y-8980000D02*
G75*
G02*
X14420000Y-8980000I-20000J0D01*
G01*
X14420000Y-8980000D02*
G75*
G02*
X14460000Y-8980000I20000J0D01*
G01*
X14470000Y-8850000D02*
G75*
G02*
X14430000Y-8850000I-20000J0D01*
G01*
X14430000Y-8850000D02*
G75*
G02*
X14470000Y-8850000I20000J0D01*
G01*
X14500000Y-9690000D02*
G75*
G02*
X14460000Y-9690000I-20000J0D01*
G01*
X14460000Y-9690000D02*
G75*
G02*
X14500000Y-9690000I20000J0D01*
G01*
X14550000Y-11190000D02*
G75*
G02*
X14510000Y-11190000I-20000J0D01*
G01*
X14510000Y-11190000D02*
G75*
G02*
X14550000Y-11190000I20000J0D01*
G01*
X14570000Y-10520000D02*
G75*
G02*
X14530000Y-10520000I-20000J0D01*
G01*
X14530000Y-10520000D02*
G75*
G02*
X14570000Y-10520000I20000J0D01*
G01*
X14650000Y-10800000D02*
G75*
G02*
X14610000Y-10800000I-20000J0D01*
G01*
X14610000Y-10800000D02*
G75*
G02*
X14650000Y-10800000I20000J0D01*
G01*
X14710000Y-8470000D02*
G75*
G02*
X14670000Y-8470000I-20000J0D01*
G01*
X14670000Y-8470000D02*
G75*
G02*
X14710000Y-8470000I20000J0D01*
G01*
X14720000Y-8980000D02*
G75*
G02*
X14680000Y-8980000I-20000J0D01*
G01*
X14680000Y-8980000D02*
G75*
G02*
X14720000Y-8980000I20000J0D01*
G01*
X14720000Y-10420000D02*
G75*
G02*
X14680000Y-10420000I-20000J0D01*
G01*
X14680000Y-10420000D02*
G75*
G02*
X14720000Y-10420000I20000J0D01*
G01*
X14840000Y-10840000D02*
G75*
G02*
X14800000Y-10840000I-20000J0D01*
G01*
X14800000Y-10840000D02*
G75*
G02*
X14840000Y-10840000I20000J0D01*
G01*
X14870000Y-10280000D02*
G75*
G02*
X14830000Y-10280000I-20000J0D01*
G01*
X14830000Y-10280000D02*
G75*
G02*
X14870000Y-10280000I20000J0D01*
G01*
X14970000Y-9360000D02*
G75*
G02*
X14930000Y-9360000I-20000J0D01*
G01*
X14930000Y-9360000D02*
G75*
G02*
X14970000Y-9360000I20000J0D01*
G01*
X14995000Y-10818282D02*
G75*
G02*
X14955000Y-10818282I-20000J0D01*
G01*
X14955000Y-10818282D02*
G75*
G02*
X14995000Y-10818282I20000J0D01*
G01*
X15050000Y-9410000D02*
G75*
G02*
X15010000Y-9410000I-20000J0D01*
G01*
X15010000Y-9410000D02*
G75*
G02*
X15050000Y-9410000I20000J0D01*
G01*
X15100000Y-8430000D02*
G75*
G02*
X15060000Y-8430000I-20000J0D01*
G01*
X15060000Y-8430000D02*
G75*
G02*
X15100000Y-8430000I20000J0D01*
G01*
X15120000Y-8990000D02*
G75*
G02*
X15080000Y-8990000I-20000J0D01*
G01*
X15080000Y-8990000D02*
G75*
G02*
X15120000Y-8990000I20000J0D01*
G01*
X15130000Y-9470000D02*
G75*
G02*
X15090000Y-9470000I-20000J0D01*
G01*
X15090000Y-9470000D02*
G75*
G02*
X15130000Y-9470000I20000J0D01*
G01*
X15170000Y-10800000D02*
G75*
G02*
X15130000Y-10800000I-20000J0D01*
G01*
X15130000Y-10800000D02*
G75*
G02*
X15170000Y-10800000I20000J0D01*
G01*
X15260000Y-8430000D02*
G75*
G02*
X15220000Y-8430000I-20000J0D01*
G01*
X15220000Y-8430000D02*
G75*
G02*
X15260000Y-8430000I20000J0D01*
G01*
X15300000Y-10830000D02*
G75*
G02*
X15260000Y-10830000I-20000J0D01*
G01*
X15260000Y-10830000D02*
G75*
G02*
X15300000Y-10830000I20000J0D01*
G01*
X15390000Y-8950000D02*
G75*
G02*
X15350000Y-8950000I-20000J0D01*
G01*
X15350000Y-8950000D02*
G75*
G02*
X15390000Y-8950000I20000J0D01*
G01*
X15420000Y-10830000D02*
G75*
G02*
X15380000Y-10830000I-20000J0D01*
G01*
X15380000Y-10830000D02*
G75*
G02*
X15420000Y-10830000I20000J0D01*
G01*
X15687500Y-10852500D02*
G75*
G02*
X15647500Y-10852500I-20000J0D01*
G01*
X15647500Y-10852500D02*
G75*
G02*
X15687500Y-10852500I20000J0D01*
G01*
X15710000Y-8690000D02*
G75*
G02*
X15670000Y-8690000I-20000J0D01*
G01*
X15670000Y-8690000D02*
G75*
G02*
X15710000Y-8690000I20000J0D01*
G01*
X15740000Y-9060000D02*
G75*
G02*
X15700000Y-9060000I-20000J0D01*
G01*
X15700000Y-9060000D02*
G75*
G02*
X15740000Y-9060000I20000J0D01*
G01*
X14602500Y-8547500D02*
X14602500Y-8587500D01*
X14582500Y-8567500D02*
X14622500Y-8567500D01*
X14602500Y-8682500D02*
X14602500Y-8722500D01*
X14582500Y-8702500D02*
X14622500Y-8702500D01*
X14687500Y-8547500D02*
X14687500Y-8587500D01*
X14667500Y-8567500D02*
X14707500Y-8567500D01*
X14687500Y-8682500D02*
X14687500Y-8722500D01*
X14667500Y-8702500D02*
X14707500Y-8702500D01*
X14772500Y-8547500D02*
X14772500Y-8587500D01*
X14752500Y-8567500D02*
X14792500Y-8567500D01*
X14772500Y-8682500D02*
X14772500Y-8722500D01*
X14752500Y-8702500D02*
X14792500Y-8702500D01*
X14857500Y-8547500D02*
X14857500Y-8587500D01*
X14837500Y-8567500D02*
X14877500Y-8567500D01*
X14857500Y-8682500D02*
X14857500Y-8722500D01*
X14837500Y-8702500D02*
X14877500Y-8702500D01*
X14942500Y-8547500D02*
X14942500Y-8587500D01*
X14922500Y-8567500D02*
X14962500Y-8567500D01*
X14942500Y-8682500D02*
X14942500Y-8722500D01*
X14922500Y-8702500D02*
X14962500Y-8702500D01*
X15027500Y-8547500D02*
X15027500Y-8587500D01*
X15007500Y-8567500D02*
X15047500Y-8567500D01*
X15027500Y-8682500D02*
X15027500Y-8722500D01*
X15007500Y-8702500D02*
X15047500Y-8702500D01*
X15112500Y-8547500D02*
X15112500Y-8587500D01*
X15092500Y-8567500D02*
X15132500Y-8567500D01*
X15112500Y-8682500D02*
X15112500Y-8722500D01*
X15092500Y-8702500D02*
X15132500Y-8702500D01*
X15197500Y-8547500D02*
X15197500Y-8587500D01*
X15177500Y-8567500D02*
X15217500Y-8567500D01*
X15197500Y-8682500D02*
X15197500Y-8722500D01*
X15177500Y-8702500D02*
X15217500Y-8702500D01*
X14488713Y-8287713D02*
X14488713Y-8245287D01*
X14446287Y-8245287D01*
X14446287Y-8287713D01*
X14488713Y-8287713D01*
X14497500Y-8306500D02*
X14497500Y-8226500D01*
X14437500Y-8226500D02*
G75*
G02*
X14497500Y-8226500I30000J0D01*
G01*
X14437500Y-8226500D02*
X14437500Y-8306500D01*
X14437500Y-8306500D02*
G75*
G03*
X14497500Y-8306500I30000J0D01*
G01*
X14488713Y-8625713D02*
X14488713Y-8583287D01*
X14446287Y-8583287D01*
X14446287Y-8625713D01*
X14488713Y-8625713D01*
X14497500Y-8679500D02*
X14497500Y-8529500D01*
X14437500Y-8529500D02*
G75*
G02*
X14497500Y-8529500I30000J0D01*
G01*
X14437500Y-8529500D02*
X14437500Y-8679500D01*
X14437500Y-8679500D02*
G75*
G03*
X14497500Y-8679500I30000J0D01*
G01*
X15353713Y-8287713D02*
X15353713Y-8245287D01*
X15311287Y-8245287D01*
X15311287Y-8287713D01*
X15353713Y-8287713D01*
X15362500Y-8306500D02*
X15362500Y-8226500D01*
X15302500Y-8226500D02*
G75*
G02*
X15362500Y-8226500I30000J0D01*
G01*
X15302500Y-8226500D02*
X15302500Y-8306500D01*
X15302500Y-8306500D02*
G75*
G03*
X15362500Y-8306500I30000J0D01*
G01*
X15353713Y-8625713D02*
X15353713Y-8583287D01*
X15311287Y-8583287D01*
X15311287Y-8625713D01*
X15353713Y-8625713D01*
X15362500Y-8679500D02*
X15362500Y-8529500D01*
X15302500Y-8529500D02*
G75*
G02*
X15362500Y-8529500I30000J0D01*
G01*
X15302500Y-8529500D02*
X15302500Y-8679500D01*
X15302500Y-8679500D02*
G75*
G03*
X15362500Y-8679500I30000J0D01*
G01*
X14350000Y-11446000D02*
X14400000Y-11396000D01*
X14350000Y-11346000D01*
X14300000Y-11396000D01*
X14350000Y-11446000D01*
X14350000Y-11700000D02*
X14400000Y-11650000D01*
X14350000Y-11600000D01*
X14300000Y-11650000D01*
X14350000Y-11700000D01*
X14604000Y-11446000D02*
X14654000Y-11396000D01*
X14604000Y-11346000D01*
X14554000Y-11396000D01*
X14604000Y-11446000D01*
X14604000Y-11700000D02*
X14654000Y-11650000D01*
X14604000Y-11600000D01*
X14554000Y-11650000D01*
X14604000Y-11700000D01*
X14858000Y-11446000D02*
X14908000Y-11396000D01*
X14858000Y-11346000D01*
X14808000Y-11396000D01*
X14858000Y-11446000D01*
X14858000Y-11700000D02*
X14908000Y-11650000D01*
X14858000Y-11600000D01*
X14808000Y-11650000D01*
X14858000Y-11700000D01*
X15276000Y-11192000D02*
X15326000Y-11142000D01*
X15276000Y-11092000D01*
X15226000Y-11142000D01*
X15276000Y-11192000D01*
X15276000Y-11446000D02*
X15326000Y-11396000D01*
X15276000Y-11346000D01*
X15226000Y-11396000D01*
X15276000Y-11446000D01*
X15276000Y-11700000D02*
X15326000Y-11650000D01*
X15276000Y-11600000D01*
X15226000Y-11650000D01*
X15276000Y-11700000D01*
X15530000Y-11192000D02*
X15580000Y-11142000D01*
X15530000Y-11092000D01*
X15480000Y-11142000D01*
X15530000Y-11192000D01*
X15530000Y-11446000D02*
X15580000Y-11396000D01*
X15530000Y-11346000D01*
X15480000Y-11396000D01*
X15530000Y-11446000D01*
X15530000Y-11700000D02*
X15580000Y-11650000D01*
X15530000Y-11600000D01*
X15480000Y-11650000D01*
X15530000Y-11700000D01*
D11*
X14258277Y-12213984D02*
X14258277Y-12013984D01*
X14258277Y-12013984D02*
X14305896Y-12013984D01*
X14305896Y-12013984D02*
X14334467Y-12023508D01*
X14334467Y-12023508D02*
X14353515Y-12042555D01*
X14353515Y-12042555D02*
X14363039Y-12061603D01*
X14363039Y-12061603D02*
X14372562Y-12099698D01*
X14372562Y-12099698D02*
X14372562Y-12128269D01*
X14372562Y-12128269D02*
X14363039Y-12166365D01*
X14363039Y-12166365D02*
X14353515Y-12185412D01*
X14353515Y-12185412D02*
X14334467Y-12204460D01*
X14334467Y-12204460D02*
X14305896Y-12213984D01*
X14305896Y-12213984D02*
X14258277Y-12213984D01*
X14458277Y-12213984D02*
X14458277Y-12080650D01*
X14458277Y-12118746D02*
X14467801Y-12099698D01*
X14467801Y-12099698D02*
X14477324Y-12090174D01*
X14477324Y-12090174D02*
X14496372Y-12080650D01*
X14496372Y-12080650D02*
X14515420Y-12080650D01*
X14582086Y-12213984D02*
X14582086Y-12080650D01*
X14582086Y-12013984D02*
X14572562Y-12023508D01*
X14572562Y-12023508D02*
X14582086Y-12033031D01*
X14582086Y-12033031D02*
X14591610Y-12023508D01*
X14591610Y-12023508D02*
X14582086Y-12013984D01*
X14582086Y-12013984D02*
X14582086Y-12033031D01*
X14705896Y-12213984D02*
X14686848Y-12204460D01*
X14686848Y-12204460D02*
X14677324Y-12185412D01*
X14677324Y-12185412D02*
X14677324Y-12013984D01*
X14810658Y-12213984D02*
X14791610Y-12204460D01*
X14791610Y-12204460D02*
X14782086Y-12185412D01*
X14782086Y-12185412D02*
X14782086Y-12013984D01*
X15039229Y-12213984D02*
X15039229Y-12013984D01*
X15039229Y-12013984D02*
X15105896Y-12156841D01*
X15105896Y-12156841D02*
X15172562Y-12013984D01*
X15172562Y-12013984D02*
X15172562Y-12213984D01*
X15353515Y-12213984D02*
X15353515Y-12109222D01*
X15353515Y-12109222D02*
X15343991Y-12090174D01*
X15343991Y-12090174D02*
X15324943Y-12080650D01*
X15324943Y-12080650D02*
X15286848Y-12080650D01*
X15286848Y-12080650D02*
X15267801Y-12090174D01*
X15353515Y-12204460D02*
X15334467Y-12213984D01*
X15334467Y-12213984D02*
X15286848Y-12213984D01*
X15286848Y-12213984D02*
X15267801Y-12204460D01*
X15267801Y-12204460D02*
X15258277Y-12185412D01*
X15258277Y-12185412D02*
X15258277Y-12166365D01*
X15258277Y-12166365D02*
X15267801Y-12147317D01*
X15267801Y-12147317D02*
X15286848Y-12137793D01*
X15286848Y-12137793D02*
X15334467Y-12137793D01*
X15334467Y-12137793D02*
X15353515Y-12128269D01*
X15448753Y-12080650D02*
X15448753Y-12280650D01*
X15448753Y-12090174D02*
X15467801Y-12080650D01*
X15467801Y-12080650D02*
X15505896Y-12080650D01*
X15505896Y-12080650D02*
X15524943Y-12090174D01*
X15524943Y-12090174D02*
X15534467Y-12099698D01*
X15534467Y-12099698D02*
X15543991Y-12118746D01*
X15543991Y-12118746D02*
X15543991Y-12175888D01*
X15543991Y-12175888D02*
X15534467Y-12194936D01*
X15534467Y-12194936D02*
X15524943Y-12204460D01*
X15524943Y-12204460D02*
X15505896Y-12213984D01*
X15505896Y-12213984D02*
X15467801Y-12213984D01*
X15467801Y-12213984D02*
X15448753Y-12204460D01*
X15629705Y-12194936D02*
X15639229Y-12204460D01*
X15639229Y-12204460D02*
X15629705Y-12213984D01*
X15629705Y-12213984D02*
X15620182Y-12204460D01*
X15620182Y-12204460D02*
X15629705Y-12194936D01*
X15629705Y-12194936D02*
X15629705Y-12213984D01*
X15629705Y-12090174D02*
X15639229Y-12099698D01*
X15639229Y-12099698D02*
X15629705Y-12109222D01*
X15629705Y-12109222D02*
X15620182Y-12099698D01*
X15620182Y-12099698D02*
X15629705Y-12090174D01*
X15629705Y-12090174D02*
X15629705Y-12109222D01*
D12*
X13967500Y-12527500D02*
X13997500Y-12557500D01*
X13997500Y-12527500D02*
X13967500Y-12557500D01*
D11*
X14296372Y-12433984D02*
X14315420Y-12433984D01*
X14315420Y-12433984D02*
X14334467Y-12443508D01*
X14334467Y-12443508D02*
X14343991Y-12453031D01*
X14343991Y-12453031D02*
X14353515Y-12472079D01*
X14353515Y-12472079D02*
X14363039Y-12510174D01*
X14363039Y-12510174D02*
X14363039Y-12557793D01*
X14363039Y-12557793D02*
X14353515Y-12595888D01*
X14353515Y-12595888D02*
X14343991Y-12614936D01*
X14343991Y-12614936D02*
X14334467Y-12624460D01*
X14334467Y-12624460D02*
X14315420Y-12633984D01*
X14315420Y-12633984D02*
X14296372Y-12633984D01*
X14296372Y-12633984D02*
X14277324Y-12624460D01*
X14277324Y-12624460D02*
X14267801Y-12614936D01*
X14267801Y-12614936D02*
X14258277Y-12595888D01*
X14258277Y-12595888D02*
X14248753Y-12557793D01*
X14248753Y-12557793D02*
X14248753Y-12510174D01*
X14248753Y-12510174D02*
X14258277Y-12472079D01*
X14258277Y-12472079D02*
X14267801Y-12453031D01*
X14267801Y-12453031D02*
X14277324Y-12443508D01*
X14277324Y-12443508D02*
X14296372Y-12433984D01*
X14448753Y-12614936D02*
X14458277Y-12624460D01*
X14458277Y-12624460D02*
X14448753Y-12633984D01*
X14448753Y-12633984D02*
X14439229Y-12624460D01*
X14439229Y-12624460D02*
X14448753Y-12614936D01*
X14448753Y-12614936D02*
X14448753Y-12633984D01*
X14524943Y-12433984D02*
X14648753Y-12433984D01*
X14648753Y-12433984D02*
X14582086Y-12510174D01*
X14582086Y-12510174D02*
X14610658Y-12510174D01*
X14610658Y-12510174D02*
X14629705Y-12519698D01*
X14629705Y-12519698D02*
X14639229Y-12529222D01*
X14639229Y-12529222D02*
X14648753Y-12548269D01*
X14648753Y-12548269D02*
X14648753Y-12595888D01*
X14648753Y-12595888D02*
X14639229Y-12614936D01*
X14639229Y-12614936D02*
X14629705Y-12624460D01*
X14629705Y-12624460D02*
X14610658Y-12633984D01*
X14610658Y-12633984D02*
X14553515Y-12633984D01*
X14553515Y-12633984D02*
X14534467Y-12624460D01*
X14534467Y-12624460D02*
X14524943Y-12614936D01*
X14772562Y-12433984D02*
X14791610Y-12433984D01*
X14791610Y-12433984D02*
X14810658Y-12443508D01*
X14810658Y-12443508D02*
X14820182Y-12453031D01*
X14820182Y-12453031D02*
X14829705Y-12472079D01*
X14829705Y-12472079D02*
X14839229Y-12510174D01*
X14839229Y-12510174D02*
X14839229Y-12557793D01*
X14839229Y-12557793D02*
X14829705Y-12595888D01*
X14829705Y-12595888D02*
X14820182Y-12614936D01*
X14820182Y-12614936D02*
X14810658Y-12624460D01*
X14810658Y-12624460D02*
X14791610Y-12633984D01*
X14791610Y-12633984D02*
X14772562Y-12633984D01*
X14772562Y-12633984D02*
X14753515Y-12624460D01*
X14753515Y-12624460D02*
X14743991Y-12614936D01*
X14743991Y-12614936D02*
X14734467Y-12595888D01*
X14734467Y-12595888D02*
X14724943Y-12557793D01*
X14724943Y-12557793D02*
X14724943Y-12510174D01*
X14724943Y-12510174D02*
X14734467Y-12472079D01*
X14734467Y-12472079D02*
X14743991Y-12453031D01*
X14743991Y-12453031D02*
X14753515Y-12443508D01*
X14753515Y-12443508D02*
X14772562Y-12433984D01*
X14963039Y-12433984D02*
X14982086Y-12433984D01*
X14982086Y-12433984D02*
X15001134Y-12443508D01*
X15001134Y-12443508D02*
X15010658Y-12453031D01*
X15010658Y-12453031D02*
X15020182Y-12472079D01*
X15020182Y-12472079D02*
X15029705Y-12510174D01*
X15029705Y-12510174D02*
X15029705Y-12557793D01*
X15029705Y-12557793D02*
X15020182Y-12595888D01*
X15020182Y-12595888D02*
X15010658Y-12614936D01*
X15010658Y-12614936D02*
X15001134Y-12624460D01*
X15001134Y-12624460D02*
X14982086Y-12633984D01*
X14982086Y-12633984D02*
X14963039Y-12633984D01*
X14963039Y-12633984D02*
X14943991Y-12624460D01*
X14943991Y-12624460D02*
X14934467Y-12614936D01*
X14934467Y-12614936D02*
X14924943Y-12595888D01*
X14924943Y-12595888D02*
X14915420Y-12557793D01*
X14915420Y-12557793D02*
X14915420Y-12510174D01*
X14915420Y-12510174D02*
X14924943Y-12472079D01*
X14924943Y-12472079D02*
X14934467Y-12453031D01*
X14934467Y-12453031D02*
X14943991Y-12443508D01*
X14943991Y-12443508D02*
X14963039Y-12433984D01*
X15115420Y-12633984D02*
X15115420Y-12500650D01*
X15115420Y-12519698D02*
X15124943Y-12510174D01*
X15124943Y-12510174D02*
X15143991Y-12500650D01*
X15143991Y-12500650D02*
X15172563Y-12500650D01*
X15172563Y-12500650D02*
X15191610Y-12510174D01*
X15191610Y-12510174D02*
X15201134Y-12529222D01*
X15201134Y-12529222D02*
X15201134Y-12633984D01*
X15201134Y-12529222D02*
X15210658Y-12510174D01*
X15210658Y-12510174D02*
X15229705Y-12500650D01*
X15229705Y-12500650D02*
X15258277Y-12500650D01*
X15258277Y-12500650D02*
X15277324Y-12510174D01*
X15277324Y-12510174D02*
X15286848Y-12529222D01*
X15286848Y-12529222D02*
X15286848Y-12633984D01*
X15382086Y-12633984D02*
X15382086Y-12500650D01*
X15382086Y-12519698D02*
X15391610Y-12510174D01*
X15391610Y-12510174D02*
X15410658Y-12500650D01*
X15410658Y-12500650D02*
X15439229Y-12500650D01*
X15439229Y-12500650D02*
X15458277Y-12510174D01*
X15458277Y-12510174D02*
X15467801Y-12529222D01*
X15467801Y-12529222D02*
X15467801Y-12633984D01*
X15467801Y-12529222D02*
X15477324Y-12510174D01*
X15477324Y-12510174D02*
X15496372Y-12500650D01*
X15496372Y-12500650D02*
X15524943Y-12500650D01*
X15524943Y-12500650D02*
X15543991Y-12510174D01*
X15543991Y-12510174D02*
X15553515Y-12529222D01*
X15553515Y-12529222D02*
X15553515Y-12633984D01*
X15943991Y-12424460D02*
X15772563Y-12681603D01*
X16201134Y-12433984D02*
X16220182Y-12433984D01*
X16220182Y-12433984D02*
X16239229Y-12443508D01*
X16239229Y-12443508D02*
X16248753Y-12453031D01*
X16248753Y-12453031D02*
X16258277Y-12472079D01*
X16258277Y-12472079D02*
X16267801Y-12510174D01*
X16267801Y-12510174D02*
X16267801Y-12557793D01*
X16267801Y-12557793D02*
X16258277Y-12595888D01*
X16258277Y-12595888D02*
X16248753Y-12614936D01*
X16248753Y-12614936D02*
X16239229Y-12624460D01*
X16239229Y-12624460D02*
X16220182Y-12633984D01*
X16220182Y-12633984D02*
X16201134Y-12633984D01*
X16201134Y-12633984D02*
X16182086Y-12624460D01*
X16182086Y-12624460D02*
X16172563Y-12614936D01*
X16172563Y-12614936D02*
X16163039Y-12595888D01*
X16163039Y-12595888D02*
X16153515Y-12557793D01*
X16153515Y-12557793D02*
X16153515Y-12510174D01*
X16153515Y-12510174D02*
X16163039Y-12472079D01*
X16163039Y-12472079D02*
X16172563Y-12453031D01*
X16172563Y-12453031D02*
X16182086Y-12443508D01*
X16182086Y-12443508D02*
X16201134Y-12433984D01*
X16353515Y-12614936D02*
X16363039Y-12624460D01*
X16363039Y-12624460D02*
X16353515Y-12633984D01*
X16353515Y-12633984D02*
X16343991Y-12624460D01*
X16343991Y-12624460D02*
X16353515Y-12614936D01*
X16353515Y-12614936D02*
X16353515Y-12633984D01*
X16486848Y-12433984D02*
X16505896Y-12433984D01*
X16505896Y-12433984D02*
X16524944Y-12443508D01*
X16524944Y-12443508D02*
X16534467Y-12453031D01*
X16534467Y-12453031D02*
X16543991Y-12472079D01*
X16543991Y-12472079D02*
X16553515Y-12510174D01*
X16553515Y-12510174D02*
X16553515Y-12557793D01*
X16553515Y-12557793D02*
X16543991Y-12595888D01*
X16543991Y-12595888D02*
X16534467Y-12614936D01*
X16534467Y-12614936D02*
X16524944Y-12624460D01*
X16524944Y-12624460D02*
X16505896Y-12633984D01*
X16505896Y-12633984D02*
X16486848Y-12633984D01*
X16486848Y-12633984D02*
X16467801Y-12624460D01*
X16467801Y-12624460D02*
X16458277Y-12614936D01*
X16458277Y-12614936D02*
X16448753Y-12595888D01*
X16448753Y-12595888D02*
X16439229Y-12557793D01*
X16439229Y-12557793D02*
X16439229Y-12510174D01*
X16439229Y-12510174D02*
X16448753Y-12472079D01*
X16448753Y-12472079D02*
X16458277Y-12453031D01*
X16458277Y-12453031D02*
X16467801Y-12443508D01*
X16467801Y-12443508D02*
X16486848Y-12433984D01*
X16743991Y-12633984D02*
X16629706Y-12633984D01*
X16686848Y-12633984D02*
X16686848Y-12433984D01*
X16686848Y-12433984D02*
X16667801Y-12462555D01*
X16667801Y-12462555D02*
X16648753Y-12481603D01*
X16648753Y-12481603D02*
X16629706Y-12491127D01*
X16934468Y-12633984D02*
X16820182Y-12633984D01*
X16877325Y-12633984D02*
X16877325Y-12433984D01*
X16877325Y-12433984D02*
X16858277Y-12462555D01*
X16858277Y-12462555D02*
X16839229Y-12481603D01*
X16839229Y-12481603D02*
X16820182Y-12491127D01*
X17048753Y-12519698D02*
X17029706Y-12510174D01*
X17029706Y-12510174D02*
X17020182Y-12500650D01*
X17020182Y-12500650D02*
X17010658Y-12481603D01*
X17010658Y-12481603D02*
X17010658Y-12472079D01*
X17010658Y-12472079D02*
X17020182Y-12453031D01*
X17020182Y-12453031D02*
X17029706Y-12443508D01*
X17029706Y-12443508D02*
X17048753Y-12433984D01*
X17048753Y-12433984D02*
X17086849Y-12433984D01*
X17086849Y-12433984D02*
X17105896Y-12443508D01*
X17105896Y-12443508D02*
X17115420Y-12453031D01*
X17115420Y-12453031D02*
X17124944Y-12472079D01*
X17124944Y-12472079D02*
X17124944Y-12481603D01*
X17124944Y-12481603D02*
X17115420Y-12500650D01*
X17115420Y-12500650D02*
X17105896Y-12510174D01*
X17105896Y-12510174D02*
X17086849Y-12519698D01*
X17086849Y-12519698D02*
X17048753Y-12519698D01*
X17048753Y-12519698D02*
X17029706Y-12529222D01*
X17029706Y-12529222D02*
X17020182Y-12538746D01*
X17020182Y-12538746D02*
X17010658Y-12557793D01*
X17010658Y-12557793D02*
X17010658Y-12595888D01*
X17010658Y-12595888D02*
X17020182Y-12614936D01*
X17020182Y-12614936D02*
X17029706Y-12624460D01*
X17029706Y-12624460D02*
X17048753Y-12633984D01*
X17048753Y-12633984D02*
X17086849Y-12633984D01*
X17086849Y-12633984D02*
X17105896Y-12624460D01*
X17105896Y-12624460D02*
X17115420Y-12614936D01*
X17115420Y-12614936D02*
X17124944Y-12595888D01*
X17124944Y-12595888D02*
X17124944Y-12557793D01*
X17124944Y-12557793D02*
X17115420Y-12538746D01*
X17115420Y-12538746D02*
X17105896Y-12529222D01*
X17105896Y-12529222D02*
X17086849Y-12519698D01*
X17201134Y-12433984D02*
X17201134Y-12472079D01*
X17277325Y-12433984D02*
X17277325Y-12472079D01*
X17572563Y-12710174D02*
X17563039Y-12700650D01*
X17563039Y-12700650D02*
X17543991Y-12672079D01*
X17543991Y-12672079D02*
X17534468Y-12653031D01*
X17534468Y-12653031D02*
X17524944Y-12624460D01*
X17524944Y-12624460D02*
X17515420Y-12576841D01*
X17515420Y-12576841D02*
X17515420Y-12538746D01*
X17515420Y-12538746D02*
X17524944Y-12491127D01*
X17524944Y-12491127D02*
X17534468Y-12462555D01*
X17534468Y-12462555D02*
X17543991Y-12443508D01*
X17543991Y-12443508D02*
X17563039Y-12414936D01*
X17563039Y-12414936D02*
X17572563Y-12405412D01*
X17753515Y-12633984D02*
X17639230Y-12633984D01*
X17696372Y-12633984D02*
X17696372Y-12433984D01*
X17696372Y-12433984D02*
X17677325Y-12462555D01*
X17677325Y-12462555D02*
X17658277Y-12481603D01*
X17658277Y-12481603D02*
X17639230Y-12491127D01*
X17991611Y-12633984D02*
X17991611Y-12433984D01*
X18077325Y-12633984D02*
X18077325Y-12529222D01*
X18077325Y-12529222D02*
X18067801Y-12510174D01*
X18067801Y-12510174D02*
X18048753Y-12500650D01*
X18048753Y-12500650D02*
X18020182Y-12500650D01*
X18020182Y-12500650D02*
X18001134Y-12510174D01*
X18001134Y-12510174D02*
X17991611Y-12519698D01*
X18201134Y-12633984D02*
X18182087Y-12624460D01*
X18182087Y-12624460D02*
X18172563Y-12614936D01*
X18172563Y-12614936D02*
X18163039Y-12595888D01*
X18163039Y-12595888D02*
X18163039Y-12538746D01*
X18163039Y-12538746D02*
X18172563Y-12519698D01*
X18172563Y-12519698D02*
X18182087Y-12510174D01*
X18182087Y-12510174D02*
X18201134Y-12500650D01*
X18201134Y-12500650D02*
X18229706Y-12500650D01*
X18229706Y-12500650D02*
X18248753Y-12510174D01*
X18248753Y-12510174D02*
X18258277Y-12519698D01*
X18258277Y-12519698D02*
X18267801Y-12538746D01*
X18267801Y-12538746D02*
X18267801Y-12595888D01*
X18267801Y-12595888D02*
X18258277Y-12614936D01*
X18258277Y-12614936D02*
X18248753Y-12624460D01*
X18248753Y-12624460D02*
X18229706Y-12633984D01*
X18229706Y-12633984D02*
X18201134Y-12633984D01*
X18382087Y-12633984D02*
X18363039Y-12624460D01*
X18363039Y-12624460D02*
X18353515Y-12605412D01*
X18353515Y-12605412D02*
X18353515Y-12433984D01*
X18534468Y-12624460D02*
X18515420Y-12633984D01*
X18515420Y-12633984D02*
X18477325Y-12633984D01*
X18477325Y-12633984D02*
X18458277Y-12624460D01*
X18458277Y-12624460D02*
X18448753Y-12605412D01*
X18448753Y-12605412D02*
X18448753Y-12529222D01*
X18448753Y-12529222D02*
X18458277Y-12510174D01*
X18458277Y-12510174D02*
X18477325Y-12500650D01*
X18477325Y-12500650D02*
X18515420Y-12500650D01*
X18515420Y-12500650D02*
X18534468Y-12510174D01*
X18534468Y-12510174D02*
X18543992Y-12529222D01*
X18543992Y-12529222D02*
X18543992Y-12548269D01*
X18543992Y-12548269D02*
X18448753Y-12567317D01*
X18610658Y-12710174D02*
X18620182Y-12700650D01*
X18620182Y-12700650D02*
X18639230Y-12672079D01*
X18639230Y-12672079D02*
X18648753Y-12653031D01*
X18648753Y-12653031D02*
X18658277Y-12624460D01*
X18658277Y-12624460D02*
X18667801Y-12576841D01*
X18667801Y-12576841D02*
X18667801Y-12538746D01*
X18667801Y-12538746D02*
X18658277Y-12491127D01*
X18658277Y-12491127D02*
X18648753Y-12462555D01*
X18648753Y-12462555D02*
X18639230Y-12443508D01*
X18639230Y-12443508D02*
X18620182Y-12414936D01*
X18620182Y-12414936D02*
X18610658Y-12405412D01*
D12*
X13997500Y-12806500D02*
G75*
G02*
X13957500Y-12806500I-20000J0D01*
G01*
X13957500Y-12806500D02*
G75*
G02*
X13997500Y-12806500I20000J0D01*
G01*
D11*
X14296372Y-12697984D02*
X14315420Y-12697984D01*
X14315420Y-12697984D02*
X14334467Y-12707508D01*
X14334467Y-12707508D02*
X14343991Y-12717031D01*
X14343991Y-12717031D02*
X14353515Y-12736079D01*
X14353515Y-12736079D02*
X14363039Y-12774174D01*
X14363039Y-12774174D02*
X14363039Y-12821793D01*
X14363039Y-12821793D02*
X14353515Y-12859888D01*
X14353515Y-12859888D02*
X14343991Y-12878936D01*
X14343991Y-12878936D02*
X14334467Y-12888460D01*
X14334467Y-12888460D02*
X14315420Y-12897984D01*
X14315420Y-12897984D02*
X14296372Y-12897984D01*
X14296372Y-12897984D02*
X14277324Y-12888460D01*
X14277324Y-12888460D02*
X14267801Y-12878936D01*
X14267801Y-12878936D02*
X14258277Y-12859888D01*
X14258277Y-12859888D02*
X14248753Y-12821793D01*
X14248753Y-12821793D02*
X14248753Y-12774174D01*
X14248753Y-12774174D02*
X14258277Y-12736079D01*
X14258277Y-12736079D02*
X14267801Y-12717031D01*
X14267801Y-12717031D02*
X14277324Y-12707508D01*
X14277324Y-12707508D02*
X14296372Y-12697984D01*
X14448753Y-12878936D02*
X14458277Y-12888460D01*
X14458277Y-12888460D02*
X14448753Y-12897984D01*
X14448753Y-12897984D02*
X14439229Y-12888460D01*
X14439229Y-12888460D02*
X14448753Y-12878936D01*
X14448753Y-12878936D02*
X14448753Y-12897984D01*
X14629705Y-12764650D02*
X14629705Y-12897984D01*
X14582086Y-12688460D02*
X14534467Y-12831317D01*
X14534467Y-12831317D02*
X14658277Y-12831317D01*
X14772562Y-12697984D02*
X14791610Y-12697984D01*
X14791610Y-12697984D02*
X14810658Y-12707508D01*
X14810658Y-12707508D02*
X14820182Y-12717031D01*
X14820182Y-12717031D02*
X14829705Y-12736079D01*
X14829705Y-12736079D02*
X14839229Y-12774174D01*
X14839229Y-12774174D02*
X14839229Y-12821793D01*
X14839229Y-12821793D02*
X14829705Y-12859888D01*
X14829705Y-12859888D02*
X14820182Y-12878936D01*
X14820182Y-12878936D02*
X14810658Y-12888460D01*
X14810658Y-12888460D02*
X14791610Y-12897984D01*
X14791610Y-12897984D02*
X14772562Y-12897984D01*
X14772562Y-12897984D02*
X14753515Y-12888460D01*
X14753515Y-12888460D02*
X14743991Y-12878936D01*
X14743991Y-12878936D02*
X14734467Y-12859888D01*
X14734467Y-12859888D02*
X14724943Y-12821793D01*
X14724943Y-12821793D02*
X14724943Y-12774174D01*
X14724943Y-12774174D02*
X14734467Y-12736079D01*
X14734467Y-12736079D02*
X14743991Y-12717031D01*
X14743991Y-12717031D02*
X14753515Y-12707508D01*
X14753515Y-12707508D02*
X14772562Y-12697984D01*
X14963039Y-12697984D02*
X14982086Y-12697984D01*
X14982086Y-12697984D02*
X15001134Y-12707508D01*
X15001134Y-12707508D02*
X15010658Y-12717031D01*
X15010658Y-12717031D02*
X15020182Y-12736079D01*
X15020182Y-12736079D02*
X15029705Y-12774174D01*
X15029705Y-12774174D02*
X15029705Y-12821793D01*
X15029705Y-12821793D02*
X15020182Y-12859888D01*
X15020182Y-12859888D02*
X15010658Y-12878936D01*
X15010658Y-12878936D02*
X15001134Y-12888460D01*
X15001134Y-12888460D02*
X14982086Y-12897984D01*
X14982086Y-12897984D02*
X14963039Y-12897984D01*
X14963039Y-12897984D02*
X14943991Y-12888460D01*
X14943991Y-12888460D02*
X14934467Y-12878936D01*
X14934467Y-12878936D02*
X14924943Y-12859888D01*
X14924943Y-12859888D02*
X14915420Y-12821793D01*
X14915420Y-12821793D02*
X14915420Y-12774174D01*
X14915420Y-12774174D02*
X14924943Y-12736079D01*
X14924943Y-12736079D02*
X14934467Y-12717031D01*
X14934467Y-12717031D02*
X14943991Y-12707508D01*
X14943991Y-12707508D02*
X14963039Y-12697984D01*
X15115420Y-12897984D02*
X15115420Y-12764650D01*
X15115420Y-12783698D02*
X15124943Y-12774174D01*
X15124943Y-12774174D02*
X15143991Y-12764650D01*
X15143991Y-12764650D02*
X15172563Y-12764650D01*
X15172563Y-12764650D02*
X15191610Y-12774174D01*
X15191610Y-12774174D02*
X15201134Y-12793222D01*
X15201134Y-12793222D02*
X15201134Y-12897984D01*
X15201134Y-12793222D02*
X15210658Y-12774174D01*
X15210658Y-12774174D02*
X15229705Y-12764650D01*
X15229705Y-12764650D02*
X15258277Y-12764650D01*
X15258277Y-12764650D02*
X15277324Y-12774174D01*
X15277324Y-12774174D02*
X15286848Y-12793222D01*
X15286848Y-12793222D02*
X15286848Y-12897984D01*
X15382086Y-12897984D02*
X15382086Y-12764650D01*
X15382086Y-12783698D02*
X15391610Y-12774174D01*
X15391610Y-12774174D02*
X15410658Y-12764650D01*
X15410658Y-12764650D02*
X15439229Y-12764650D01*
X15439229Y-12764650D02*
X15458277Y-12774174D01*
X15458277Y-12774174D02*
X15467801Y-12793222D01*
X15467801Y-12793222D02*
X15467801Y-12897984D01*
X15467801Y-12793222D02*
X15477324Y-12774174D01*
X15477324Y-12774174D02*
X15496372Y-12764650D01*
X15496372Y-12764650D02*
X15524943Y-12764650D01*
X15524943Y-12764650D02*
X15543991Y-12774174D01*
X15543991Y-12774174D02*
X15553515Y-12793222D01*
X15553515Y-12793222D02*
X15553515Y-12897984D01*
X15943991Y-12688460D02*
X15772563Y-12945603D01*
X16201134Y-12697984D02*
X16220182Y-12697984D01*
X16220182Y-12697984D02*
X16239229Y-12707508D01*
X16239229Y-12707508D02*
X16248753Y-12717031D01*
X16248753Y-12717031D02*
X16258277Y-12736079D01*
X16258277Y-12736079D02*
X16267801Y-12774174D01*
X16267801Y-12774174D02*
X16267801Y-12821793D01*
X16267801Y-12821793D02*
X16258277Y-12859888D01*
X16258277Y-12859888D02*
X16248753Y-12878936D01*
X16248753Y-12878936D02*
X16239229Y-12888460D01*
X16239229Y-12888460D02*
X16220182Y-12897984D01*
X16220182Y-12897984D02*
X16201134Y-12897984D01*
X16201134Y-12897984D02*
X16182086Y-12888460D01*
X16182086Y-12888460D02*
X16172563Y-12878936D01*
X16172563Y-12878936D02*
X16163039Y-12859888D01*
X16163039Y-12859888D02*
X16153515Y-12821793D01*
X16153515Y-12821793D02*
X16153515Y-12774174D01*
X16153515Y-12774174D02*
X16163039Y-12736079D01*
X16163039Y-12736079D02*
X16172563Y-12717031D01*
X16172563Y-12717031D02*
X16182086Y-12707508D01*
X16182086Y-12707508D02*
X16201134Y-12697984D01*
X16353515Y-12878936D02*
X16363039Y-12888460D01*
X16363039Y-12888460D02*
X16353515Y-12897984D01*
X16353515Y-12897984D02*
X16343991Y-12888460D01*
X16343991Y-12888460D02*
X16353515Y-12878936D01*
X16353515Y-12878936D02*
X16353515Y-12897984D01*
X16486848Y-12697984D02*
X16505896Y-12697984D01*
X16505896Y-12697984D02*
X16524944Y-12707508D01*
X16524944Y-12707508D02*
X16534467Y-12717031D01*
X16534467Y-12717031D02*
X16543991Y-12736079D01*
X16543991Y-12736079D02*
X16553515Y-12774174D01*
X16553515Y-12774174D02*
X16553515Y-12821793D01*
X16553515Y-12821793D02*
X16543991Y-12859888D01*
X16543991Y-12859888D02*
X16534467Y-12878936D01*
X16534467Y-12878936D02*
X16524944Y-12888460D01*
X16524944Y-12888460D02*
X16505896Y-12897984D01*
X16505896Y-12897984D02*
X16486848Y-12897984D01*
X16486848Y-12897984D02*
X16467801Y-12888460D01*
X16467801Y-12888460D02*
X16458277Y-12878936D01*
X16458277Y-12878936D02*
X16448753Y-12859888D01*
X16448753Y-12859888D02*
X16439229Y-12821793D01*
X16439229Y-12821793D02*
X16439229Y-12774174D01*
X16439229Y-12774174D02*
X16448753Y-12736079D01*
X16448753Y-12736079D02*
X16458277Y-12717031D01*
X16458277Y-12717031D02*
X16467801Y-12707508D01*
X16467801Y-12707508D02*
X16486848Y-12697984D01*
X16743991Y-12897984D02*
X16629706Y-12897984D01*
X16686848Y-12897984D02*
X16686848Y-12697984D01*
X16686848Y-12697984D02*
X16667801Y-12726555D01*
X16667801Y-12726555D02*
X16648753Y-12745603D01*
X16648753Y-12745603D02*
X16629706Y-12755127D01*
X16924944Y-12697984D02*
X16829706Y-12697984D01*
X16829706Y-12697984D02*
X16820182Y-12793222D01*
X16820182Y-12793222D02*
X16829706Y-12783698D01*
X16829706Y-12783698D02*
X16848753Y-12774174D01*
X16848753Y-12774174D02*
X16896372Y-12774174D01*
X16896372Y-12774174D02*
X16915420Y-12783698D01*
X16915420Y-12783698D02*
X16924944Y-12793222D01*
X16924944Y-12793222D02*
X16934468Y-12812269D01*
X16934468Y-12812269D02*
X16934468Y-12859888D01*
X16934468Y-12859888D02*
X16924944Y-12878936D01*
X16924944Y-12878936D02*
X16915420Y-12888460D01*
X16915420Y-12888460D02*
X16896372Y-12897984D01*
X16896372Y-12897984D02*
X16848753Y-12897984D01*
X16848753Y-12897984D02*
X16829706Y-12888460D01*
X16829706Y-12888460D02*
X16820182Y-12878936D01*
X17001134Y-12697984D02*
X17134468Y-12697984D01*
X17134468Y-12697984D02*
X17048753Y-12897984D01*
X17201134Y-12697984D02*
X17201134Y-12736079D01*
X17277325Y-12697984D02*
X17277325Y-12736079D01*
X17572563Y-12974174D02*
X17563039Y-12964650D01*
X17563039Y-12964650D02*
X17543991Y-12936079D01*
X17543991Y-12936079D02*
X17534468Y-12917031D01*
X17534468Y-12917031D02*
X17524944Y-12888460D01*
X17524944Y-12888460D02*
X17515420Y-12840841D01*
X17515420Y-12840841D02*
X17515420Y-12802746D01*
X17515420Y-12802746D02*
X17524944Y-12755127D01*
X17524944Y-12755127D02*
X17534468Y-12726555D01*
X17534468Y-12726555D02*
X17543991Y-12707508D01*
X17543991Y-12707508D02*
X17563039Y-12678936D01*
X17563039Y-12678936D02*
X17572563Y-12669412D01*
X17629706Y-12697984D02*
X17753515Y-12697984D01*
X17753515Y-12697984D02*
X17686849Y-12774174D01*
X17686849Y-12774174D02*
X17715420Y-12774174D01*
X17715420Y-12774174D02*
X17734468Y-12783698D01*
X17734468Y-12783698D02*
X17743991Y-12793222D01*
X17743991Y-12793222D02*
X17753515Y-12812269D01*
X17753515Y-12812269D02*
X17753515Y-12859888D01*
X17753515Y-12859888D02*
X17743991Y-12878936D01*
X17743991Y-12878936D02*
X17734468Y-12888460D01*
X17734468Y-12888460D02*
X17715420Y-12897984D01*
X17715420Y-12897984D02*
X17658277Y-12897984D01*
X17658277Y-12897984D02*
X17639230Y-12888460D01*
X17639230Y-12888460D02*
X17629706Y-12878936D01*
X17848753Y-12897984D02*
X17886849Y-12897984D01*
X17886849Y-12897984D02*
X17905896Y-12888460D01*
X17905896Y-12888460D02*
X17915420Y-12878936D01*
X17915420Y-12878936D02*
X17934468Y-12850365D01*
X17934468Y-12850365D02*
X17943991Y-12812269D01*
X17943991Y-12812269D02*
X17943991Y-12736079D01*
X17943991Y-12736079D02*
X17934468Y-12717031D01*
X17934468Y-12717031D02*
X17924944Y-12707508D01*
X17924944Y-12707508D02*
X17905896Y-12697984D01*
X17905896Y-12697984D02*
X17867801Y-12697984D01*
X17867801Y-12697984D02*
X17848753Y-12707508D01*
X17848753Y-12707508D02*
X17839230Y-12717031D01*
X17839230Y-12717031D02*
X17829706Y-12736079D01*
X17829706Y-12736079D02*
X17829706Y-12783698D01*
X17829706Y-12783698D02*
X17839230Y-12802746D01*
X17839230Y-12802746D02*
X17848753Y-12812269D01*
X17848753Y-12812269D02*
X17867801Y-12821793D01*
X17867801Y-12821793D02*
X17905896Y-12821793D01*
X17905896Y-12821793D02*
X17924944Y-12812269D01*
X17924944Y-12812269D02*
X17934468Y-12802746D01*
X17934468Y-12802746D02*
X17943991Y-12783698D01*
X18182087Y-12897984D02*
X18182087Y-12697984D01*
X18267801Y-12897984D02*
X18267801Y-12793222D01*
X18267801Y-12793222D02*
X18258277Y-12774174D01*
X18258277Y-12774174D02*
X18239230Y-12764650D01*
X18239230Y-12764650D02*
X18210658Y-12764650D01*
X18210658Y-12764650D02*
X18191611Y-12774174D01*
X18191611Y-12774174D02*
X18182087Y-12783698D01*
X18391611Y-12897984D02*
X18372563Y-12888460D01*
X18372563Y-12888460D02*
X18363039Y-12878936D01*
X18363039Y-12878936D02*
X18353515Y-12859888D01*
X18353515Y-12859888D02*
X18353515Y-12802746D01*
X18353515Y-12802746D02*
X18363039Y-12783698D01*
X18363039Y-12783698D02*
X18372563Y-12774174D01*
X18372563Y-12774174D02*
X18391611Y-12764650D01*
X18391611Y-12764650D02*
X18420182Y-12764650D01*
X18420182Y-12764650D02*
X18439230Y-12774174D01*
X18439230Y-12774174D02*
X18448753Y-12783698D01*
X18448753Y-12783698D02*
X18458277Y-12802746D01*
X18458277Y-12802746D02*
X18458277Y-12859888D01*
X18458277Y-12859888D02*
X18448753Y-12878936D01*
X18448753Y-12878936D02*
X18439230Y-12888460D01*
X18439230Y-12888460D02*
X18420182Y-12897984D01*
X18420182Y-12897984D02*
X18391611Y-12897984D01*
X18572563Y-12897984D02*
X18553515Y-12888460D01*
X18553515Y-12888460D02*
X18543992Y-12869412D01*
X18543992Y-12869412D02*
X18543992Y-12697984D01*
X18724944Y-12888460D02*
X18705896Y-12897984D01*
X18705896Y-12897984D02*
X18667801Y-12897984D01*
X18667801Y-12897984D02*
X18648753Y-12888460D01*
X18648753Y-12888460D02*
X18639230Y-12869412D01*
X18639230Y-12869412D02*
X18639230Y-12793222D01*
X18639230Y-12793222D02*
X18648753Y-12774174D01*
X18648753Y-12774174D02*
X18667801Y-12764650D01*
X18667801Y-12764650D02*
X18705896Y-12764650D01*
X18705896Y-12764650D02*
X18724944Y-12774174D01*
X18724944Y-12774174D02*
X18734468Y-12793222D01*
X18734468Y-12793222D02*
X18734468Y-12812269D01*
X18734468Y-12812269D02*
X18639230Y-12831317D01*
X18810658Y-12888460D02*
X18829706Y-12897984D01*
X18829706Y-12897984D02*
X18867801Y-12897984D01*
X18867801Y-12897984D02*
X18886849Y-12888460D01*
X18886849Y-12888460D02*
X18896373Y-12869412D01*
X18896373Y-12869412D02*
X18896373Y-12859888D01*
X18896373Y-12859888D02*
X18886849Y-12840841D01*
X18886849Y-12840841D02*
X18867801Y-12831317D01*
X18867801Y-12831317D02*
X18839230Y-12831317D01*
X18839230Y-12831317D02*
X18820182Y-12821793D01*
X18820182Y-12821793D02*
X18810658Y-12802746D01*
X18810658Y-12802746D02*
X18810658Y-12793222D01*
X18810658Y-12793222D02*
X18820182Y-12774174D01*
X18820182Y-12774174D02*
X18839230Y-12764650D01*
X18839230Y-12764650D02*
X18867801Y-12764650D01*
X18867801Y-12764650D02*
X18886849Y-12774174D01*
X18963039Y-12974174D02*
X18972563Y-12964650D01*
X18972563Y-12964650D02*
X18991611Y-12936079D01*
X18991611Y-12936079D02*
X19001134Y-12917031D01*
X19001134Y-12917031D02*
X19010658Y-12888460D01*
X19010658Y-12888460D02*
X19020182Y-12840841D01*
X19020182Y-12840841D02*
X19020182Y-12802746D01*
X19020182Y-12802746D02*
X19010658Y-12755127D01*
X19010658Y-12755127D02*
X19001134Y-12726555D01*
X19001134Y-12726555D02*
X18991611Y-12707508D01*
X18991611Y-12707508D02*
X18972563Y-12678936D01*
X18972563Y-12678936D02*
X18963039Y-12669412D01*
D12*
X13977500Y-13050500D02*
X13977500Y-13090500D01*
X13957500Y-13070500D02*
X13997500Y-13070500D01*
D11*
X14296372Y-12961984D02*
X14315420Y-12961984D01*
X14315420Y-12961984D02*
X14334467Y-12971508D01*
X14334467Y-12971508D02*
X14343991Y-12981031D01*
X14343991Y-12981031D02*
X14353515Y-13000079D01*
X14353515Y-13000079D02*
X14363039Y-13038174D01*
X14363039Y-13038174D02*
X14363039Y-13085793D01*
X14363039Y-13085793D02*
X14353515Y-13123888D01*
X14353515Y-13123888D02*
X14343991Y-13142936D01*
X14343991Y-13142936D02*
X14334467Y-13152460D01*
X14334467Y-13152460D02*
X14315420Y-13161984D01*
X14315420Y-13161984D02*
X14296372Y-13161984D01*
X14296372Y-13161984D02*
X14277324Y-13152460D01*
X14277324Y-13152460D02*
X14267801Y-13142936D01*
X14267801Y-13142936D02*
X14258277Y-13123888D01*
X14258277Y-13123888D02*
X14248753Y-13085793D01*
X14248753Y-13085793D02*
X14248753Y-13038174D01*
X14248753Y-13038174D02*
X14258277Y-13000079D01*
X14258277Y-13000079D02*
X14267801Y-12981031D01*
X14267801Y-12981031D02*
X14277324Y-12971508D01*
X14277324Y-12971508D02*
X14296372Y-12961984D01*
X14448753Y-13142936D02*
X14458277Y-13152460D01*
X14458277Y-13152460D02*
X14448753Y-13161984D01*
X14448753Y-13161984D02*
X14439229Y-13152460D01*
X14439229Y-13152460D02*
X14448753Y-13142936D01*
X14448753Y-13142936D02*
X14448753Y-13161984D01*
X14629705Y-13028650D02*
X14629705Y-13161984D01*
X14582086Y-12952460D02*
X14534467Y-13095317D01*
X14534467Y-13095317D02*
X14658277Y-13095317D01*
X14772562Y-12961984D02*
X14791610Y-12961984D01*
X14791610Y-12961984D02*
X14810658Y-12971508D01*
X14810658Y-12971508D02*
X14820182Y-12981031D01*
X14820182Y-12981031D02*
X14829705Y-13000079D01*
X14829705Y-13000079D02*
X14839229Y-13038174D01*
X14839229Y-13038174D02*
X14839229Y-13085793D01*
X14839229Y-13085793D02*
X14829705Y-13123888D01*
X14829705Y-13123888D02*
X14820182Y-13142936D01*
X14820182Y-13142936D02*
X14810658Y-13152460D01*
X14810658Y-13152460D02*
X14791610Y-13161984D01*
X14791610Y-13161984D02*
X14772562Y-13161984D01*
X14772562Y-13161984D02*
X14753515Y-13152460D01*
X14753515Y-13152460D02*
X14743991Y-13142936D01*
X14743991Y-13142936D02*
X14734467Y-13123888D01*
X14734467Y-13123888D02*
X14724943Y-13085793D01*
X14724943Y-13085793D02*
X14724943Y-13038174D01*
X14724943Y-13038174D02*
X14734467Y-13000079D01*
X14734467Y-13000079D02*
X14743991Y-12981031D01*
X14743991Y-12981031D02*
X14753515Y-12971508D01*
X14753515Y-12971508D02*
X14772562Y-12961984D01*
X14963039Y-12961984D02*
X14982086Y-12961984D01*
X14982086Y-12961984D02*
X15001134Y-12971508D01*
X15001134Y-12971508D02*
X15010658Y-12981031D01*
X15010658Y-12981031D02*
X15020182Y-13000079D01*
X15020182Y-13000079D02*
X15029705Y-13038174D01*
X15029705Y-13038174D02*
X15029705Y-13085793D01*
X15029705Y-13085793D02*
X15020182Y-13123888D01*
X15020182Y-13123888D02*
X15010658Y-13142936D01*
X15010658Y-13142936D02*
X15001134Y-13152460D01*
X15001134Y-13152460D02*
X14982086Y-13161984D01*
X14982086Y-13161984D02*
X14963039Y-13161984D01*
X14963039Y-13161984D02*
X14943991Y-13152460D01*
X14943991Y-13152460D02*
X14934467Y-13142936D01*
X14934467Y-13142936D02*
X14924943Y-13123888D01*
X14924943Y-13123888D02*
X14915420Y-13085793D01*
X14915420Y-13085793D02*
X14915420Y-13038174D01*
X14915420Y-13038174D02*
X14924943Y-13000079D01*
X14924943Y-13000079D02*
X14934467Y-12981031D01*
X14934467Y-12981031D02*
X14943991Y-12971508D01*
X14943991Y-12971508D02*
X14963039Y-12961984D01*
X15115420Y-13161984D02*
X15115420Y-13028650D01*
X15115420Y-13047698D02*
X15124943Y-13038174D01*
X15124943Y-13038174D02*
X15143991Y-13028650D01*
X15143991Y-13028650D02*
X15172563Y-13028650D01*
X15172563Y-13028650D02*
X15191610Y-13038174D01*
X15191610Y-13038174D02*
X15201134Y-13057222D01*
X15201134Y-13057222D02*
X15201134Y-13161984D01*
X15201134Y-13057222D02*
X15210658Y-13038174D01*
X15210658Y-13038174D02*
X15229705Y-13028650D01*
X15229705Y-13028650D02*
X15258277Y-13028650D01*
X15258277Y-13028650D02*
X15277324Y-13038174D01*
X15277324Y-13038174D02*
X15286848Y-13057222D01*
X15286848Y-13057222D02*
X15286848Y-13161984D01*
X15382086Y-13161984D02*
X15382086Y-13028650D01*
X15382086Y-13047698D02*
X15391610Y-13038174D01*
X15391610Y-13038174D02*
X15410658Y-13028650D01*
X15410658Y-13028650D02*
X15439229Y-13028650D01*
X15439229Y-13028650D02*
X15458277Y-13038174D01*
X15458277Y-13038174D02*
X15467801Y-13057222D01*
X15467801Y-13057222D02*
X15467801Y-13161984D01*
X15467801Y-13057222D02*
X15477324Y-13038174D01*
X15477324Y-13038174D02*
X15496372Y-13028650D01*
X15496372Y-13028650D02*
X15524943Y-13028650D01*
X15524943Y-13028650D02*
X15543991Y-13038174D01*
X15543991Y-13038174D02*
X15553515Y-13057222D01*
X15553515Y-13057222D02*
X15553515Y-13161984D01*
X15943991Y-12952460D02*
X15772563Y-13209603D01*
X16201134Y-12961984D02*
X16220182Y-12961984D01*
X16220182Y-12961984D02*
X16239229Y-12971508D01*
X16239229Y-12971508D02*
X16248753Y-12981031D01*
X16248753Y-12981031D02*
X16258277Y-13000079D01*
X16258277Y-13000079D02*
X16267801Y-13038174D01*
X16267801Y-13038174D02*
X16267801Y-13085793D01*
X16267801Y-13085793D02*
X16258277Y-13123888D01*
X16258277Y-13123888D02*
X16248753Y-13142936D01*
X16248753Y-13142936D02*
X16239229Y-13152460D01*
X16239229Y-13152460D02*
X16220182Y-13161984D01*
X16220182Y-13161984D02*
X16201134Y-13161984D01*
X16201134Y-13161984D02*
X16182086Y-13152460D01*
X16182086Y-13152460D02*
X16172563Y-13142936D01*
X16172563Y-13142936D02*
X16163039Y-13123888D01*
X16163039Y-13123888D02*
X16153515Y-13085793D01*
X16153515Y-13085793D02*
X16153515Y-13038174D01*
X16153515Y-13038174D02*
X16163039Y-13000079D01*
X16163039Y-13000079D02*
X16172563Y-12981031D01*
X16172563Y-12981031D02*
X16182086Y-12971508D01*
X16182086Y-12971508D02*
X16201134Y-12961984D01*
X16353515Y-13142936D02*
X16363039Y-13152460D01*
X16363039Y-13152460D02*
X16353515Y-13161984D01*
X16353515Y-13161984D02*
X16343991Y-13152460D01*
X16343991Y-13152460D02*
X16353515Y-13142936D01*
X16353515Y-13142936D02*
X16353515Y-13161984D01*
X16486848Y-12961984D02*
X16505896Y-12961984D01*
X16505896Y-12961984D02*
X16524944Y-12971508D01*
X16524944Y-12971508D02*
X16534467Y-12981031D01*
X16534467Y-12981031D02*
X16543991Y-13000079D01*
X16543991Y-13000079D02*
X16553515Y-13038174D01*
X16553515Y-13038174D02*
X16553515Y-13085793D01*
X16553515Y-13085793D02*
X16543991Y-13123888D01*
X16543991Y-13123888D02*
X16534467Y-13142936D01*
X16534467Y-13142936D02*
X16524944Y-13152460D01*
X16524944Y-13152460D02*
X16505896Y-13161984D01*
X16505896Y-13161984D02*
X16486848Y-13161984D01*
X16486848Y-13161984D02*
X16467801Y-13152460D01*
X16467801Y-13152460D02*
X16458277Y-13142936D01*
X16458277Y-13142936D02*
X16448753Y-13123888D01*
X16448753Y-13123888D02*
X16439229Y-13085793D01*
X16439229Y-13085793D02*
X16439229Y-13038174D01*
X16439229Y-13038174D02*
X16448753Y-13000079D01*
X16448753Y-13000079D02*
X16458277Y-12981031D01*
X16458277Y-12981031D02*
X16467801Y-12971508D01*
X16467801Y-12971508D02*
X16486848Y-12961984D01*
X16743991Y-13161984D02*
X16629706Y-13161984D01*
X16686848Y-13161984D02*
X16686848Y-12961984D01*
X16686848Y-12961984D02*
X16667801Y-12990555D01*
X16667801Y-12990555D02*
X16648753Y-13009603D01*
X16648753Y-13009603D02*
X16629706Y-13019127D01*
X16924944Y-12961984D02*
X16829706Y-12961984D01*
X16829706Y-12961984D02*
X16820182Y-13057222D01*
X16820182Y-13057222D02*
X16829706Y-13047698D01*
X16829706Y-13047698D02*
X16848753Y-13038174D01*
X16848753Y-13038174D02*
X16896372Y-13038174D01*
X16896372Y-13038174D02*
X16915420Y-13047698D01*
X16915420Y-13047698D02*
X16924944Y-13057222D01*
X16924944Y-13057222D02*
X16934468Y-13076269D01*
X16934468Y-13076269D02*
X16934468Y-13123888D01*
X16934468Y-13123888D02*
X16924944Y-13142936D01*
X16924944Y-13142936D02*
X16915420Y-13152460D01*
X16915420Y-13152460D02*
X16896372Y-13161984D01*
X16896372Y-13161984D02*
X16848753Y-13161984D01*
X16848753Y-13161984D02*
X16829706Y-13152460D01*
X16829706Y-13152460D02*
X16820182Y-13142936D01*
X17001134Y-12961984D02*
X17134468Y-12961984D01*
X17134468Y-12961984D02*
X17048753Y-13161984D01*
X17201134Y-12961984D02*
X17201134Y-13000079D01*
X17277325Y-12961984D02*
X17277325Y-13000079D01*
X17572563Y-13238174D02*
X17563039Y-13228650D01*
X17563039Y-13228650D02*
X17543991Y-13200079D01*
X17543991Y-13200079D02*
X17534468Y-13181031D01*
X17534468Y-13181031D02*
X17524944Y-13152460D01*
X17524944Y-13152460D02*
X17515420Y-13104841D01*
X17515420Y-13104841D02*
X17515420Y-13066746D01*
X17515420Y-13066746D02*
X17524944Y-13019127D01*
X17524944Y-13019127D02*
X17534468Y-12990555D01*
X17534468Y-12990555D02*
X17543991Y-12971508D01*
X17543991Y-12971508D02*
X17563039Y-12942936D01*
X17563039Y-12942936D02*
X17572563Y-12933412D01*
X17753515Y-13161984D02*
X17639230Y-13161984D01*
X17696372Y-13161984D02*
X17696372Y-12961984D01*
X17696372Y-12961984D02*
X17677325Y-12990555D01*
X17677325Y-12990555D02*
X17658277Y-13009603D01*
X17658277Y-13009603D02*
X17639230Y-13019127D01*
X17924944Y-12961984D02*
X17886849Y-12961984D01*
X17886849Y-12961984D02*
X17867801Y-12971508D01*
X17867801Y-12971508D02*
X17858277Y-12981031D01*
X17858277Y-12981031D02*
X17839230Y-13009603D01*
X17839230Y-13009603D02*
X17829706Y-13047698D01*
X17829706Y-13047698D02*
X17829706Y-13123888D01*
X17829706Y-13123888D02*
X17839230Y-13142936D01*
X17839230Y-13142936D02*
X17848753Y-13152460D01*
X17848753Y-13152460D02*
X17867801Y-13161984D01*
X17867801Y-13161984D02*
X17905896Y-13161984D01*
X17905896Y-13161984D02*
X17924944Y-13152460D01*
X17924944Y-13152460D02*
X17934468Y-13142936D01*
X17934468Y-13142936D02*
X17943991Y-13123888D01*
X17943991Y-13123888D02*
X17943991Y-13076269D01*
X17943991Y-13076269D02*
X17934468Y-13057222D01*
X17934468Y-13057222D02*
X17924944Y-13047698D01*
X17924944Y-13047698D02*
X17905896Y-13038174D01*
X17905896Y-13038174D02*
X17867801Y-13038174D01*
X17867801Y-13038174D02*
X17848753Y-13047698D01*
X17848753Y-13047698D02*
X17839230Y-13057222D01*
X17839230Y-13057222D02*
X17829706Y-13076269D01*
X18182087Y-13161984D02*
X18182087Y-12961984D01*
X18267801Y-13161984D02*
X18267801Y-13057222D01*
X18267801Y-13057222D02*
X18258277Y-13038174D01*
X18258277Y-13038174D02*
X18239230Y-13028650D01*
X18239230Y-13028650D02*
X18210658Y-13028650D01*
X18210658Y-13028650D02*
X18191611Y-13038174D01*
X18191611Y-13038174D02*
X18182087Y-13047698D01*
X18391611Y-13161984D02*
X18372563Y-13152460D01*
X18372563Y-13152460D02*
X18363039Y-13142936D01*
X18363039Y-13142936D02*
X18353515Y-13123888D01*
X18353515Y-13123888D02*
X18353515Y-13066746D01*
X18353515Y-13066746D02*
X18363039Y-13047698D01*
X18363039Y-13047698D02*
X18372563Y-13038174D01*
X18372563Y-13038174D02*
X18391611Y-13028650D01*
X18391611Y-13028650D02*
X18420182Y-13028650D01*
X18420182Y-13028650D02*
X18439230Y-13038174D01*
X18439230Y-13038174D02*
X18448753Y-13047698D01*
X18448753Y-13047698D02*
X18458277Y-13066746D01*
X18458277Y-13066746D02*
X18458277Y-13123888D01*
X18458277Y-13123888D02*
X18448753Y-13142936D01*
X18448753Y-13142936D02*
X18439230Y-13152460D01*
X18439230Y-13152460D02*
X18420182Y-13161984D01*
X18420182Y-13161984D02*
X18391611Y-13161984D01*
X18572563Y-13161984D02*
X18553515Y-13152460D01*
X18553515Y-13152460D02*
X18543992Y-13133412D01*
X18543992Y-13133412D02*
X18543992Y-12961984D01*
X18724944Y-13152460D02*
X18705896Y-13161984D01*
X18705896Y-13161984D02*
X18667801Y-13161984D01*
X18667801Y-13161984D02*
X18648753Y-13152460D01*
X18648753Y-13152460D02*
X18639230Y-13133412D01*
X18639230Y-13133412D02*
X18639230Y-13057222D01*
X18639230Y-13057222D02*
X18648753Y-13038174D01*
X18648753Y-13038174D02*
X18667801Y-13028650D01*
X18667801Y-13028650D02*
X18705896Y-13028650D01*
X18705896Y-13028650D02*
X18724944Y-13038174D01*
X18724944Y-13038174D02*
X18734468Y-13057222D01*
X18734468Y-13057222D02*
X18734468Y-13076269D01*
X18734468Y-13076269D02*
X18639230Y-13095317D01*
X18810658Y-13152460D02*
X18829706Y-13161984D01*
X18829706Y-13161984D02*
X18867801Y-13161984D01*
X18867801Y-13161984D02*
X18886849Y-13152460D01*
X18886849Y-13152460D02*
X18896373Y-13133412D01*
X18896373Y-13133412D02*
X18896373Y-13123888D01*
X18896373Y-13123888D02*
X18886849Y-13104841D01*
X18886849Y-13104841D02*
X18867801Y-13095317D01*
X18867801Y-13095317D02*
X18839230Y-13095317D01*
X18839230Y-13095317D02*
X18820182Y-13085793D01*
X18820182Y-13085793D02*
X18810658Y-13066746D01*
X18810658Y-13066746D02*
X18810658Y-13057222D01*
X18810658Y-13057222D02*
X18820182Y-13038174D01*
X18820182Y-13038174D02*
X18839230Y-13028650D01*
X18839230Y-13028650D02*
X18867801Y-13028650D01*
X18867801Y-13028650D02*
X18886849Y-13038174D01*
X18963039Y-13238174D02*
X18972563Y-13228650D01*
X18972563Y-13228650D02*
X18991611Y-13200079D01*
X18991611Y-13200079D02*
X19001134Y-13181031D01*
X19001134Y-13181031D02*
X19010658Y-13152460D01*
X19010658Y-13152460D02*
X19020182Y-13104841D01*
X19020182Y-13104841D02*
X19020182Y-13066746D01*
X19020182Y-13066746D02*
X19010658Y-13019127D01*
X19010658Y-13019127D02*
X19001134Y-12990555D01*
X19001134Y-12990555D02*
X18991611Y-12971508D01*
X18991611Y-12971508D02*
X18972563Y-12942936D01*
X18972563Y-12942936D02*
X18963039Y-12933412D01*
D12*
X13988713Y-13355713D02*
X13988713Y-13313287D01*
X13946287Y-13313287D01*
X13946287Y-13355713D01*
X13988713Y-13355713D01*
D11*
X14296372Y-13225984D02*
X14315420Y-13225984D01*
X14315420Y-13225984D02*
X14334467Y-13235508D01*
X14334467Y-13235508D02*
X14343991Y-13245031D01*
X14343991Y-13245031D02*
X14353515Y-13264079D01*
X14353515Y-13264079D02*
X14363039Y-13302174D01*
X14363039Y-13302174D02*
X14363039Y-13349793D01*
X14363039Y-13349793D02*
X14353515Y-13387888D01*
X14353515Y-13387888D02*
X14343991Y-13406936D01*
X14343991Y-13406936D02*
X14334467Y-13416460D01*
X14334467Y-13416460D02*
X14315420Y-13425984D01*
X14315420Y-13425984D02*
X14296372Y-13425984D01*
X14296372Y-13425984D02*
X14277324Y-13416460D01*
X14277324Y-13416460D02*
X14267801Y-13406936D01*
X14267801Y-13406936D02*
X14258277Y-13387888D01*
X14258277Y-13387888D02*
X14248753Y-13349793D01*
X14248753Y-13349793D02*
X14248753Y-13302174D01*
X14248753Y-13302174D02*
X14258277Y-13264079D01*
X14258277Y-13264079D02*
X14267801Y-13245031D01*
X14267801Y-13245031D02*
X14277324Y-13235508D01*
X14277324Y-13235508D02*
X14296372Y-13225984D01*
X14448753Y-13406936D02*
X14458277Y-13416460D01*
X14458277Y-13416460D02*
X14448753Y-13425984D01*
X14448753Y-13425984D02*
X14439229Y-13416460D01*
X14439229Y-13416460D02*
X14448753Y-13406936D01*
X14448753Y-13406936D02*
X14448753Y-13425984D01*
X14629705Y-13225984D02*
X14591610Y-13225984D01*
X14591610Y-13225984D02*
X14572562Y-13235508D01*
X14572562Y-13235508D02*
X14563039Y-13245031D01*
X14563039Y-13245031D02*
X14543991Y-13273603D01*
X14543991Y-13273603D02*
X14534467Y-13311698D01*
X14534467Y-13311698D02*
X14534467Y-13387888D01*
X14534467Y-13387888D02*
X14543991Y-13406936D01*
X14543991Y-13406936D02*
X14553515Y-13416460D01*
X14553515Y-13416460D02*
X14572562Y-13425984D01*
X14572562Y-13425984D02*
X14610658Y-13425984D01*
X14610658Y-13425984D02*
X14629705Y-13416460D01*
X14629705Y-13416460D02*
X14639229Y-13406936D01*
X14639229Y-13406936D02*
X14648753Y-13387888D01*
X14648753Y-13387888D02*
X14648753Y-13340269D01*
X14648753Y-13340269D02*
X14639229Y-13321222D01*
X14639229Y-13321222D02*
X14629705Y-13311698D01*
X14629705Y-13311698D02*
X14610658Y-13302174D01*
X14610658Y-13302174D02*
X14572562Y-13302174D01*
X14572562Y-13302174D02*
X14553515Y-13311698D01*
X14553515Y-13311698D02*
X14543991Y-13321222D01*
X14543991Y-13321222D02*
X14534467Y-13340269D01*
X14772562Y-13225984D02*
X14791610Y-13225984D01*
X14791610Y-13225984D02*
X14810658Y-13235508D01*
X14810658Y-13235508D02*
X14820182Y-13245031D01*
X14820182Y-13245031D02*
X14829705Y-13264079D01*
X14829705Y-13264079D02*
X14839229Y-13302174D01*
X14839229Y-13302174D02*
X14839229Y-13349793D01*
X14839229Y-13349793D02*
X14829705Y-13387888D01*
X14829705Y-13387888D02*
X14820182Y-13406936D01*
X14820182Y-13406936D02*
X14810658Y-13416460D01*
X14810658Y-13416460D02*
X14791610Y-13425984D01*
X14791610Y-13425984D02*
X14772562Y-13425984D01*
X14772562Y-13425984D02*
X14753515Y-13416460D01*
X14753515Y-13416460D02*
X14743991Y-13406936D01*
X14743991Y-13406936D02*
X14734467Y-13387888D01*
X14734467Y-13387888D02*
X14724943Y-13349793D01*
X14724943Y-13349793D02*
X14724943Y-13302174D01*
X14724943Y-13302174D02*
X14734467Y-13264079D01*
X14734467Y-13264079D02*
X14743991Y-13245031D01*
X14743991Y-13245031D02*
X14753515Y-13235508D01*
X14753515Y-13235508D02*
X14772562Y-13225984D01*
X14963039Y-13225984D02*
X14982086Y-13225984D01*
X14982086Y-13225984D02*
X15001134Y-13235508D01*
X15001134Y-13235508D02*
X15010658Y-13245031D01*
X15010658Y-13245031D02*
X15020182Y-13264079D01*
X15020182Y-13264079D02*
X15029705Y-13302174D01*
X15029705Y-13302174D02*
X15029705Y-13349793D01*
X15029705Y-13349793D02*
X15020182Y-13387888D01*
X15020182Y-13387888D02*
X15010658Y-13406936D01*
X15010658Y-13406936D02*
X15001134Y-13416460D01*
X15001134Y-13416460D02*
X14982086Y-13425984D01*
X14982086Y-13425984D02*
X14963039Y-13425984D01*
X14963039Y-13425984D02*
X14943991Y-13416460D01*
X14943991Y-13416460D02*
X14934467Y-13406936D01*
X14934467Y-13406936D02*
X14924943Y-13387888D01*
X14924943Y-13387888D02*
X14915420Y-13349793D01*
X14915420Y-13349793D02*
X14915420Y-13302174D01*
X14915420Y-13302174D02*
X14924943Y-13264079D01*
X14924943Y-13264079D02*
X14934467Y-13245031D01*
X14934467Y-13245031D02*
X14943991Y-13235508D01*
X14943991Y-13235508D02*
X14963039Y-13225984D01*
X15115420Y-13425984D02*
X15115420Y-13292650D01*
X15115420Y-13311698D02*
X15124943Y-13302174D01*
X15124943Y-13302174D02*
X15143991Y-13292650D01*
X15143991Y-13292650D02*
X15172563Y-13292650D01*
X15172563Y-13292650D02*
X15191610Y-13302174D01*
X15191610Y-13302174D02*
X15201134Y-13321222D01*
X15201134Y-13321222D02*
X15201134Y-13425984D01*
X15201134Y-13321222D02*
X15210658Y-13302174D01*
X15210658Y-13302174D02*
X15229705Y-13292650D01*
X15229705Y-13292650D02*
X15258277Y-13292650D01*
X15258277Y-13292650D02*
X15277324Y-13302174D01*
X15277324Y-13302174D02*
X15286848Y-13321222D01*
X15286848Y-13321222D02*
X15286848Y-13425984D01*
X15382086Y-13425984D02*
X15382086Y-13292650D01*
X15382086Y-13311698D02*
X15391610Y-13302174D01*
X15391610Y-13302174D02*
X15410658Y-13292650D01*
X15410658Y-13292650D02*
X15439229Y-13292650D01*
X15439229Y-13292650D02*
X15458277Y-13302174D01*
X15458277Y-13302174D02*
X15467801Y-13321222D01*
X15467801Y-13321222D02*
X15467801Y-13425984D01*
X15467801Y-13321222D02*
X15477324Y-13302174D01*
X15477324Y-13302174D02*
X15496372Y-13292650D01*
X15496372Y-13292650D02*
X15524943Y-13292650D01*
X15524943Y-13292650D02*
X15543991Y-13302174D01*
X15543991Y-13302174D02*
X15553515Y-13321222D01*
X15553515Y-13321222D02*
X15553515Y-13425984D01*
X15943991Y-13216460D02*
X15772563Y-13473603D01*
X16201134Y-13225984D02*
X16220182Y-13225984D01*
X16220182Y-13225984D02*
X16239229Y-13235508D01*
X16239229Y-13235508D02*
X16248753Y-13245031D01*
X16248753Y-13245031D02*
X16258277Y-13264079D01*
X16258277Y-13264079D02*
X16267801Y-13302174D01*
X16267801Y-13302174D02*
X16267801Y-13349793D01*
X16267801Y-13349793D02*
X16258277Y-13387888D01*
X16258277Y-13387888D02*
X16248753Y-13406936D01*
X16248753Y-13406936D02*
X16239229Y-13416460D01*
X16239229Y-13416460D02*
X16220182Y-13425984D01*
X16220182Y-13425984D02*
X16201134Y-13425984D01*
X16201134Y-13425984D02*
X16182086Y-13416460D01*
X16182086Y-13416460D02*
X16172563Y-13406936D01*
X16172563Y-13406936D02*
X16163039Y-13387888D01*
X16163039Y-13387888D02*
X16153515Y-13349793D01*
X16153515Y-13349793D02*
X16153515Y-13302174D01*
X16153515Y-13302174D02*
X16163039Y-13264079D01*
X16163039Y-13264079D02*
X16172563Y-13245031D01*
X16172563Y-13245031D02*
X16182086Y-13235508D01*
X16182086Y-13235508D02*
X16201134Y-13225984D01*
X16353515Y-13406936D02*
X16363039Y-13416460D01*
X16363039Y-13416460D02*
X16353515Y-13425984D01*
X16353515Y-13425984D02*
X16343991Y-13416460D01*
X16343991Y-13416460D02*
X16353515Y-13406936D01*
X16353515Y-13406936D02*
X16353515Y-13425984D01*
X16486848Y-13225984D02*
X16505896Y-13225984D01*
X16505896Y-13225984D02*
X16524944Y-13235508D01*
X16524944Y-13235508D02*
X16534467Y-13245031D01*
X16534467Y-13245031D02*
X16543991Y-13264079D01*
X16543991Y-13264079D02*
X16553515Y-13302174D01*
X16553515Y-13302174D02*
X16553515Y-13349793D01*
X16553515Y-13349793D02*
X16543991Y-13387888D01*
X16543991Y-13387888D02*
X16534467Y-13406936D01*
X16534467Y-13406936D02*
X16524944Y-13416460D01*
X16524944Y-13416460D02*
X16505896Y-13425984D01*
X16505896Y-13425984D02*
X16486848Y-13425984D01*
X16486848Y-13425984D02*
X16467801Y-13416460D01*
X16467801Y-13416460D02*
X16458277Y-13406936D01*
X16458277Y-13406936D02*
X16448753Y-13387888D01*
X16448753Y-13387888D02*
X16439229Y-13349793D01*
X16439229Y-13349793D02*
X16439229Y-13302174D01*
X16439229Y-13302174D02*
X16448753Y-13264079D01*
X16448753Y-13264079D02*
X16458277Y-13245031D01*
X16458277Y-13245031D02*
X16467801Y-13235508D01*
X16467801Y-13235508D02*
X16486848Y-13225984D01*
X16629706Y-13245031D02*
X16639229Y-13235508D01*
X16639229Y-13235508D02*
X16658277Y-13225984D01*
X16658277Y-13225984D02*
X16705896Y-13225984D01*
X16705896Y-13225984D02*
X16724944Y-13235508D01*
X16724944Y-13235508D02*
X16734467Y-13245031D01*
X16734467Y-13245031D02*
X16743991Y-13264079D01*
X16743991Y-13264079D02*
X16743991Y-13283127D01*
X16743991Y-13283127D02*
X16734467Y-13311698D01*
X16734467Y-13311698D02*
X16620182Y-13425984D01*
X16620182Y-13425984D02*
X16743991Y-13425984D01*
X16810658Y-13225984D02*
X16934468Y-13225984D01*
X16934468Y-13225984D02*
X16867801Y-13302174D01*
X16867801Y-13302174D02*
X16896372Y-13302174D01*
X16896372Y-13302174D02*
X16915420Y-13311698D01*
X16915420Y-13311698D02*
X16924944Y-13321222D01*
X16924944Y-13321222D02*
X16934468Y-13340269D01*
X16934468Y-13340269D02*
X16934468Y-13387888D01*
X16934468Y-13387888D02*
X16924944Y-13406936D01*
X16924944Y-13406936D02*
X16915420Y-13416460D01*
X16915420Y-13416460D02*
X16896372Y-13425984D01*
X16896372Y-13425984D02*
X16839229Y-13425984D01*
X16839229Y-13425984D02*
X16820182Y-13416460D01*
X16820182Y-13416460D02*
X16810658Y-13406936D01*
X17105896Y-13225984D02*
X17067801Y-13225984D01*
X17067801Y-13225984D02*
X17048753Y-13235508D01*
X17048753Y-13235508D02*
X17039229Y-13245031D01*
X17039229Y-13245031D02*
X17020182Y-13273603D01*
X17020182Y-13273603D02*
X17010658Y-13311698D01*
X17010658Y-13311698D02*
X17010658Y-13387888D01*
X17010658Y-13387888D02*
X17020182Y-13406936D01*
X17020182Y-13406936D02*
X17029706Y-13416460D01*
X17029706Y-13416460D02*
X17048753Y-13425984D01*
X17048753Y-13425984D02*
X17086849Y-13425984D01*
X17086849Y-13425984D02*
X17105896Y-13416460D01*
X17105896Y-13416460D02*
X17115420Y-13406936D01*
X17115420Y-13406936D02*
X17124944Y-13387888D01*
X17124944Y-13387888D02*
X17124944Y-13340269D01*
X17124944Y-13340269D02*
X17115420Y-13321222D01*
X17115420Y-13321222D02*
X17105896Y-13311698D01*
X17105896Y-13311698D02*
X17086849Y-13302174D01*
X17086849Y-13302174D02*
X17048753Y-13302174D01*
X17048753Y-13302174D02*
X17029706Y-13311698D01*
X17029706Y-13311698D02*
X17020182Y-13321222D01*
X17020182Y-13321222D02*
X17010658Y-13340269D01*
X17201134Y-13225984D02*
X17201134Y-13264079D01*
X17277325Y-13225984D02*
X17277325Y-13264079D01*
X17572563Y-13502174D02*
X17563039Y-13492650D01*
X17563039Y-13492650D02*
X17543991Y-13464079D01*
X17543991Y-13464079D02*
X17534468Y-13445031D01*
X17534468Y-13445031D02*
X17524944Y-13416460D01*
X17524944Y-13416460D02*
X17515420Y-13368841D01*
X17515420Y-13368841D02*
X17515420Y-13330746D01*
X17515420Y-13330746D02*
X17524944Y-13283127D01*
X17524944Y-13283127D02*
X17534468Y-13254555D01*
X17534468Y-13254555D02*
X17543991Y-13235508D01*
X17543991Y-13235508D02*
X17563039Y-13206936D01*
X17563039Y-13206936D02*
X17572563Y-13197412D01*
X17686849Y-13225984D02*
X17705896Y-13225984D01*
X17705896Y-13225984D02*
X17724944Y-13235508D01*
X17724944Y-13235508D02*
X17734468Y-13245031D01*
X17734468Y-13245031D02*
X17743991Y-13264079D01*
X17743991Y-13264079D02*
X17753515Y-13302174D01*
X17753515Y-13302174D02*
X17753515Y-13349793D01*
X17753515Y-13349793D02*
X17743991Y-13387888D01*
X17743991Y-13387888D02*
X17734468Y-13406936D01*
X17734468Y-13406936D02*
X17724944Y-13416460D01*
X17724944Y-13416460D02*
X17705896Y-13425984D01*
X17705896Y-13425984D02*
X17686849Y-13425984D01*
X17686849Y-13425984D02*
X17667801Y-13416460D01*
X17667801Y-13416460D02*
X17658277Y-13406936D01*
X17658277Y-13406936D02*
X17648753Y-13387888D01*
X17648753Y-13387888D02*
X17639230Y-13349793D01*
X17639230Y-13349793D02*
X17639230Y-13302174D01*
X17639230Y-13302174D02*
X17648753Y-13264079D01*
X17648753Y-13264079D02*
X17658277Y-13245031D01*
X17658277Y-13245031D02*
X17667801Y-13235508D01*
X17667801Y-13235508D02*
X17686849Y-13225984D01*
X17991611Y-13425984D02*
X17991611Y-13225984D01*
X18077325Y-13425984D02*
X18077325Y-13321222D01*
X18077325Y-13321222D02*
X18067801Y-13302174D01*
X18067801Y-13302174D02*
X18048753Y-13292650D01*
X18048753Y-13292650D02*
X18020182Y-13292650D01*
X18020182Y-13292650D02*
X18001134Y-13302174D01*
X18001134Y-13302174D02*
X17991611Y-13311698D01*
X18201134Y-13425984D02*
X18182087Y-13416460D01*
X18182087Y-13416460D02*
X18172563Y-13406936D01*
X18172563Y-13406936D02*
X18163039Y-13387888D01*
X18163039Y-13387888D02*
X18163039Y-13330746D01*
X18163039Y-13330746D02*
X18172563Y-13311698D01*
X18172563Y-13311698D02*
X18182087Y-13302174D01*
X18182087Y-13302174D02*
X18201134Y-13292650D01*
X18201134Y-13292650D02*
X18229706Y-13292650D01*
X18229706Y-13292650D02*
X18248753Y-13302174D01*
X18248753Y-13302174D02*
X18258277Y-13311698D01*
X18258277Y-13311698D02*
X18267801Y-13330746D01*
X18267801Y-13330746D02*
X18267801Y-13387888D01*
X18267801Y-13387888D02*
X18258277Y-13406936D01*
X18258277Y-13406936D02*
X18248753Y-13416460D01*
X18248753Y-13416460D02*
X18229706Y-13425984D01*
X18229706Y-13425984D02*
X18201134Y-13425984D01*
X18382087Y-13425984D02*
X18363039Y-13416460D01*
X18363039Y-13416460D02*
X18353515Y-13397412D01*
X18353515Y-13397412D02*
X18353515Y-13225984D01*
X18534468Y-13416460D02*
X18515420Y-13425984D01*
X18515420Y-13425984D02*
X18477325Y-13425984D01*
X18477325Y-13425984D02*
X18458277Y-13416460D01*
X18458277Y-13416460D02*
X18448753Y-13397412D01*
X18448753Y-13397412D02*
X18448753Y-13321222D01*
X18448753Y-13321222D02*
X18458277Y-13302174D01*
X18458277Y-13302174D02*
X18477325Y-13292650D01*
X18477325Y-13292650D02*
X18515420Y-13292650D01*
X18515420Y-13292650D02*
X18534468Y-13302174D01*
X18534468Y-13302174D02*
X18543992Y-13321222D01*
X18543992Y-13321222D02*
X18543992Y-13340269D01*
X18543992Y-13340269D02*
X18448753Y-13359317D01*
X18620182Y-13416460D02*
X18639230Y-13425984D01*
X18639230Y-13425984D02*
X18677325Y-13425984D01*
X18677325Y-13425984D02*
X18696373Y-13416460D01*
X18696373Y-13416460D02*
X18705896Y-13397412D01*
X18705896Y-13397412D02*
X18705896Y-13387888D01*
X18705896Y-13387888D02*
X18696373Y-13368841D01*
X18696373Y-13368841D02*
X18677325Y-13359317D01*
X18677325Y-13359317D02*
X18648753Y-13359317D01*
X18648753Y-13359317D02*
X18629706Y-13349793D01*
X18629706Y-13349793D02*
X18620182Y-13330746D01*
X18620182Y-13330746D02*
X18620182Y-13321222D01*
X18620182Y-13321222D02*
X18629706Y-13302174D01*
X18629706Y-13302174D02*
X18648753Y-13292650D01*
X18648753Y-13292650D02*
X18677325Y-13292650D01*
X18677325Y-13292650D02*
X18696373Y-13302174D01*
X18943992Y-13349793D02*
X19096373Y-13349793D01*
X19020182Y-13425984D02*
X19020182Y-13273603D01*
X19429706Y-13292650D02*
X19429706Y-13425984D01*
X19382087Y-13216460D02*
X19334468Y-13359317D01*
X19334468Y-13359317D02*
X19458277Y-13359317D01*
X19677325Y-13416460D02*
X19696373Y-13425984D01*
X19696373Y-13425984D02*
X19734468Y-13425984D01*
X19734468Y-13425984D02*
X19753516Y-13416460D01*
X19753516Y-13416460D02*
X19763039Y-13397412D01*
X19763039Y-13397412D02*
X19763039Y-13387888D01*
X19763039Y-13387888D02*
X19753516Y-13368841D01*
X19753516Y-13368841D02*
X19734468Y-13359317D01*
X19734468Y-13359317D02*
X19705896Y-13359317D01*
X19705896Y-13359317D02*
X19686849Y-13349793D01*
X19686849Y-13349793D02*
X19677325Y-13330746D01*
X19677325Y-13330746D02*
X19677325Y-13321222D01*
X19677325Y-13321222D02*
X19686849Y-13302174D01*
X19686849Y-13302174D02*
X19705896Y-13292650D01*
X19705896Y-13292650D02*
X19734468Y-13292650D01*
X19734468Y-13292650D02*
X19753516Y-13302174D01*
X19877325Y-13425984D02*
X19858277Y-13416460D01*
X19858277Y-13416460D02*
X19848754Y-13397412D01*
X19848754Y-13397412D02*
X19848754Y-13225984D01*
X19982087Y-13425984D02*
X19963039Y-13416460D01*
X19963039Y-13416460D02*
X19953516Y-13406936D01*
X19953516Y-13406936D02*
X19943992Y-13387888D01*
X19943992Y-13387888D02*
X19943992Y-13330746D01*
X19943992Y-13330746D02*
X19953516Y-13311698D01*
X19953516Y-13311698D02*
X19963039Y-13302174D01*
X19963039Y-13302174D02*
X19982087Y-13292650D01*
X19982087Y-13292650D02*
X20010658Y-13292650D01*
X20010658Y-13292650D02*
X20029706Y-13302174D01*
X20029706Y-13302174D02*
X20039230Y-13311698D01*
X20039230Y-13311698D02*
X20048754Y-13330746D01*
X20048754Y-13330746D02*
X20048754Y-13387888D01*
X20048754Y-13387888D02*
X20039230Y-13406936D01*
X20039230Y-13406936D02*
X20029706Y-13416460D01*
X20029706Y-13416460D02*
X20010658Y-13425984D01*
X20010658Y-13425984D02*
X19982087Y-13425984D01*
X20105897Y-13292650D02*
X20182087Y-13292650D01*
X20134468Y-13225984D02*
X20134468Y-13397412D01*
X20134468Y-13397412D02*
X20143992Y-13416460D01*
X20143992Y-13416460D02*
X20163039Y-13425984D01*
X20163039Y-13425984D02*
X20182087Y-13425984D01*
X20239230Y-13416460D02*
X20258277Y-13425984D01*
X20258277Y-13425984D02*
X20296373Y-13425984D01*
X20296373Y-13425984D02*
X20315420Y-13416460D01*
X20315420Y-13416460D02*
X20324944Y-13397412D01*
X20324944Y-13397412D02*
X20324944Y-13387888D01*
X20324944Y-13387888D02*
X20315420Y-13368841D01*
X20315420Y-13368841D02*
X20296373Y-13359317D01*
X20296373Y-13359317D02*
X20267801Y-13359317D01*
X20267801Y-13359317D02*
X20248754Y-13349793D01*
X20248754Y-13349793D02*
X20239230Y-13330746D01*
X20239230Y-13330746D02*
X20239230Y-13321222D01*
X20239230Y-13321222D02*
X20248754Y-13302174D01*
X20248754Y-13302174D02*
X20267801Y-13292650D01*
X20267801Y-13292650D02*
X20296373Y-13292650D01*
X20296373Y-13292650D02*
X20315420Y-13302174D01*
X20391611Y-13502174D02*
X20401135Y-13492650D01*
X20401135Y-13492650D02*
X20420182Y-13464079D01*
X20420182Y-13464079D02*
X20429706Y-13445031D01*
X20429706Y-13445031D02*
X20439230Y-13416460D01*
X20439230Y-13416460D02*
X20448754Y-13368841D01*
X20448754Y-13368841D02*
X20448754Y-13330746D01*
X20448754Y-13330746D02*
X20439230Y-13283127D01*
X20439230Y-13283127D02*
X20429706Y-13254555D01*
X20429706Y-13254555D02*
X20420182Y-13235508D01*
X20420182Y-13235508D02*
X20401135Y-13206936D01*
X20401135Y-13206936D02*
X20391611Y-13197412D01*
D12*
X13947500Y-13648500D02*
X13997500Y-13598500D01*
X13947500Y-13548500D01*
X13897500Y-13598500D01*
X13947500Y-13648500D01*
D11*
X14363039Y-13689984D02*
X14248753Y-13689984D01*
X14305896Y-13689984D02*
X14305896Y-13489984D01*
X14305896Y-13489984D02*
X14286848Y-13518555D01*
X14286848Y-13518555D02*
X14267801Y-13537603D01*
X14267801Y-13537603D02*
X14248753Y-13547127D01*
X14448753Y-13670936D02*
X14458277Y-13680460D01*
X14458277Y-13680460D02*
X14448753Y-13689984D01*
X14448753Y-13689984D02*
X14439229Y-13680460D01*
X14439229Y-13680460D02*
X14448753Y-13670936D01*
X14448753Y-13670936D02*
X14448753Y-13689984D01*
X14582086Y-13489984D02*
X14601134Y-13489984D01*
X14601134Y-13489984D02*
X14620182Y-13499508D01*
X14620182Y-13499508D02*
X14629705Y-13509031D01*
X14629705Y-13509031D02*
X14639229Y-13528079D01*
X14639229Y-13528079D02*
X14648753Y-13566174D01*
X14648753Y-13566174D02*
X14648753Y-13613793D01*
X14648753Y-13613793D02*
X14639229Y-13651888D01*
X14639229Y-13651888D02*
X14629705Y-13670936D01*
X14629705Y-13670936D02*
X14620182Y-13680460D01*
X14620182Y-13680460D02*
X14601134Y-13689984D01*
X14601134Y-13689984D02*
X14582086Y-13689984D01*
X14582086Y-13689984D02*
X14563039Y-13680460D01*
X14563039Y-13680460D02*
X14553515Y-13670936D01*
X14553515Y-13670936D02*
X14543991Y-13651888D01*
X14543991Y-13651888D02*
X14534467Y-13613793D01*
X14534467Y-13613793D02*
X14534467Y-13566174D01*
X14534467Y-13566174D02*
X14543991Y-13528079D01*
X14543991Y-13528079D02*
X14553515Y-13509031D01*
X14553515Y-13509031D02*
X14563039Y-13499508D01*
X14563039Y-13499508D02*
X14582086Y-13489984D01*
X14772562Y-13489984D02*
X14791610Y-13489984D01*
X14791610Y-13489984D02*
X14810658Y-13499508D01*
X14810658Y-13499508D02*
X14820182Y-13509031D01*
X14820182Y-13509031D02*
X14829705Y-13528079D01*
X14829705Y-13528079D02*
X14839229Y-13566174D01*
X14839229Y-13566174D02*
X14839229Y-13613793D01*
X14839229Y-13613793D02*
X14829705Y-13651888D01*
X14829705Y-13651888D02*
X14820182Y-13670936D01*
X14820182Y-13670936D02*
X14810658Y-13680460D01*
X14810658Y-13680460D02*
X14791610Y-13689984D01*
X14791610Y-13689984D02*
X14772562Y-13689984D01*
X14772562Y-13689984D02*
X14753515Y-13680460D01*
X14753515Y-13680460D02*
X14743991Y-13670936D01*
X14743991Y-13670936D02*
X14734467Y-13651888D01*
X14734467Y-13651888D02*
X14724943Y-13613793D01*
X14724943Y-13613793D02*
X14724943Y-13566174D01*
X14724943Y-13566174D02*
X14734467Y-13528079D01*
X14734467Y-13528079D02*
X14743991Y-13509031D01*
X14743991Y-13509031D02*
X14753515Y-13499508D01*
X14753515Y-13499508D02*
X14772562Y-13489984D01*
X14963039Y-13489984D02*
X14982086Y-13489984D01*
X14982086Y-13489984D02*
X15001134Y-13499508D01*
X15001134Y-13499508D02*
X15010658Y-13509031D01*
X15010658Y-13509031D02*
X15020182Y-13528079D01*
X15020182Y-13528079D02*
X15029705Y-13566174D01*
X15029705Y-13566174D02*
X15029705Y-13613793D01*
X15029705Y-13613793D02*
X15020182Y-13651888D01*
X15020182Y-13651888D02*
X15010658Y-13670936D01*
X15010658Y-13670936D02*
X15001134Y-13680460D01*
X15001134Y-13680460D02*
X14982086Y-13689984D01*
X14982086Y-13689984D02*
X14963039Y-13689984D01*
X14963039Y-13689984D02*
X14943991Y-13680460D01*
X14943991Y-13680460D02*
X14934467Y-13670936D01*
X14934467Y-13670936D02*
X14924943Y-13651888D01*
X14924943Y-13651888D02*
X14915420Y-13613793D01*
X14915420Y-13613793D02*
X14915420Y-13566174D01*
X14915420Y-13566174D02*
X14924943Y-13528079D01*
X14924943Y-13528079D02*
X14934467Y-13509031D01*
X14934467Y-13509031D02*
X14943991Y-13499508D01*
X14943991Y-13499508D02*
X14963039Y-13489984D01*
X15115420Y-13689984D02*
X15115420Y-13556650D01*
X15115420Y-13575698D02*
X15124943Y-13566174D01*
X15124943Y-13566174D02*
X15143991Y-13556650D01*
X15143991Y-13556650D02*
X15172563Y-13556650D01*
X15172563Y-13556650D02*
X15191610Y-13566174D01*
X15191610Y-13566174D02*
X15201134Y-13585222D01*
X15201134Y-13585222D02*
X15201134Y-13689984D01*
X15201134Y-13585222D02*
X15210658Y-13566174D01*
X15210658Y-13566174D02*
X15229705Y-13556650D01*
X15229705Y-13556650D02*
X15258277Y-13556650D01*
X15258277Y-13556650D02*
X15277324Y-13566174D01*
X15277324Y-13566174D02*
X15286848Y-13585222D01*
X15286848Y-13585222D02*
X15286848Y-13689984D01*
X15382086Y-13689984D02*
X15382086Y-13556650D01*
X15382086Y-13575698D02*
X15391610Y-13566174D01*
X15391610Y-13566174D02*
X15410658Y-13556650D01*
X15410658Y-13556650D02*
X15439229Y-13556650D01*
X15439229Y-13556650D02*
X15458277Y-13566174D01*
X15458277Y-13566174D02*
X15467801Y-13585222D01*
X15467801Y-13585222D02*
X15467801Y-13689984D01*
X15467801Y-13585222D02*
X15477324Y-13566174D01*
X15477324Y-13566174D02*
X15496372Y-13556650D01*
X15496372Y-13556650D02*
X15524943Y-13556650D01*
X15524943Y-13556650D02*
X15543991Y-13566174D01*
X15543991Y-13566174D02*
X15553515Y-13585222D01*
X15553515Y-13585222D02*
X15553515Y-13689984D01*
X15943991Y-13480460D02*
X15772563Y-13737603D01*
X16201134Y-13489984D02*
X16220182Y-13489984D01*
X16220182Y-13489984D02*
X16239229Y-13499508D01*
X16239229Y-13499508D02*
X16248753Y-13509031D01*
X16248753Y-13509031D02*
X16258277Y-13528079D01*
X16258277Y-13528079D02*
X16267801Y-13566174D01*
X16267801Y-13566174D02*
X16267801Y-13613793D01*
X16267801Y-13613793D02*
X16258277Y-13651888D01*
X16258277Y-13651888D02*
X16248753Y-13670936D01*
X16248753Y-13670936D02*
X16239229Y-13680460D01*
X16239229Y-13680460D02*
X16220182Y-13689984D01*
X16220182Y-13689984D02*
X16201134Y-13689984D01*
X16201134Y-13689984D02*
X16182086Y-13680460D01*
X16182086Y-13680460D02*
X16172563Y-13670936D01*
X16172563Y-13670936D02*
X16163039Y-13651888D01*
X16163039Y-13651888D02*
X16153515Y-13613793D01*
X16153515Y-13613793D02*
X16153515Y-13566174D01*
X16153515Y-13566174D02*
X16163039Y-13528079D01*
X16163039Y-13528079D02*
X16172563Y-13509031D01*
X16172563Y-13509031D02*
X16182086Y-13499508D01*
X16182086Y-13499508D02*
X16201134Y-13489984D01*
X16353515Y-13670936D02*
X16363039Y-13680460D01*
X16363039Y-13680460D02*
X16353515Y-13689984D01*
X16353515Y-13689984D02*
X16343991Y-13680460D01*
X16343991Y-13680460D02*
X16353515Y-13670936D01*
X16353515Y-13670936D02*
X16353515Y-13689984D01*
X16486848Y-13489984D02*
X16505896Y-13489984D01*
X16505896Y-13489984D02*
X16524944Y-13499508D01*
X16524944Y-13499508D02*
X16534467Y-13509031D01*
X16534467Y-13509031D02*
X16543991Y-13528079D01*
X16543991Y-13528079D02*
X16553515Y-13566174D01*
X16553515Y-13566174D02*
X16553515Y-13613793D01*
X16553515Y-13613793D02*
X16543991Y-13651888D01*
X16543991Y-13651888D02*
X16534467Y-13670936D01*
X16534467Y-13670936D02*
X16524944Y-13680460D01*
X16524944Y-13680460D02*
X16505896Y-13689984D01*
X16505896Y-13689984D02*
X16486848Y-13689984D01*
X16486848Y-13689984D02*
X16467801Y-13680460D01*
X16467801Y-13680460D02*
X16458277Y-13670936D01*
X16458277Y-13670936D02*
X16448753Y-13651888D01*
X16448753Y-13651888D02*
X16439229Y-13613793D01*
X16439229Y-13613793D02*
X16439229Y-13566174D01*
X16439229Y-13566174D02*
X16448753Y-13528079D01*
X16448753Y-13528079D02*
X16458277Y-13509031D01*
X16458277Y-13509031D02*
X16467801Y-13499508D01*
X16467801Y-13499508D02*
X16486848Y-13489984D01*
X16620182Y-13489984D02*
X16743991Y-13489984D01*
X16743991Y-13489984D02*
X16677325Y-13566174D01*
X16677325Y-13566174D02*
X16705896Y-13566174D01*
X16705896Y-13566174D02*
X16724944Y-13575698D01*
X16724944Y-13575698D02*
X16734467Y-13585222D01*
X16734467Y-13585222D02*
X16743991Y-13604269D01*
X16743991Y-13604269D02*
X16743991Y-13651888D01*
X16743991Y-13651888D02*
X16734467Y-13670936D01*
X16734467Y-13670936D02*
X16724944Y-13680460D01*
X16724944Y-13680460D02*
X16705896Y-13689984D01*
X16705896Y-13689984D02*
X16648753Y-13689984D01*
X16648753Y-13689984D02*
X16629706Y-13680460D01*
X16629706Y-13680460D02*
X16620182Y-13670936D01*
X16839229Y-13689984D02*
X16877325Y-13689984D01*
X16877325Y-13689984D02*
X16896372Y-13680460D01*
X16896372Y-13680460D02*
X16905896Y-13670936D01*
X16905896Y-13670936D02*
X16924944Y-13642365D01*
X16924944Y-13642365D02*
X16934468Y-13604269D01*
X16934468Y-13604269D02*
X16934468Y-13528079D01*
X16934468Y-13528079D02*
X16924944Y-13509031D01*
X16924944Y-13509031D02*
X16915420Y-13499508D01*
X16915420Y-13499508D02*
X16896372Y-13489984D01*
X16896372Y-13489984D02*
X16858277Y-13489984D01*
X16858277Y-13489984D02*
X16839229Y-13499508D01*
X16839229Y-13499508D02*
X16829706Y-13509031D01*
X16829706Y-13509031D02*
X16820182Y-13528079D01*
X16820182Y-13528079D02*
X16820182Y-13575698D01*
X16820182Y-13575698D02*
X16829706Y-13594746D01*
X16829706Y-13594746D02*
X16839229Y-13604269D01*
X16839229Y-13604269D02*
X16858277Y-13613793D01*
X16858277Y-13613793D02*
X16896372Y-13613793D01*
X16896372Y-13613793D02*
X16915420Y-13604269D01*
X16915420Y-13604269D02*
X16924944Y-13594746D01*
X16924944Y-13594746D02*
X16934468Y-13575698D01*
X17105896Y-13556650D02*
X17105896Y-13689984D01*
X17058277Y-13480460D02*
X17010658Y-13623317D01*
X17010658Y-13623317D02*
X17134468Y-13623317D01*
X17201134Y-13489984D02*
X17201134Y-13528079D01*
X17277325Y-13489984D02*
X17277325Y-13528079D01*
X17572563Y-13766174D02*
X17563039Y-13756650D01*
X17563039Y-13756650D02*
X17543991Y-13728079D01*
X17543991Y-13728079D02*
X17534468Y-13709031D01*
X17534468Y-13709031D02*
X17524944Y-13680460D01*
X17524944Y-13680460D02*
X17515420Y-13632841D01*
X17515420Y-13632841D02*
X17515420Y-13594746D01*
X17515420Y-13594746D02*
X17524944Y-13547127D01*
X17524944Y-13547127D02*
X17534468Y-13518555D01*
X17534468Y-13518555D02*
X17543991Y-13499508D01*
X17543991Y-13499508D02*
X17563039Y-13470936D01*
X17563039Y-13470936D02*
X17572563Y-13461412D01*
X17753515Y-13689984D02*
X17639230Y-13689984D01*
X17696372Y-13689984D02*
X17696372Y-13489984D01*
X17696372Y-13489984D02*
X17677325Y-13518555D01*
X17677325Y-13518555D02*
X17658277Y-13537603D01*
X17658277Y-13537603D02*
X17639230Y-13547127D01*
X17829706Y-13509031D02*
X17839230Y-13499508D01*
X17839230Y-13499508D02*
X17858277Y-13489984D01*
X17858277Y-13489984D02*
X17905896Y-13489984D01*
X17905896Y-13489984D02*
X17924944Y-13499508D01*
X17924944Y-13499508D02*
X17934468Y-13509031D01*
X17934468Y-13509031D02*
X17943991Y-13528079D01*
X17943991Y-13528079D02*
X17943991Y-13547127D01*
X17943991Y-13547127D02*
X17934468Y-13575698D01*
X17934468Y-13575698D02*
X17820182Y-13689984D01*
X17820182Y-13689984D02*
X17943991Y-13689984D01*
X18182087Y-13689984D02*
X18182087Y-13489984D01*
X18267801Y-13689984D02*
X18267801Y-13585222D01*
X18267801Y-13585222D02*
X18258277Y-13566174D01*
X18258277Y-13566174D02*
X18239230Y-13556650D01*
X18239230Y-13556650D02*
X18210658Y-13556650D01*
X18210658Y-13556650D02*
X18191611Y-13566174D01*
X18191611Y-13566174D02*
X18182087Y-13575698D01*
X18391611Y-13689984D02*
X18372563Y-13680460D01*
X18372563Y-13680460D02*
X18363039Y-13670936D01*
X18363039Y-13670936D02*
X18353515Y-13651888D01*
X18353515Y-13651888D02*
X18353515Y-13594746D01*
X18353515Y-13594746D02*
X18363039Y-13575698D01*
X18363039Y-13575698D02*
X18372563Y-13566174D01*
X18372563Y-13566174D02*
X18391611Y-13556650D01*
X18391611Y-13556650D02*
X18420182Y-13556650D01*
X18420182Y-13556650D02*
X18439230Y-13566174D01*
X18439230Y-13566174D02*
X18448753Y-13575698D01*
X18448753Y-13575698D02*
X18458277Y-13594746D01*
X18458277Y-13594746D02*
X18458277Y-13651888D01*
X18458277Y-13651888D02*
X18448753Y-13670936D01*
X18448753Y-13670936D02*
X18439230Y-13680460D01*
X18439230Y-13680460D02*
X18420182Y-13689984D01*
X18420182Y-13689984D02*
X18391611Y-13689984D01*
X18572563Y-13689984D02*
X18553515Y-13680460D01*
X18553515Y-13680460D02*
X18543992Y-13661412D01*
X18543992Y-13661412D02*
X18543992Y-13489984D01*
X18724944Y-13680460D02*
X18705896Y-13689984D01*
X18705896Y-13689984D02*
X18667801Y-13689984D01*
X18667801Y-13689984D02*
X18648753Y-13680460D01*
X18648753Y-13680460D02*
X18639230Y-13661412D01*
X18639230Y-13661412D02*
X18639230Y-13585222D01*
X18639230Y-13585222D02*
X18648753Y-13566174D01*
X18648753Y-13566174D02*
X18667801Y-13556650D01*
X18667801Y-13556650D02*
X18705896Y-13556650D01*
X18705896Y-13556650D02*
X18724944Y-13566174D01*
X18724944Y-13566174D02*
X18734468Y-13585222D01*
X18734468Y-13585222D02*
X18734468Y-13604269D01*
X18734468Y-13604269D02*
X18639230Y-13623317D01*
X18810658Y-13680460D02*
X18829706Y-13689984D01*
X18829706Y-13689984D02*
X18867801Y-13689984D01*
X18867801Y-13689984D02*
X18886849Y-13680460D01*
X18886849Y-13680460D02*
X18896373Y-13661412D01*
X18896373Y-13661412D02*
X18896373Y-13651888D01*
X18896373Y-13651888D02*
X18886849Y-13632841D01*
X18886849Y-13632841D02*
X18867801Y-13623317D01*
X18867801Y-13623317D02*
X18839230Y-13623317D01*
X18839230Y-13623317D02*
X18820182Y-13613793D01*
X18820182Y-13613793D02*
X18810658Y-13594746D01*
X18810658Y-13594746D02*
X18810658Y-13585222D01*
X18810658Y-13585222D02*
X18820182Y-13566174D01*
X18820182Y-13566174D02*
X18839230Y-13556650D01*
X18839230Y-13556650D02*
X18867801Y-13556650D01*
X18867801Y-13556650D02*
X18886849Y-13566174D01*
X18963039Y-13766174D02*
X18972563Y-13756650D01*
X18972563Y-13756650D02*
X18991611Y-13728079D01*
X18991611Y-13728079D02*
X19001134Y-13709031D01*
X19001134Y-13709031D02*
X19010658Y-13680460D01*
X19010658Y-13680460D02*
X19020182Y-13632841D01*
X19020182Y-13632841D02*
X19020182Y-13594746D01*
X19020182Y-13594746D02*
X19010658Y-13547127D01*
X19010658Y-13547127D02*
X19001134Y-13518555D01*
X19001134Y-13518555D02*
X18991611Y-13499508D01*
X18991611Y-13499508D02*
X18972563Y-13470936D01*
X18972563Y-13470936D02*
X18963039Y-13461412D01*
M02*
