G04 #@! TF.GenerationSoftware,KiCad,Pcbnew,8.0.3*
G04 #@! TF.CreationDate,2024-06-18T14:47:18-04:00*
G04 #@! TF.ProjectId,SoarerMax,536f6172-6572-44d6-9178-2e6b69636164,rev?*
G04 #@! TF.SameCoordinates,Original*
G04 #@! TF.FileFunction,Copper,L1,Top*
G04 #@! TF.FilePolarity,Positive*
%FSLAX46Y46*%
G04 Gerber Fmt 4.6, Leading zero omitted, Abs format (unit mm)*
G04 Created by KiCad (PCBNEW 8.0.3) date 2024-06-18 14:47:18*
%MOMM*%
%LPD*%
G01*
G04 APERTURE LIST*
G04 Aperture macros list*
%AMRoundRect*
0 Rectangle with rounded corners*
0 $1 Rounding radius*
0 $2 $3 $4 $5 $6 $7 $8 $9 X,Y pos of 4 corners*
0 Add a 4 corners polygon primitive as box body*
4,1,4,$2,$3,$4,$5,$6,$7,$8,$9,$2,$3,0*
0 Add four circle primitives for the rounded corners*
1,1,$1+$1,$2,$3*
1,1,$1+$1,$4,$5*
1,1,$1+$1,$6,$7*
1,1,$1+$1,$8,$9*
0 Add four rect primitives between the rounded corners*
20,1,$1+$1,$2,$3,$4,$5,0*
20,1,$1+$1,$4,$5,$6,$7,0*
20,1,$1+$1,$6,$7,$8,$9,0*
20,1,$1+$1,$8,$9,$2,$3,0*%
G04 Aperture macros list end*
G04 #@! TA.AperFunction,SMDPad,CuDef*
%ADD10RoundRect,0.237500X0.250000X0.237500X-0.250000X0.237500X-0.250000X-0.237500X0.250000X-0.237500X0*%
G04 #@! TD*
G04 #@! TA.AperFunction,ComponentPad*
%ADD11C,0.700000*%
G04 #@! TD*
G04 #@! TA.AperFunction,ComponentPad*
%ADD12O,0.900000X2.400000*%
G04 #@! TD*
G04 #@! TA.AperFunction,ComponentPad*
%ADD13O,0.900000X1.700000*%
G04 #@! TD*
G04 #@! TA.AperFunction,SMDPad,CuDef*
%ADD14RoundRect,0.237500X0.300000X0.237500X-0.300000X0.237500X-0.300000X-0.237500X0.300000X-0.237500X0*%
G04 #@! TD*
G04 #@! TA.AperFunction,SMDPad,CuDef*
%ADD15R,0.400000X1.900000*%
G04 #@! TD*
G04 #@! TA.AperFunction,SMDPad,CuDef*
%ADD16RoundRect,0.237500X-0.237500X0.300000X-0.237500X-0.300000X0.237500X-0.300000X0.237500X0.300000X0*%
G04 #@! TD*
G04 #@! TA.AperFunction,SMDPad,CuDef*
%ADD17RoundRect,0.237500X0.237500X-0.300000X0.237500X0.300000X-0.237500X0.300000X-0.237500X-0.300000X0*%
G04 #@! TD*
G04 #@! TA.AperFunction,ComponentPad*
%ADD18R,1.700000X1.700000*%
G04 #@! TD*
G04 #@! TA.AperFunction,ComponentPad*
%ADD19O,1.700000X1.700000*%
G04 #@! TD*
G04 #@! TA.AperFunction,SMDPad,CuDef*
%ADD20R,1.500000X0.550000*%
G04 #@! TD*
G04 #@! TA.AperFunction,SMDPad,CuDef*
%ADD21R,0.550000X1.500000*%
G04 #@! TD*
G04 #@! TA.AperFunction,SMDPad,CuDef*
%ADD22RoundRect,0.237500X-0.250000X-0.237500X0.250000X-0.237500X0.250000X0.237500X-0.250000X0.237500X0*%
G04 #@! TD*
G04 #@! TA.AperFunction,ViaPad*
%ADD23C,0.600000*%
G04 #@! TD*
G04 #@! TA.AperFunction,ViaPad*
%ADD24C,0.500000*%
G04 #@! TD*
G04 #@! TA.AperFunction,Conductor*
%ADD25C,0.400000*%
G04 #@! TD*
G04 #@! TA.AperFunction,Conductor*
%ADD26C,0.200000*%
G04 #@! TD*
G04 APERTURE END LIST*
D10*
X147912500Y-89000000D03*
X146087500Y-89000000D03*
X142912500Y-83500000D03*
X141087500Y-83500000D03*
D11*
X151975000Y-87025000D03*
X151125000Y-87025000D03*
X150275000Y-87025000D03*
X149425000Y-87025000D03*
X148575000Y-87025000D03*
X147725000Y-87025000D03*
X146875000Y-87025000D03*
X146025000Y-87025000D03*
X146025000Y-85675000D03*
X146875000Y-85675000D03*
X147725000Y-85675000D03*
X148575000Y-85675000D03*
X149425000Y-85675000D03*
X150275000Y-85675000D03*
X151125000Y-85675000D03*
X151975000Y-85675000D03*
D12*
X153325000Y-86045000D03*
D13*
X153325000Y-82665000D03*
D12*
X144675000Y-86045000D03*
D13*
X144675000Y-82665000D03*
D14*
X156862500Y-89500000D03*
X155137500Y-89500000D03*
D15*
X149500000Y-110000000D03*
X148300000Y-110000000D03*
X147100000Y-110000000D03*
D16*
X142750000Y-87137500D03*
X142750000Y-88862500D03*
D17*
X145500000Y-110862500D03*
X145500000Y-109137500D03*
X143890000Y-110862500D03*
X143890000Y-109137500D03*
D18*
X143500000Y-116500000D03*
D19*
X143500000Y-113960000D03*
X146040000Y-116500000D03*
X146040000Y-113960000D03*
X148580000Y-116500000D03*
X148580000Y-113960000D03*
D20*
X141400000Y-92950000D03*
X141400000Y-93750000D03*
X141400000Y-94550000D03*
X141400000Y-95350000D03*
X141400000Y-96150000D03*
X141400000Y-96950000D03*
X141400000Y-97750000D03*
X141400000Y-98550000D03*
X141400000Y-99350000D03*
X141400000Y-100150000D03*
X141400000Y-100950000D03*
X141400000Y-101750000D03*
X141400000Y-102550000D03*
X141400000Y-103350000D03*
X141400000Y-104150000D03*
X141400000Y-104950000D03*
D21*
X143100000Y-106650000D03*
X143900000Y-106650000D03*
X144700000Y-106650000D03*
X145500000Y-106650000D03*
X146300000Y-106650000D03*
X147100000Y-106650000D03*
X147900000Y-106650000D03*
X148700000Y-106650000D03*
X149500000Y-106650000D03*
X150300000Y-106650000D03*
X151100000Y-106650000D03*
X151900000Y-106650000D03*
X152700000Y-106650000D03*
X153500000Y-106650000D03*
X154300000Y-106650000D03*
X155100000Y-106650000D03*
D20*
X156800000Y-104950000D03*
X156800000Y-104150000D03*
X156800000Y-103350000D03*
X156800000Y-102550000D03*
X156800000Y-101750000D03*
X156800000Y-100950000D03*
X156800000Y-100150000D03*
X156800000Y-99350000D03*
X156800000Y-98550000D03*
X156800000Y-97750000D03*
X156800000Y-96950000D03*
X156800000Y-96150000D03*
X156800000Y-95350000D03*
X156800000Y-94550000D03*
X156800000Y-93750000D03*
X156800000Y-92950000D03*
D21*
X155100000Y-91250000D03*
X154300000Y-91250000D03*
X153500000Y-91250000D03*
X152700000Y-91250000D03*
X151900000Y-91250000D03*
X151100000Y-91250000D03*
X150300000Y-91250000D03*
X149500000Y-91250000D03*
X148700000Y-91250000D03*
X147900000Y-91250000D03*
X147100000Y-91250000D03*
X146300000Y-91250000D03*
X145500000Y-91250000D03*
X144700000Y-91250000D03*
X143900000Y-91250000D03*
X143100000Y-91250000D03*
D17*
X142500000Y-110862500D03*
X142500000Y-109137500D03*
D22*
X155087500Y-88000000D03*
X156912500Y-88000000D03*
D16*
X141250000Y-87137500D03*
X141250000Y-88862500D03*
D10*
X151912500Y-89000000D03*
X150087500Y-89000000D03*
D18*
X152760000Y-111420000D03*
D19*
X155300000Y-111420000D03*
X152760000Y-113960000D03*
X155300000Y-113960000D03*
X152760000Y-116500000D03*
X155300000Y-116500000D03*
D23*
X152600000Y-92900000D03*
D24*
X153700000Y-89500000D03*
X143100000Y-90100000D03*
X142900000Y-98900000D03*
X146300000Y-108000000D03*
X150800000Y-84300000D03*
X146900000Y-84700000D03*
X144400000Y-89800000D03*
X141200000Y-86000000D03*
X156900000Y-86900000D03*
X142700000Y-86000000D03*
X147000000Y-104200000D03*
X142400000Y-111900000D03*
X144500000Y-88500000D03*
X143800000Y-111900000D03*
X145300000Y-111900000D03*
X141100000Y-84700000D03*
X148200000Y-108400000D03*
X157200000Y-90600000D03*
X144800000Y-96900000D03*
X152400000Y-84300000D03*
X151000000Y-89900000D03*
X142800000Y-96100000D03*
X142800000Y-95300000D03*
X147000000Y-89800000D03*
X142950000Y-97750000D03*
X141200000Y-90900000D03*
X149500000Y-93600000D03*
X156675000Y-108525000D03*
X143300000Y-101800000D03*
X149750000Y-108182820D03*
X150300000Y-94100000D03*
X143500000Y-102600000D03*
X152800000Y-108300000D03*
X154000000Y-108300000D03*
X148500000Y-102800000D03*
X143000000Y-100200000D03*
X151100000Y-94700000D03*
X145500000Y-105200000D03*
X151500000Y-108000000D03*
D25*
X151900000Y-92200000D02*
X152600000Y-92900000D01*
X151900000Y-91250000D02*
X151900000Y-92200000D01*
X151125000Y-85675000D02*
X151125000Y-87025000D01*
X142500000Y-109137500D02*
X145500000Y-109137500D01*
X145500000Y-109137500D02*
X146300000Y-108337500D01*
X146875000Y-84725000D02*
X146900000Y-84700000D01*
X146300000Y-108000000D02*
X146300000Y-106650000D01*
X141400000Y-94550000D02*
X142350000Y-94550000D01*
X141400000Y-98550000D02*
X142550000Y-98550000D01*
X152700000Y-90100000D02*
X153300000Y-89500000D01*
X143100000Y-93800000D02*
X143100000Y-91250000D01*
X146875000Y-85675000D02*
X146875000Y-84725000D01*
X151125000Y-84625000D02*
X151125000Y-85675000D01*
X142550000Y-98550000D02*
X142900000Y-98900000D01*
X143100000Y-89212500D02*
X142750000Y-88862500D01*
X143100000Y-90100000D02*
X143100000Y-89212500D01*
X152700000Y-91250000D02*
X152700000Y-90100000D01*
X142350000Y-94550000D02*
X143100000Y-93800000D01*
X155137500Y-89500000D02*
X153700000Y-89500000D01*
X153300000Y-89500000D02*
X153700000Y-89500000D01*
X150800000Y-84300000D02*
X151125000Y-84625000D01*
X146875000Y-85675000D02*
X146875000Y-87025000D01*
X146300000Y-108337500D02*
X146300000Y-108000000D01*
X143100000Y-90100000D02*
X143100000Y-91250000D01*
X148300000Y-110000000D02*
X148300000Y-108500000D01*
X143900000Y-90300000D02*
X144400000Y-89800000D01*
X141087500Y-84687500D02*
X141100000Y-84700000D01*
X146025000Y-87025000D02*
X144400000Y-88650000D01*
X145500000Y-110862500D02*
X145500000Y-111700000D01*
X156912500Y-88000000D02*
X156912500Y-86912500D01*
X141400000Y-96950000D02*
X144750000Y-96950000D01*
X144400000Y-88650000D02*
X144400000Y-89800000D01*
X152400000Y-84300000D02*
X151975000Y-84725000D01*
X142750000Y-87137500D02*
X142750000Y-86050000D01*
X156862500Y-89500000D02*
X156862500Y-90262500D01*
X143890000Y-110862500D02*
X143890000Y-111810000D01*
X142750000Y-86050000D02*
X142700000Y-86000000D01*
X142500000Y-111800000D02*
X142400000Y-111900000D01*
X147100000Y-104300000D02*
X147000000Y-104200000D01*
X151975000Y-85675000D02*
X151975000Y-87025000D01*
X141250000Y-87137500D02*
X141250000Y-86050000D01*
X156912500Y-86912500D02*
X156900000Y-86900000D01*
X143890000Y-111810000D02*
X143800000Y-111900000D01*
X141250000Y-86050000D02*
X141200000Y-86000000D01*
X145500000Y-111700000D02*
X145300000Y-111900000D01*
X147100000Y-106650000D02*
X147100000Y-104300000D01*
X144750000Y-96950000D02*
X144800000Y-96900000D01*
X142500000Y-110862500D02*
X142500000Y-111800000D01*
X156862500Y-90262500D02*
X157200000Y-90600000D01*
X141087500Y-83500000D02*
X141087500Y-84687500D01*
X146025000Y-85675000D02*
X146025000Y-87025000D01*
X151975000Y-84725000D02*
X151975000Y-85675000D01*
X148300000Y-108500000D02*
X148200000Y-108400000D01*
X143900000Y-91250000D02*
X143900000Y-90300000D01*
D26*
X151000000Y-89900000D02*
X151012500Y-89900000D01*
X141400000Y-96150000D02*
X142750000Y-96150000D01*
X151012500Y-89900000D02*
X151912500Y-89000000D01*
X142750000Y-96150000D02*
X142800000Y-96100000D01*
X150087500Y-88175000D02*
X150087500Y-89000000D01*
X149425000Y-86594239D02*
X149425000Y-87025000D01*
X148575000Y-85744239D02*
X149425000Y-86594239D01*
X148575000Y-85675000D02*
X148575000Y-85744239D01*
X149425000Y-87025000D02*
X149425000Y-87512500D01*
X149425000Y-87512500D02*
X150087500Y-88175000D01*
X147912500Y-88175000D02*
X147912500Y-89000000D01*
X148575000Y-87512500D02*
X147912500Y-88175000D01*
X148575000Y-87025000D02*
X148575000Y-87512500D01*
X146087500Y-89000000D02*
X146200000Y-89000000D01*
X141450000Y-95300000D02*
X141400000Y-95350000D01*
X142800000Y-95300000D02*
X141450000Y-95300000D01*
X146200000Y-89000000D02*
X147000000Y-89800000D01*
D25*
X141250000Y-88862500D02*
X141250000Y-90850000D01*
X141250000Y-90850000D02*
X141200000Y-90900000D01*
X142950000Y-97750000D02*
X141400000Y-97750000D01*
D26*
X149500000Y-93600000D02*
X149500000Y-91250000D01*
X155540000Y-113960000D02*
X155300000Y-113960000D01*
X156700000Y-112800000D02*
X155540000Y-113960000D01*
X141450000Y-101800000D02*
X141400000Y-101750000D01*
X156675000Y-108525000D02*
X156700000Y-108550000D01*
X143300000Y-101800000D02*
X141450000Y-101800000D01*
X156700000Y-108550000D02*
X156700000Y-112800000D01*
X147100000Y-108400000D02*
X147100000Y-110000000D01*
X147900000Y-106650000D02*
X147900000Y-107600000D01*
X147900000Y-107600000D02*
X147100000Y-108400000D01*
X149500000Y-107932820D02*
X149500000Y-106650000D01*
X149750000Y-108182820D02*
X149500000Y-107932820D01*
X150300000Y-94100000D02*
X150300000Y-91250000D01*
X150700000Y-111840000D02*
X150700000Y-108200000D01*
X150700000Y-108200000D02*
X150300000Y-107800000D01*
X148580000Y-113960000D02*
X150700000Y-111840000D01*
X150300000Y-107800000D02*
X150300000Y-106650000D01*
X152760000Y-111420000D02*
X152760000Y-108340000D01*
X143450000Y-102550000D02*
X141400000Y-102550000D01*
X152760000Y-108340000D02*
X152800000Y-108300000D01*
X143500000Y-102600000D02*
X143450000Y-102550000D01*
X152760000Y-113960000D02*
X154000000Y-112720000D01*
X154000000Y-112720000D02*
X154000000Y-108300000D01*
X146650000Y-100950000D02*
X148500000Y-102800000D01*
X141400000Y-100950000D02*
X146650000Y-100950000D01*
X141450000Y-100200000D02*
X141400000Y-100150000D01*
X143000000Y-100200000D02*
X141450000Y-100200000D01*
X148700000Y-108000000D02*
X149500000Y-108800000D01*
X148700000Y-106650000D02*
X148700000Y-108000000D01*
X149500000Y-108800000D02*
X149500000Y-110000000D01*
X151100000Y-94700000D02*
X151100000Y-91250000D01*
X151500000Y-108700000D02*
X151500000Y-108000000D01*
X152760000Y-116500000D02*
X151200000Y-114940000D01*
X151200000Y-114940000D02*
X151200000Y-109000000D01*
X151200000Y-109000000D02*
X151500000Y-108700000D01*
X145500000Y-105200000D02*
X145500000Y-106650000D01*
X142912500Y-83500000D02*
X143512500Y-84100000D01*
X147300000Y-84100000D02*
X147725000Y-84525000D01*
X147725000Y-84525000D02*
X147725000Y-85675000D01*
X143512500Y-84100000D02*
X147300000Y-84100000D01*
X150275000Y-87519974D02*
X150755026Y-88000000D01*
X152000000Y-88000000D02*
X154837500Y-88000000D01*
X152000000Y-88000000D02*
X152500000Y-88000000D01*
X150755026Y-88000000D02*
X152000000Y-88000000D01*
X154837500Y-88000000D02*
X155087500Y-87750000D01*
X150275000Y-87025000D02*
X150275000Y-87519974D01*
M02*
