G04 #@! TF.GenerationSoftware,KiCad,Pcbnew,8.0.3*
G04 #@! TF.CreationDate,2024-06-18T14:47:19-04:00*
G04 #@! TF.ProjectId,SoarerMax,536f6172-6572-44d6-9178-2e6b69636164,rev?*
G04 #@! TF.SameCoordinates,Original*
G04 #@! TF.FileFunction,Copper,L4,Inr*
G04 #@! TF.FilePolarity,Positive*
%FSLAX46Y46*%
G04 Gerber Fmt 4.6, Leading zero omitted, Abs format (unit mm)*
G04 Created by KiCad (PCBNEW 8.0.3) date 2024-06-18 14:47:19*
%MOMM*%
%LPD*%
G01*
G04 APERTURE LIST*
G04 #@! TA.AperFunction,ComponentPad*
%ADD10C,0.700000*%
G04 #@! TD*
G04 #@! TA.AperFunction,ComponentPad*
%ADD11O,0.900000X2.400000*%
G04 #@! TD*
G04 #@! TA.AperFunction,ComponentPad*
%ADD12O,0.900000X1.700000*%
G04 #@! TD*
G04 #@! TA.AperFunction,ComponentPad*
%ADD13R,1.700000X1.700000*%
G04 #@! TD*
G04 #@! TA.AperFunction,ComponentPad*
%ADD14O,1.700000X1.700000*%
G04 #@! TD*
G04 #@! TA.AperFunction,ViaPad*
%ADD15C,0.600000*%
G04 #@! TD*
G04 #@! TA.AperFunction,ViaPad*
%ADD16C,0.500000*%
G04 #@! TD*
G04 APERTURE END LIST*
D10*
X151975000Y-87025000D03*
X151125000Y-87025000D03*
X150275000Y-87025000D03*
X149425000Y-87025000D03*
X148575000Y-87025000D03*
X147725000Y-87025000D03*
X146875000Y-87025000D03*
X146025000Y-87025000D03*
X146025000Y-85675000D03*
X146875000Y-85675000D03*
X147725000Y-85675000D03*
X148575000Y-85675000D03*
X149425000Y-85675000D03*
X150275000Y-85675000D03*
X151125000Y-85675000D03*
X151975000Y-85675000D03*
D11*
X153325000Y-86045000D03*
D12*
X153325000Y-82665000D03*
D11*
X144675000Y-86045000D03*
D12*
X144675000Y-82665000D03*
D13*
X143500000Y-116500000D03*
D14*
X143500000Y-113960000D03*
X146040000Y-116500000D03*
X146040000Y-113960000D03*
X148580000Y-116500000D03*
X148580000Y-113960000D03*
D13*
X152760000Y-111420000D03*
D14*
X155300000Y-111420000D03*
X152760000Y-113960000D03*
X155300000Y-113960000D03*
X152760000Y-116500000D03*
X155300000Y-116500000D03*
D15*
X152600000Y-92900000D03*
D16*
X153700000Y-89500000D03*
X143100000Y-90100000D03*
X142900000Y-98900000D03*
X146300000Y-108000000D03*
X150800000Y-84300000D03*
X146900000Y-84700000D03*
X144400000Y-89800000D03*
X141200000Y-86000000D03*
X156900000Y-86900000D03*
X142700000Y-86000000D03*
X147000000Y-104200000D03*
X142400000Y-111900000D03*
X144500000Y-88500000D03*
X143800000Y-111900000D03*
X145300000Y-111900000D03*
X141100000Y-84700000D03*
X148200000Y-108400000D03*
X157200000Y-90600000D03*
X144800000Y-96900000D03*
X152400000Y-84300000D03*
X151000000Y-89900000D03*
X142800000Y-96100000D03*
X142800000Y-95300000D03*
X147000000Y-89800000D03*
X142950000Y-97750000D03*
X141200000Y-90900000D03*
X149500000Y-93600000D03*
X156675000Y-108525000D03*
X143300000Y-101800000D03*
X149750000Y-108182820D03*
X150300000Y-94100000D03*
X143500000Y-102600000D03*
X152800000Y-108300000D03*
X154000000Y-108300000D03*
X148500000Y-102800000D03*
X143000000Y-100200000D03*
X151100000Y-94700000D03*
X145500000Y-105200000D03*
X151500000Y-108000000D03*
G04 #@! TA.AperFunction,Conductor*
G36*
X143877717Y-81520185D02*
G01*
X143923472Y-81572989D01*
X143933416Y-81642147D01*
X143913780Y-81693391D01*
X143832681Y-81814762D01*
X143832676Y-81814771D01*
X143761027Y-81987748D01*
X143761025Y-81987756D01*
X143724500Y-82171379D01*
X143724500Y-83158620D01*
X143761025Y-83342243D01*
X143761027Y-83342251D01*
X143832676Y-83515228D01*
X143832681Y-83515237D01*
X143936697Y-83670907D01*
X143936700Y-83670911D01*
X144069088Y-83803299D01*
X144069092Y-83803302D01*
X144224762Y-83907318D01*
X144224768Y-83907321D01*
X144224769Y-83907322D01*
X144397749Y-83978973D01*
X144581379Y-84015499D01*
X144581383Y-84015500D01*
X144581384Y-84015500D01*
X144768617Y-84015500D01*
X144768618Y-84015499D01*
X144952251Y-83978973D01*
X145125231Y-83907322D01*
X145280908Y-83803302D01*
X145413302Y-83670908D01*
X145517322Y-83515231D01*
X145588973Y-83342251D01*
X145625500Y-83158616D01*
X145625500Y-82171384D01*
X145588973Y-81987749D01*
X145517322Y-81814769D01*
X145517321Y-81814768D01*
X145517318Y-81814762D01*
X145436220Y-81693391D01*
X145415342Y-81626714D01*
X145433826Y-81559333D01*
X145485805Y-81512643D01*
X145539322Y-81500500D01*
X152460678Y-81500500D01*
X152527717Y-81520185D01*
X152573472Y-81572989D01*
X152583416Y-81642147D01*
X152563780Y-81693391D01*
X152482681Y-81814762D01*
X152482676Y-81814771D01*
X152411027Y-81987748D01*
X152411025Y-81987756D01*
X152374500Y-82171379D01*
X152374500Y-83158620D01*
X152411025Y-83342243D01*
X152411027Y-83342250D01*
X152427620Y-83382311D01*
X152435087Y-83451780D01*
X152403812Y-83514259D01*
X152343722Y-83549911D01*
X152326942Y-83552982D01*
X152231943Y-83563685D01*
X152072305Y-83619545D01*
X152072302Y-83619547D01*
X151929115Y-83709518D01*
X151929109Y-83709523D01*
X151809523Y-83829109D01*
X151809518Y-83829115D01*
X151719547Y-83972302D01*
X151719545Y-83972305D01*
X151663685Y-84131943D01*
X151644751Y-84299997D01*
X151644751Y-84300002D01*
X151663685Y-84468056D01*
X151719545Y-84627694D01*
X151719546Y-84627695D01*
X151756415Y-84686372D01*
X151775415Y-84753608D01*
X151755047Y-84820443D01*
X151701856Y-84865623D01*
X151599819Y-84911052D01*
X151530569Y-84920336D01*
X151498949Y-84911052D01*
X151389110Y-84862148D01*
X151214339Y-84825000D01*
X151035661Y-84825000D01*
X150860890Y-84862148D01*
X150860887Y-84862149D01*
X150751048Y-84911052D01*
X150681798Y-84920336D01*
X150650179Y-84911052D01*
X150539265Y-84861670D01*
X150411594Y-84834533D01*
X150364391Y-84824500D01*
X150185609Y-84824500D01*
X150148439Y-84832400D01*
X150010734Y-84861670D01*
X150010729Y-84861672D01*
X149900434Y-84910778D01*
X149831184Y-84920062D01*
X149799566Y-84910778D01*
X149689270Y-84861672D01*
X149689265Y-84861670D01*
X149561594Y-84834533D01*
X149514391Y-84824500D01*
X149335609Y-84824500D01*
X149298439Y-84832400D01*
X149160734Y-84861670D01*
X149160729Y-84861672D01*
X149050434Y-84910778D01*
X148981184Y-84920062D01*
X148949566Y-84910778D01*
X148839270Y-84861672D01*
X148839265Y-84861670D01*
X148711594Y-84834533D01*
X148664391Y-84824500D01*
X148485609Y-84824500D01*
X148448439Y-84832400D01*
X148310734Y-84861670D01*
X148310729Y-84861672D01*
X148200434Y-84910778D01*
X148131184Y-84920062D01*
X148099566Y-84910778D01*
X147989270Y-84861672D01*
X147989265Y-84861670D01*
X147861594Y-84834533D01*
X147814391Y-84824500D01*
X147635609Y-84824500D01*
X147598439Y-84832400D01*
X147460734Y-84861670D01*
X147460729Y-84861672D01*
X147349818Y-84911052D01*
X147280568Y-84920336D01*
X147248949Y-84911052D01*
X147139110Y-84862148D01*
X146964339Y-84825000D01*
X146785661Y-84825000D01*
X146610890Y-84862148D01*
X146610887Y-84862149D01*
X146501048Y-84911052D01*
X146431798Y-84920336D01*
X146400179Y-84911052D01*
X146289265Y-84861670D01*
X146161594Y-84834533D01*
X146114391Y-84824500D01*
X145935609Y-84824500D01*
X145904954Y-84831015D01*
X145760733Y-84861670D01*
X145760732Y-84861670D01*
X145676815Y-84899033D01*
X145607565Y-84908317D01*
X145544288Y-84878688D01*
X145521207Y-84849499D01*
X145520707Y-84849834D01*
X145413302Y-84689092D01*
X145413299Y-84689088D01*
X145280911Y-84556700D01*
X145280907Y-84556697D01*
X145125237Y-84452681D01*
X145125228Y-84452676D01*
X144952251Y-84381027D01*
X144952243Y-84381025D01*
X144768620Y-84344500D01*
X144768616Y-84344500D01*
X144581384Y-84344500D01*
X144581379Y-84344500D01*
X144397756Y-84381025D01*
X144397748Y-84381027D01*
X144224771Y-84452676D01*
X144224762Y-84452681D01*
X144069092Y-84556697D01*
X144069088Y-84556700D01*
X143936700Y-84689088D01*
X143936697Y-84689092D01*
X143832681Y-84844762D01*
X143832676Y-84844771D01*
X143761027Y-85017748D01*
X143761025Y-85017756D01*
X143724500Y-85201379D01*
X143724500Y-86888620D01*
X143761025Y-87072243D01*
X143761027Y-87072251D01*
X143832676Y-87245228D01*
X143832681Y-87245237D01*
X143936697Y-87400907D01*
X143936700Y-87400911D01*
X144069088Y-87533299D01*
X144069092Y-87533302D01*
X144180802Y-87607945D01*
X144225607Y-87661557D01*
X144234314Y-87730882D01*
X144204159Y-87793910D01*
X144177884Y-87816040D01*
X144029112Y-87909521D01*
X144029109Y-87909523D01*
X143909523Y-88029109D01*
X143909518Y-88029115D01*
X143819547Y-88172302D01*
X143819545Y-88172305D01*
X143763685Y-88331943D01*
X143744751Y-88499997D01*
X143744751Y-88500002D01*
X143763685Y-88668056D01*
X143819545Y-88827694D01*
X143819547Y-88827697D01*
X143909518Y-88970884D01*
X143909523Y-88970890D01*
X143953682Y-89015049D01*
X143987167Y-89076372D01*
X143982183Y-89146064D01*
X143940311Y-89201997D01*
X143931976Y-89207722D01*
X143929111Y-89209522D01*
X143929109Y-89209523D01*
X143809523Y-89329109D01*
X143809518Y-89329115D01*
X143719547Y-89472302D01*
X143719545Y-89472305D01*
X143663685Y-89631943D01*
X143644751Y-89799997D01*
X143644751Y-89800002D01*
X143663685Y-89968056D01*
X143719545Y-90127694D01*
X143719547Y-90127697D01*
X143809518Y-90270884D01*
X143809523Y-90270890D01*
X143929109Y-90390476D01*
X143929115Y-90390481D01*
X144072302Y-90480452D01*
X144072305Y-90480454D01*
X144072309Y-90480455D01*
X144072310Y-90480456D01*
X144100946Y-90490476D01*
X144231943Y-90536314D01*
X144399997Y-90555249D01*
X144400000Y-90555249D01*
X144400003Y-90555249D01*
X144568056Y-90536314D01*
X144568059Y-90536313D01*
X144727690Y-90480456D01*
X144727692Y-90480454D01*
X144727694Y-90480454D01*
X144727697Y-90480452D01*
X144870884Y-90390481D01*
X144870885Y-90390480D01*
X144870890Y-90390477D01*
X144990477Y-90270890D01*
X144990481Y-90270884D01*
X145080452Y-90127697D01*
X145080454Y-90127694D01*
X145080454Y-90127692D01*
X145080456Y-90127690D01*
X145136313Y-89968059D01*
X145136313Y-89968058D01*
X145136314Y-89968056D01*
X145155249Y-89800002D01*
X145155249Y-89799997D01*
X146244751Y-89799997D01*
X146244751Y-89800002D01*
X146263685Y-89968056D01*
X146319545Y-90127694D01*
X146319547Y-90127697D01*
X146409518Y-90270884D01*
X146409523Y-90270890D01*
X146529109Y-90390476D01*
X146529115Y-90390481D01*
X146672302Y-90480452D01*
X146672305Y-90480454D01*
X146672309Y-90480455D01*
X146672310Y-90480456D01*
X146700946Y-90490476D01*
X146831943Y-90536314D01*
X146999997Y-90555249D01*
X147000000Y-90555249D01*
X147000003Y-90555249D01*
X147168056Y-90536314D01*
X147168059Y-90536313D01*
X147327690Y-90480456D01*
X147327692Y-90480454D01*
X147327694Y-90480454D01*
X147327697Y-90480452D01*
X147470884Y-90390481D01*
X147470885Y-90390480D01*
X147470890Y-90390477D01*
X147590477Y-90270890D01*
X147590481Y-90270884D01*
X147680452Y-90127697D01*
X147680454Y-90127694D01*
X147680454Y-90127692D01*
X147680456Y-90127690D01*
X147736313Y-89968059D01*
X147736313Y-89968058D01*
X147736314Y-89968056D01*
X147743982Y-89899997D01*
X150244751Y-89899997D01*
X150244751Y-89900002D01*
X150263685Y-90068056D01*
X150319545Y-90227694D01*
X150319547Y-90227697D01*
X150409518Y-90370884D01*
X150409523Y-90370890D01*
X150529109Y-90490476D01*
X150529115Y-90490481D01*
X150672302Y-90580452D01*
X150672305Y-90580454D01*
X150672309Y-90580455D01*
X150672310Y-90580456D01*
X150728155Y-90599997D01*
X150831943Y-90636314D01*
X150999997Y-90655249D01*
X151000000Y-90655249D01*
X151000003Y-90655249D01*
X151168056Y-90636314D01*
X151195434Y-90626734D01*
X151327690Y-90580456D01*
X151327692Y-90580454D01*
X151327694Y-90580454D01*
X151327697Y-90580452D01*
X151470884Y-90490481D01*
X151470885Y-90490480D01*
X151470890Y-90490477D01*
X151590477Y-90370890D01*
X151590481Y-90370884D01*
X151680452Y-90227697D01*
X151680454Y-90227694D01*
X151680454Y-90227692D01*
X151680456Y-90227690D01*
X151736313Y-90068059D01*
X151736313Y-90068058D01*
X151736314Y-90068056D01*
X151755249Y-89900002D01*
X151755249Y-89899997D01*
X151736314Y-89731943D01*
X151680454Y-89572305D01*
X151680452Y-89572302D01*
X151590481Y-89429115D01*
X151590476Y-89429109D01*
X151470890Y-89309523D01*
X151470884Y-89309518D01*
X151327697Y-89219547D01*
X151327694Y-89219545D01*
X151168056Y-89163685D01*
X151000003Y-89144751D01*
X150999997Y-89144751D01*
X150831943Y-89163685D01*
X150672305Y-89219545D01*
X150672302Y-89219547D01*
X150529115Y-89309518D01*
X150529109Y-89309523D01*
X150409523Y-89429109D01*
X150409518Y-89429115D01*
X150319547Y-89572302D01*
X150319545Y-89572305D01*
X150263685Y-89731943D01*
X150244751Y-89899997D01*
X147743982Y-89899997D01*
X147755249Y-89800002D01*
X147755249Y-89799997D01*
X147736314Y-89631943D01*
X147680454Y-89472305D01*
X147680452Y-89472302D01*
X147590481Y-89329115D01*
X147590476Y-89329109D01*
X147470890Y-89209523D01*
X147470884Y-89209518D01*
X147327697Y-89119547D01*
X147327694Y-89119545D01*
X147168056Y-89063685D01*
X147000003Y-89044751D01*
X146999997Y-89044751D01*
X146831943Y-89063685D01*
X146672305Y-89119545D01*
X146672302Y-89119547D01*
X146529115Y-89209518D01*
X146529109Y-89209523D01*
X146409523Y-89329109D01*
X146409518Y-89329115D01*
X146319547Y-89472302D01*
X146319545Y-89472305D01*
X146263685Y-89631943D01*
X146244751Y-89799997D01*
X145155249Y-89799997D01*
X145136314Y-89631943D01*
X145080454Y-89472305D01*
X145080452Y-89472302D01*
X144990481Y-89329115D01*
X144990476Y-89329109D01*
X144946317Y-89284950D01*
X144912832Y-89223627D01*
X144917816Y-89153935D01*
X144959688Y-89098002D01*
X144968008Y-89092287D01*
X144970890Y-89090477D01*
X145090477Y-88970890D01*
X145180452Y-88827697D01*
X145180454Y-88827694D01*
X145180454Y-88827692D01*
X145180456Y-88827690D01*
X145236313Y-88668059D01*
X145236313Y-88668058D01*
X145236314Y-88668056D01*
X145255249Y-88500002D01*
X145255249Y-88499997D01*
X145236314Y-88331943D01*
X145180454Y-88172305D01*
X145180452Y-88172302D01*
X145090481Y-88029115D01*
X145090476Y-88029109D01*
X144970890Y-87909523D01*
X144965444Y-87905180D01*
X144966932Y-87903313D01*
X144928056Y-87859349D01*
X144917418Y-87790294D01*
X144945803Y-87726449D01*
X144992872Y-87692147D01*
X145081952Y-87655249D01*
X145125225Y-87637325D01*
X145125228Y-87637323D01*
X145125231Y-87637322D01*
X145227458Y-87569015D01*
X145294135Y-87548138D01*
X145361515Y-87566622D01*
X145388499Y-87589146D01*
X145448018Y-87655249D01*
X145452770Y-87660526D01*
X145597407Y-87765612D01*
X145760733Y-87838329D01*
X145935609Y-87875500D01*
X145935610Y-87875500D01*
X146114389Y-87875500D01*
X146114391Y-87875500D01*
X146289267Y-87838329D01*
X146400179Y-87788947D01*
X146469428Y-87779663D01*
X146501050Y-87788947D01*
X146610891Y-87837851D01*
X146785661Y-87875000D01*
X146964339Y-87875000D01*
X147139110Y-87837851D01*
X147139111Y-87837851D01*
X147248946Y-87788948D01*
X147318196Y-87779662D01*
X147349818Y-87788947D01*
X147410671Y-87816040D01*
X147460733Y-87838329D01*
X147635609Y-87875500D01*
X147635610Y-87875500D01*
X147814389Y-87875500D01*
X147814391Y-87875500D01*
X147989267Y-87838329D01*
X148099565Y-87789220D01*
X148168814Y-87779937D01*
X148200432Y-87789219D01*
X148310733Y-87838329D01*
X148485609Y-87875500D01*
X148485610Y-87875500D01*
X148664389Y-87875500D01*
X148664391Y-87875500D01*
X148839267Y-87838329D01*
X148949565Y-87789220D01*
X149018814Y-87779937D01*
X149050432Y-87789219D01*
X149160733Y-87838329D01*
X149335609Y-87875500D01*
X149335610Y-87875500D01*
X149514389Y-87875500D01*
X149514391Y-87875500D01*
X149689267Y-87838329D01*
X149799565Y-87789220D01*
X149868814Y-87779937D01*
X149900432Y-87789219D01*
X150010733Y-87838329D01*
X150185609Y-87875500D01*
X150185610Y-87875500D01*
X150364389Y-87875500D01*
X150364391Y-87875500D01*
X150539267Y-87838329D01*
X150650179Y-87788947D01*
X150719428Y-87779663D01*
X150751050Y-87788947D01*
X150860891Y-87837851D01*
X151035661Y-87875000D01*
X151214339Y-87875000D01*
X151389110Y-87837851D01*
X151389111Y-87837851D01*
X151498946Y-87788948D01*
X151568196Y-87779662D01*
X151599818Y-87788947D01*
X151660671Y-87816040D01*
X151710733Y-87838329D01*
X151885609Y-87875500D01*
X151885610Y-87875500D01*
X152064389Y-87875500D01*
X152064391Y-87875500D01*
X152239267Y-87838329D01*
X152402593Y-87765612D01*
X152547230Y-87660526D01*
X152611501Y-87589145D01*
X152670987Y-87552498D01*
X152740844Y-87553827D01*
X152772542Y-87569016D01*
X152874762Y-87637318D01*
X152874768Y-87637321D01*
X152874769Y-87637322D01*
X153047749Y-87708973D01*
X153231379Y-87745499D01*
X153231383Y-87745500D01*
X153231384Y-87745500D01*
X153418617Y-87745500D01*
X153418618Y-87745499D01*
X153602251Y-87708973D01*
X153775231Y-87637322D01*
X153930908Y-87533302D01*
X154063302Y-87400908D01*
X154167322Y-87245231D01*
X154238973Y-87072251D01*
X154275500Y-86888616D01*
X154275500Y-85201384D01*
X154238973Y-85017749D01*
X154174521Y-84862148D01*
X154167323Y-84844771D01*
X154167318Y-84844762D01*
X154063302Y-84689092D01*
X154063299Y-84689088D01*
X153930911Y-84556700D01*
X153930907Y-84556697D01*
X153775237Y-84452681D01*
X153775228Y-84452676D01*
X153602251Y-84381027D01*
X153602243Y-84381025D01*
X153418620Y-84344500D01*
X153418616Y-84344500D01*
X153271076Y-84344500D01*
X153204037Y-84324815D01*
X153158282Y-84272011D01*
X153147856Y-84234383D01*
X153138730Y-84153383D01*
X153150785Y-84084561D01*
X153198134Y-84033182D01*
X153261950Y-84015500D01*
X153418617Y-84015500D01*
X153418618Y-84015499D01*
X153602251Y-83978973D01*
X153775231Y-83907322D01*
X153930908Y-83803302D01*
X154063302Y-83670908D01*
X154167322Y-83515231D01*
X154238973Y-83342251D01*
X154275500Y-83158616D01*
X154275500Y-82171384D01*
X154238973Y-81987749D01*
X154167322Y-81814769D01*
X154167321Y-81814768D01*
X154167318Y-81814762D01*
X154086220Y-81693391D01*
X154065342Y-81626714D01*
X154083826Y-81559333D01*
X154135805Y-81512643D01*
X154189322Y-81500500D01*
X157375500Y-81500500D01*
X157442539Y-81520185D01*
X157488294Y-81572989D01*
X157499500Y-81624500D01*
X157499500Y-86165972D01*
X157479815Y-86233011D01*
X157427011Y-86278766D01*
X157357853Y-86288710D01*
X157309528Y-86270966D01*
X157227692Y-86219545D01*
X157227691Y-86219544D01*
X157227690Y-86219544D01*
X157189370Y-86206135D01*
X157068056Y-86163685D01*
X156900003Y-86144751D01*
X156899997Y-86144751D01*
X156731943Y-86163685D01*
X156572305Y-86219545D01*
X156572302Y-86219547D01*
X156429115Y-86309518D01*
X156429109Y-86309523D01*
X156309523Y-86429109D01*
X156309518Y-86429115D01*
X156219547Y-86572302D01*
X156219545Y-86572305D01*
X156163685Y-86731943D01*
X156144751Y-86899997D01*
X156144751Y-86900002D01*
X156163685Y-87068056D01*
X156219545Y-87227694D01*
X156219547Y-87227697D01*
X156309518Y-87370884D01*
X156309523Y-87370890D01*
X156429109Y-87490476D01*
X156429115Y-87490481D01*
X156572302Y-87580452D01*
X156572305Y-87580454D01*
X156572309Y-87580455D01*
X156572310Y-87580456D01*
X156597145Y-87589146D01*
X156731943Y-87636314D01*
X156899997Y-87655249D01*
X156900000Y-87655249D01*
X156900003Y-87655249D01*
X157068056Y-87636314D01*
X157074592Y-87634027D01*
X157227690Y-87580456D01*
X157309527Y-87529033D01*
X157376764Y-87510033D01*
X157443599Y-87530400D01*
X157488813Y-87583668D01*
X157499500Y-87634027D01*
X157499500Y-89739740D01*
X157479815Y-89806779D01*
X157427011Y-89852534D01*
X157361617Y-89862960D01*
X157200004Y-89844751D01*
X157199997Y-89844751D01*
X157031943Y-89863685D01*
X156872305Y-89919545D01*
X156872302Y-89919547D01*
X156729115Y-90009518D01*
X156729109Y-90009523D01*
X156609523Y-90129109D01*
X156609518Y-90129115D01*
X156519547Y-90272302D01*
X156519545Y-90272305D01*
X156463685Y-90431943D01*
X156444751Y-90599997D01*
X156444751Y-90600002D01*
X156463685Y-90768056D01*
X156519545Y-90927694D01*
X156519547Y-90927697D01*
X156609518Y-91070884D01*
X156609523Y-91070890D01*
X156729109Y-91190476D01*
X156729115Y-91190481D01*
X156872302Y-91280452D01*
X156872305Y-91280454D01*
X156872309Y-91280455D01*
X156872310Y-91280456D01*
X156900500Y-91290320D01*
X157031943Y-91336314D01*
X157199997Y-91355249D01*
X157200000Y-91355249D01*
X157200002Y-91355249D01*
X157361616Y-91337039D01*
X157430438Y-91349093D01*
X157481817Y-91396442D01*
X157499500Y-91460259D01*
X157499500Y-107996141D01*
X157479815Y-108063180D01*
X157427011Y-108108935D01*
X157357853Y-108118879D01*
X157294297Y-108089854D01*
X157270509Y-108062117D01*
X157265479Y-108054113D01*
X157265476Y-108054109D01*
X157145890Y-107934523D01*
X157145884Y-107934518D01*
X157002697Y-107844547D01*
X157002694Y-107844545D01*
X156843056Y-107788685D01*
X156675003Y-107769751D01*
X156674997Y-107769751D01*
X156506943Y-107788685D01*
X156347305Y-107844545D01*
X156347302Y-107844547D01*
X156204115Y-107934518D01*
X156204109Y-107934523D01*
X156084523Y-108054109D01*
X156084518Y-108054115D01*
X155994547Y-108197302D01*
X155994545Y-108197305D01*
X155938685Y-108356943D01*
X155919751Y-108524997D01*
X155919751Y-108525002D01*
X155938685Y-108693056D01*
X155994545Y-108852694D01*
X155994547Y-108852697D01*
X156084518Y-108995884D01*
X156084523Y-108995890D01*
X156204109Y-109115476D01*
X156204115Y-109115481D01*
X156347302Y-109205452D01*
X156347305Y-109205454D01*
X156347309Y-109205455D01*
X156347310Y-109205456D01*
X156419913Y-109230860D01*
X156506943Y-109261314D01*
X156674997Y-109280249D01*
X156675000Y-109280249D01*
X156675003Y-109280249D01*
X156843056Y-109261314D01*
X156843059Y-109261313D01*
X157002690Y-109205456D01*
X157002692Y-109205454D01*
X157002694Y-109205454D01*
X157002697Y-109205452D01*
X157145884Y-109115481D01*
X157145885Y-109115480D01*
X157145890Y-109115477D01*
X157265477Y-108995890D01*
X157270506Y-108987885D01*
X157322841Y-108941595D01*
X157391895Y-108930947D01*
X157455743Y-108959322D01*
X157494115Y-109017712D01*
X157499500Y-109053858D01*
X157499500Y-118375500D01*
X157479815Y-118442539D01*
X157427011Y-118488294D01*
X157375500Y-118499500D01*
X140624500Y-118499500D01*
X140557461Y-118479815D01*
X140511706Y-118427011D01*
X140500500Y-118375500D01*
X140500500Y-111899997D01*
X141644751Y-111899997D01*
X141644751Y-111900002D01*
X141663685Y-112068056D01*
X141719545Y-112227694D01*
X141719547Y-112227697D01*
X141809518Y-112370884D01*
X141809523Y-112370890D01*
X141929109Y-112490476D01*
X141929115Y-112490481D01*
X142072302Y-112580452D01*
X142072305Y-112580454D01*
X142072309Y-112580455D01*
X142072310Y-112580456D01*
X142094210Y-112588119D01*
X142231943Y-112636314D01*
X142399997Y-112655249D01*
X142400000Y-112655249D01*
X142400003Y-112655249D01*
X142526044Y-112641047D01*
X142568059Y-112636313D01*
X142655095Y-112605857D01*
X142724872Y-112602295D01*
X142785500Y-112637024D01*
X142817727Y-112699017D01*
X142811323Y-112768592D01*
X142768320Y-112823660D01*
X142767173Y-112824474D01*
X142628594Y-112921508D01*
X142461505Y-113088597D01*
X142325965Y-113282169D01*
X142325964Y-113282171D01*
X142226098Y-113496335D01*
X142226094Y-113496344D01*
X142164938Y-113724586D01*
X142164936Y-113724596D01*
X142144341Y-113959999D01*
X142144341Y-113960000D01*
X142164936Y-114195403D01*
X142164938Y-114195413D01*
X142226094Y-114423655D01*
X142226096Y-114423659D01*
X142226097Y-114423663D01*
X142230000Y-114432032D01*
X142325965Y-114637830D01*
X142325967Y-114637834D01*
X142434281Y-114792521D01*
X142461501Y-114831396D01*
X142461506Y-114831402D01*
X142583430Y-114953326D01*
X142616915Y-115014649D01*
X142611931Y-115084341D01*
X142570059Y-115140274D01*
X142539083Y-115157189D01*
X142407669Y-115206203D01*
X142407664Y-115206206D01*
X142292455Y-115292452D01*
X142292452Y-115292455D01*
X142206206Y-115407664D01*
X142206202Y-115407671D01*
X142155908Y-115542517D01*
X142149501Y-115602116D01*
X142149500Y-115602135D01*
X142149500Y-117397870D01*
X142149501Y-117397876D01*
X142155908Y-117457483D01*
X142206202Y-117592328D01*
X142206206Y-117592335D01*
X142292452Y-117707544D01*
X142292455Y-117707547D01*
X142407664Y-117793793D01*
X142407671Y-117793797D01*
X142542517Y-117844091D01*
X142542516Y-117844091D01*
X142549444Y-117844835D01*
X142602127Y-117850500D01*
X144397872Y-117850499D01*
X144457483Y-117844091D01*
X144592331Y-117793796D01*
X144707546Y-117707546D01*
X144793796Y-117592331D01*
X144842810Y-117460916D01*
X144884681Y-117404984D01*
X144950145Y-117380566D01*
X145018418Y-117395417D01*
X145046673Y-117416569D01*
X145168599Y-117538495D01*
X145265384Y-117606265D01*
X145362165Y-117674032D01*
X145362167Y-117674033D01*
X145362170Y-117674035D01*
X145576337Y-117773903D01*
X145804592Y-117835063D01*
X145981034Y-117850500D01*
X146039999Y-117855659D01*
X146040000Y-117855659D01*
X146040001Y-117855659D01*
X146098966Y-117850500D01*
X146275408Y-117835063D01*
X146503663Y-117773903D01*
X146717830Y-117674035D01*
X146911401Y-117538495D01*
X147078495Y-117371401D01*
X147208425Y-117185842D01*
X147263002Y-117142217D01*
X147332500Y-117135023D01*
X147394855Y-117166546D01*
X147411575Y-117185842D01*
X147541500Y-117371395D01*
X147541505Y-117371401D01*
X147708599Y-117538495D01*
X147805384Y-117606265D01*
X147902165Y-117674032D01*
X147902167Y-117674033D01*
X147902170Y-117674035D01*
X148116337Y-117773903D01*
X148344592Y-117835063D01*
X148521034Y-117850500D01*
X148579999Y-117855659D01*
X148580000Y-117855659D01*
X148580001Y-117855659D01*
X148638966Y-117850500D01*
X148815408Y-117835063D01*
X149043663Y-117773903D01*
X149257830Y-117674035D01*
X149451401Y-117538495D01*
X149618495Y-117371401D01*
X149754035Y-117177830D01*
X149853903Y-116963663D01*
X149915063Y-116735408D01*
X149935659Y-116500000D01*
X149915063Y-116264592D01*
X149853903Y-116036337D01*
X149754035Y-115822171D01*
X149748425Y-115814158D01*
X149618494Y-115628597D01*
X149451402Y-115461506D01*
X149451396Y-115461501D01*
X149265842Y-115331575D01*
X149222217Y-115276998D01*
X149215023Y-115207500D01*
X149246546Y-115145145D01*
X149265842Y-115128425D01*
X149378054Y-115049853D01*
X149451401Y-114998495D01*
X149618495Y-114831401D01*
X149754035Y-114637830D01*
X149853903Y-114423663D01*
X149915063Y-114195408D01*
X149935659Y-113960000D01*
X149935659Y-113959999D01*
X151404341Y-113959999D01*
X151404341Y-113960000D01*
X151424936Y-114195403D01*
X151424938Y-114195413D01*
X151486094Y-114423655D01*
X151486096Y-114423659D01*
X151486097Y-114423663D01*
X151490000Y-114432032D01*
X151585965Y-114637830D01*
X151585967Y-114637834D01*
X151694281Y-114792521D01*
X151721501Y-114831396D01*
X151721506Y-114831402D01*
X151888597Y-114998493D01*
X151888603Y-114998498D01*
X152074158Y-115128425D01*
X152117783Y-115183002D01*
X152124977Y-115252500D01*
X152093454Y-115314855D01*
X152074158Y-115331575D01*
X151888597Y-115461505D01*
X151721505Y-115628597D01*
X151585965Y-115822169D01*
X151585964Y-115822171D01*
X151486098Y-116036335D01*
X151486094Y-116036344D01*
X151424938Y-116264586D01*
X151424936Y-116264596D01*
X151404341Y-116499999D01*
X151404341Y-116500000D01*
X151424936Y-116735403D01*
X151424938Y-116735413D01*
X151486094Y-116963655D01*
X151486096Y-116963659D01*
X151486097Y-116963663D01*
X151490000Y-116972032D01*
X151585965Y-117177830D01*
X151585967Y-117177834D01*
X151694281Y-117332521D01*
X151721505Y-117371401D01*
X151888599Y-117538495D01*
X151985384Y-117606265D01*
X152082165Y-117674032D01*
X152082167Y-117674033D01*
X152082170Y-117674035D01*
X152296337Y-117773903D01*
X152524592Y-117835063D01*
X152701034Y-117850500D01*
X152759999Y-117855659D01*
X152760000Y-117855659D01*
X152760001Y-117855659D01*
X152818966Y-117850500D01*
X152995408Y-117835063D01*
X153223663Y-117773903D01*
X153437830Y-117674035D01*
X153631401Y-117538495D01*
X153798495Y-117371401D01*
X153928425Y-117185842D01*
X153983002Y-117142217D01*
X154052500Y-117135023D01*
X154114855Y-117166546D01*
X154131575Y-117185842D01*
X154261500Y-117371395D01*
X154261505Y-117371401D01*
X154428599Y-117538495D01*
X154525384Y-117606265D01*
X154622165Y-117674032D01*
X154622167Y-117674033D01*
X154622170Y-117674035D01*
X154836337Y-117773903D01*
X155064592Y-117835063D01*
X155241034Y-117850500D01*
X155299999Y-117855659D01*
X155300000Y-117855659D01*
X155300001Y-117855659D01*
X155358966Y-117850500D01*
X155535408Y-117835063D01*
X155763663Y-117773903D01*
X155977830Y-117674035D01*
X156171401Y-117538495D01*
X156338495Y-117371401D01*
X156474035Y-117177830D01*
X156573903Y-116963663D01*
X156635063Y-116735408D01*
X156655659Y-116500000D01*
X156635063Y-116264592D01*
X156573903Y-116036337D01*
X156474035Y-115822171D01*
X156468425Y-115814158D01*
X156338494Y-115628597D01*
X156171402Y-115461506D01*
X156171396Y-115461501D01*
X155985842Y-115331575D01*
X155942217Y-115276998D01*
X155935023Y-115207500D01*
X155966546Y-115145145D01*
X155985842Y-115128425D01*
X156098054Y-115049853D01*
X156171401Y-114998495D01*
X156338495Y-114831401D01*
X156474035Y-114637830D01*
X156573903Y-114423663D01*
X156635063Y-114195408D01*
X156655659Y-113960000D01*
X156635063Y-113724592D01*
X156573903Y-113496337D01*
X156474035Y-113282171D01*
X156468425Y-113274158D01*
X156338494Y-113088597D01*
X156171402Y-112921506D01*
X156171401Y-112921505D01*
X155985405Y-112791269D01*
X155941781Y-112736692D01*
X155934588Y-112667193D01*
X155966110Y-112604839D01*
X155985405Y-112588119D01*
X156171082Y-112458105D01*
X156338105Y-112291082D01*
X156473600Y-112097578D01*
X156573429Y-111883492D01*
X156573432Y-111883486D01*
X156630636Y-111670000D01*
X155733012Y-111670000D01*
X155765925Y-111612993D01*
X155800000Y-111485826D01*
X155800000Y-111354174D01*
X155765925Y-111227007D01*
X155733012Y-111170000D01*
X156630636Y-111170000D01*
X156630635Y-111169999D01*
X156573432Y-110956513D01*
X156573429Y-110956507D01*
X156473600Y-110742422D01*
X156473599Y-110742420D01*
X156338113Y-110548926D01*
X156338108Y-110548920D01*
X156171082Y-110381894D01*
X155977578Y-110246399D01*
X155763492Y-110146570D01*
X155763486Y-110146567D01*
X155550000Y-110089364D01*
X155550000Y-110986988D01*
X155492993Y-110954075D01*
X155365826Y-110920000D01*
X155234174Y-110920000D01*
X155107007Y-110954075D01*
X155050000Y-110986988D01*
X155050000Y-110089364D01*
X155049999Y-110089364D01*
X154836513Y-110146567D01*
X154836507Y-110146570D01*
X154622422Y-110246399D01*
X154622420Y-110246400D01*
X154428926Y-110381886D01*
X154306865Y-110503947D01*
X154245542Y-110537431D01*
X154175850Y-110532447D01*
X154119917Y-110490575D01*
X154103002Y-110459598D01*
X154053797Y-110327671D01*
X154053793Y-110327664D01*
X153967547Y-110212455D01*
X153967544Y-110212452D01*
X153852335Y-110126206D01*
X153852328Y-110126202D01*
X153717482Y-110075908D01*
X153717483Y-110075908D01*
X153657883Y-110069501D01*
X153657881Y-110069500D01*
X153657873Y-110069500D01*
X153657864Y-110069500D01*
X151862129Y-110069500D01*
X151862123Y-110069501D01*
X151802516Y-110075908D01*
X151667671Y-110126202D01*
X151667664Y-110126206D01*
X151552455Y-110212452D01*
X151552452Y-110212455D01*
X151466206Y-110327664D01*
X151466202Y-110327671D01*
X151415908Y-110462517D01*
X151409501Y-110522116D01*
X151409500Y-110522135D01*
X151409500Y-112317870D01*
X151409501Y-112317876D01*
X151415908Y-112377483D01*
X151466202Y-112512328D01*
X151466206Y-112512335D01*
X151552452Y-112627544D01*
X151552455Y-112627547D01*
X151667664Y-112713793D01*
X151667671Y-112713797D01*
X151799081Y-112762810D01*
X151855015Y-112804681D01*
X151879432Y-112870145D01*
X151864580Y-112938418D01*
X151843430Y-112966673D01*
X151721503Y-113088600D01*
X151585965Y-113282169D01*
X151585964Y-113282171D01*
X151486098Y-113496335D01*
X151486094Y-113496344D01*
X151424938Y-113724586D01*
X151424936Y-113724596D01*
X151404341Y-113959999D01*
X149935659Y-113959999D01*
X149915063Y-113724592D01*
X149853903Y-113496337D01*
X149754035Y-113282171D01*
X149748425Y-113274158D01*
X149618494Y-113088597D01*
X149451402Y-112921506D01*
X149451399Y-112921504D01*
X149412521Y-112894281D01*
X149257834Y-112785967D01*
X149257830Y-112785965D01*
X149224663Y-112770499D01*
X149043663Y-112686097D01*
X149043659Y-112686096D01*
X149043655Y-112686094D01*
X148815413Y-112624938D01*
X148815403Y-112624936D01*
X148580001Y-112604341D01*
X148579999Y-112604341D01*
X148344596Y-112624936D01*
X148344586Y-112624938D01*
X148116344Y-112686094D01*
X148116335Y-112686098D01*
X147902171Y-112785964D01*
X147902169Y-112785965D01*
X147708597Y-112921505D01*
X147541505Y-113088597D01*
X147411575Y-113274158D01*
X147356998Y-113317783D01*
X147287500Y-113324977D01*
X147225145Y-113293454D01*
X147208425Y-113274158D01*
X147078494Y-113088597D01*
X146911402Y-112921506D01*
X146911399Y-112921504D01*
X146872521Y-112894281D01*
X146717834Y-112785967D01*
X146717830Y-112785965D01*
X146684663Y-112770499D01*
X146503663Y-112686097D01*
X146503659Y-112686096D01*
X146503655Y-112686094D01*
X146275413Y-112624938D01*
X146275403Y-112624936D01*
X146040001Y-112604341D01*
X146039998Y-112604341D01*
X145959697Y-112611366D01*
X145891197Y-112597599D01*
X145841014Y-112548984D01*
X145825081Y-112480955D01*
X145848457Y-112415111D01*
X145861198Y-112400168D01*
X145890477Y-112370890D01*
X145923792Y-112317870D01*
X145980452Y-112227697D01*
X145980454Y-112227694D01*
X145980454Y-112227692D01*
X145980456Y-112227690D01*
X146036313Y-112068059D01*
X146036313Y-112068058D01*
X146036314Y-112068056D01*
X146055249Y-111900002D01*
X146055249Y-111899997D01*
X146036314Y-111731943D01*
X146000000Y-111628163D01*
X145980456Y-111572310D01*
X145980455Y-111572309D01*
X145980454Y-111572305D01*
X145980452Y-111572302D01*
X145890481Y-111429115D01*
X145890476Y-111429109D01*
X145770890Y-111309523D01*
X145770884Y-111309518D01*
X145627697Y-111219547D01*
X145627694Y-111219545D01*
X145468056Y-111163685D01*
X145300003Y-111144751D01*
X145299997Y-111144751D01*
X145131943Y-111163685D01*
X144972305Y-111219545D01*
X144972302Y-111219547D01*
X144829115Y-111309518D01*
X144829109Y-111309523D01*
X144709523Y-111429109D01*
X144709521Y-111429112D01*
X144654993Y-111515892D01*
X144602658Y-111562183D01*
X144533605Y-111572830D01*
X144469756Y-111544455D01*
X144445007Y-111515892D01*
X144390478Y-111429112D01*
X144390476Y-111429109D01*
X144270890Y-111309523D01*
X144270884Y-111309518D01*
X144127697Y-111219547D01*
X144127694Y-111219545D01*
X143968056Y-111163685D01*
X143800003Y-111144751D01*
X143799997Y-111144751D01*
X143631943Y-111163685D01*
X143472305Y-111219545D01*
X143472302Y-111219547D01*
X143329115Y-111309518D01*
X143329109Y-111309523D01*
X143209523Y-111429109D01*
X143209521Y-111429112D01*
X143204993Y-111436319D01*
X143152658Y-111482610D01*
X143083604Y-111493257D01*
X143019756Y-111464881D01*
X142995007Y-111436319D01*
X142990478Y-111429112D01*
X142990476Y-111429109D01*
X142870890Y-111309523D01*
X142870884Y-111309518D01*
X142727697Y-111219547D01*
X142727694Y-111219545D01*
X142568056Y-111163685D01*
X142400003Y-111144751D01*
X142399997Y-111144751D01*
X142231943Y-111163685D01*
X142072305Y-111219545D01*
X142072302Y-111219547D01*
X141929115Y-111309518D01*
X141929109Y-111309523D01*
X141809523Y-111429109D01*
X141809518Y-111429115D01*
X141719547Y-111572302D01*
X141719545Y-111572305D01*
X141663685Y-111731943D01*
X141644751Y-111899997D01*
X140500500Y-111899997D01*
X140500500Y-108399997D01*
X147444751Y-108399997D01*
X147444751Y-108400002D01*
X147463685Y-108568056D01*
X147519545Y-108727694D01*
X147519547Y-108727697D01*
X147609518Y-108870884D01*
X147609523Y-108870890D01*
X147729109Y-108990476D01*
X147729115Y-108990481D01*
X147872302Y-109080452D01*
X147872305Y-109080454D01*
X147872309Y-109080455D01*
X147872310Y-109080456D01*
X147944913Y-109105860D01*
X148031943Y-109136314D01*
X148199997Y-109155249D01*
X148200000Y-109155249D01*
X148200003Y-109155249D01*
X148368056Y-109136314D01*
X148368059Y-109136313D01*
X148527690Y-109080456D01*
X148527692Y-109080454D01*
X148527694Y-109080454D01*
X148527697Y-109080452D01*
X148670884Y-108990481D01*
X148670885Y-108990480D01*
X148670890Y-108990477D01*
X148790477Y-108870890D01*
X148795261Y-108863276D01*
X148880452Y-108727697D01*
X148880456Y-108727689D01*
X148911860Y-108637941D01*
X148952580Y-108581166D01*
X149017532Y-108555418D01*
X149086094Y-108568874D01*
X149133894Y-108612923D01*
X149159521Y-108653707D01*
X149159523Y-108653710D01*
X149279109Y-108773296D01*
X149279115Y-108773301D01*
X149422302Y-108863272D01*
X149422305Y-108863274D01*
X149422309Y-108863275D01*
X149422310Y-108863276D01*
X149444053Y-108870884D01*
X149581943Y-108919134D01*
X149749997Y-108938069D01*
X149750000Y-108938069D01*
X149750003Y-108938069D01*
X149918056Y-108919134D01*
X149918059Y-108919133D01*
X150077690Y-108863276D01*
X150077692Y-108863274D01*
X150077694Y-108863274D01*
X150077697Y-108863272D01*
X150220884Y-108773301D01*
X150220885Y-108773300D01*
X150220890Y-108773297D01*
X150340477Y-108653710D01*
X150356827Y-108627690D01*
X150430452Y-108510517D01*
X150430454Y-108510514D01*
X150430454Y-108510512D01*
X150430456Y-108510510D01*
X150486313Y-108350879D01*
X150486313Y-108350878D01*
X150486314Y-108350876D01*
X150505249Y-108182822D01*
X150505249Y-108182817D01*
X150486314Y-108014763D01*
X150481147Y-107999997D01*
X150744751Y-107999997D01*
X150744751Y-108000002D01*
X150763685Y-108168056D01*
X150819545Y-108327694D01*
X150819547Y-108327697D01*
X150909518Y-108470884D01*
X150909523Y-108470890D01*
X151029109Y-108590476D01*
X151029115Y-108590481D01*
X151172302Y-108680452D01*
X151172305Y-108680454D01*
X151172309Y-108680455D01*
X151172310Y-108680456D01*
X151244913Y-108705860D01*
X151331943Y-108736314D01*
X151499997Y-108755249D01*
X151500000Y-108755249D01*
X151500003Y-108755249D01*
X151668056Y-108736314D01*
X151692682Y-108727697D01*
X151827690Y-108680456D01*
X151955707Y-108600016D01*
X152022944Y-108581016D01*
X152089779Y-108601383D01*
X152126673Y-108639037D01*
X152209521Y-108770888D01*
X152329109Y-108890476D01*
X152329115Y-108890481D01*
X152472302Y-108980452D01*
X152472305Y-108980454D01*
X152472309Y-108980455D01*
X152472310Y-108980456D01*
X152493544Y-108987886D01*
X152631943Y-109036314D01*
X152799997Y-109055249D01*
X152800000Y-109055249D01*
X152800003Y-109055249D01*
X152968056Y-109036314D01*
X152968059Y-109036313D01*
X153127690Y-108980456D01*
X153127692Y-108980454D01*
X153127694Y-108980454D01*
X153127697Y-108980452D01*
X153270884Y-108890481D01*
X153270885Y-108890480D01*
X153270890Y-108890477D01*
X153312319Y-108849048D01*
X153373642Y-108815563D01*
X153443334Y-108820547D01*
X153487681Y-108849048D01*
X153529109Y-108890476D01*
X153529115Y-108890481D01*
X153672302Y-108980452D01*
X153672305Y-108980454D01*
X153672309Y-108980455D01*
X153672310Y-108980456D01*
X153693544Y-108987886D01*
X153831943Y-109036314D01*
X153999997Y-109055249D01*
X154000000Y-109055249D01*
X154000003Y-109055249D01*
X154168056Y-109036314D01*
X154168059Y-109036313D01*
X154327690Y-108980456D01*
X154327692Y-108980454D01*
X154327694Y-108980454D01*
X154327697Y-108980452D01*
X154470884Y-108890481D01*
X154470885Y-108890480D01*
X154470890Y-108890477D01*
X154590477Y-108770890D01*
X154612203Y-108736314D01*
X154680452Y-108627697D01*
X154680454Y-108627694D01*
X154680454Y-108627692D01*
X154680456Y-108627690D01*
X154736313Y-108468059D01*
X154736313Y-108468058D01*
X154736314Y-108468056D01*
X154755249Y-108300002D01*
X154755249Y-108299997D01*
X154736314Y-108131943D01*
X154680454Y-107972305D01*
X154680452Y-107972302D01*
X154590481Y-107829115D01*
X154590476Y-107829109D01*
X154470890Y-107709523D01*
X154470884Y-107709518D01*
X154327697Y-107619547D01*
X154327694Y-107619545D01*
X154168056Y-107563685D01*
X154000003Y-107544751D01*
X153999997Y-107544751D01*
X153831943Y-107563685D01*
X153672305Y-107619545D01*
X153672302Y-107619547D01*
X153529115Y-107709518D01*
X153529108Y-107709524D01*
X153487680Y-107750952D01*
X153426357Y-107784436D01*
X153356665Y-107779451D01*
X153312320Y-107750952D01*
X153270891Y-107709524D01*
X153270884Y-107709518D01*
X153127697Y-107619547D01*
X153127694Y-107619545D01*
X152968056Y-107563685D01*
X152800003Y-107544751D01*
X152799997Y-107544751D01*
X152631943Y-107563685D01*
X152472307Y-107619545D01*
X152344291Y-107699983D01*
X152277054Y-107718983D01*
X152210219Y-107698615D01*
X152173325Y-107660961D01*
X152090476Y-107529109D01*
X151970890Y-107409523D01*
X151970884Y-107409518D01*
X151827697Y-107319547D01*
X151827694Y-107319545D01*
X151668056Y-107263685D01*
X151500003Y-107244751D01*
X151499997Y-107244751D01*
X151331943Y-107263685D01*
X151172305Y-107319545D01*
X151172302Y-107319547D01*
X151029115Y-107409518D01*
X151029109Y-107409523D01*
X150909523Y-107529109D01*
X150909518Y-107529115D01*
X150819547Y-107672302D01*
X150819545Y-107672305D01*
X150763685Y-107831943D01*
X150744751Y-107999997D01*
X150481147Y-107999997D01*
X150430454Y-107855125D01*
X150430452Y-107855122D01*
X150340481Y-107711935D01*
X150340476Y-107711929D01*
X150220890Y-107592343D01*
X150220884Y-107592338D01*
X150077697Y-107502367D01*
X150077694Y-107502365D01*
X149918056Y-107446505D01*
X149750003Y-107427571D01*
X149749997Y-107427571D01*
X149581943Y-107446505D01*
X149422305Y-107502365D01*
X149422302Y-107502367D01*
X149279115Y-107592338D01*
X149279109Y-107592343D01*
X149159523Y-107711929D01*
X149159518Y-107711935D01*
X149069547Y-107855122D01*
X149069542Y-107855133D01*
X149038139Y-107944878D01*
X148997418Y-108001654D01*
X148932465Y-108027401D01*
X148863903Y-108013945D01*
X148816105Y-107969896D01*
X148790478Y-107929111D01*
X148670890Y-107809523D01*
X148670884Y-107809518D01*
X148527697Y-107719547D01*
X148527694Y-107719545D01*
X148368056Y-107663685D01*
X148200003Y-107644751D01*
X148199997Y-107644751D01*
X148031943Y-107663685D01*
X147872305Y-107719545D01*
X147872302Y-107719547D01*
X147729115Y-107809518D01*
X147729109Y-107809523D01*
X147609523Y-107929109D01*
X147609518Y-107929115D01*
X147519547Y-108072302D01*
X147519545Y-108072305D01*
X147463685Y-108231943D01*
X147444751Y-108399997D01*
X140500500Y-108399997D01*
X140500500Y-105199997D01*
X144744751Y-105199997D01*
X144744751Y-105200002D01*
X144763685Y-105368056D01*
X144819545Y-105527694D01*
X144819547Y-105527697D01*
X144909518Y-105670884D01*
X144909523Y-105670890D01*
X145029109Y-105790476D01*
X145029115Y-105790481D01*
X145172302Y-105880452D01*
X145172305Y-105880454D01*
X145172309Y-105880455D01*
X145172310Y-105880456D01*
X145244913Y-105905860D01*
X145331943Y-105936314D01*
X145499997Y-105955249D01*
X145500000Y-105955249D01*
X145500003Y-105955249D01*
X145668056Y-105936314D01*
X145668059Y-105936313D01*
X145827690Y-105880456D01*
X145827692Y-105880454D01*
X145827694Y-105880454D01*
X145827697Y-105880452D01*
X145970884Y-105790481D01*
X145970885Y-105790480D01*
X145970890Y-105790477D01*
X146090477Y-105670890D01*
X146180452Y-105527697D01*
X146180454Y-105527694D01*
X146180454Y-105527692D01*
X146180456Y-105527690D01*
X146236313Y-105368059D01*
X146236313Y-105368058D01*
X146236314Y-105368056D01*
X146255249Y-105200002D01*
X146255249Y-105199997D01*
X146236314Y-105031943D01*
X146183306Y-104880456D01*
X146180456Y-104872310D01*
X146180455Y-104872309D01*
X146180454Y-104872305D01*
X146180452Y-104872302D01*
X146090481Y-104729115D01*
X146090476Y-104729109D01*
X145970890Y-104609523D01*
X145970884Y-104609518D01*
X145827697Y-104519547D01*
X145827694Y-104519545D01*
X145668056Y-104463685D01*
X145500003Y-104444751D01*
X145499997Y-104444751D01*
X145331943Y-104463685D01*
X145172305Y-104519545D01*
X145172302Y-104519547D01*
X145029115Y-104609518D01*
X145029109Y-104609523D01*
X144909523Y-104729109D01*
X144909518Y-104729115D01*
X144819547Y-104872302D01*
X144819545Y-104872305D01*
X144763685Y-105031943D01*
X144744751Y-105199997D01*
X140500500Y-105199997D01*
X140500500Y-104199997D01*
X146244751Y-104199997D01*
X146244751Y-104200002D01*
X146263685Y-104368056D01*
X146319545Y-104527694D01*
X146319547Y-104527697D01*
X146409518Y-104670884D01*
X146409523Y-104670890D01*
X146529109Y-104790476D01*
X146529115Y-104790481D01*
X146672302Y-104880452D01*
X146672305Y-104880454D01*
X146672309Y-104880455D01*
X146672310Y-104880456D01*
X146744913Y-104905860D01*
X146831943Y-104936314D01*
X146999997Y-104955249D01*
X147000000Y-104955249D01*
X147000003Y-104955249D01*
X147168056Y-104936314D01*
X147168059Y-104936313D01*
X147327690Y-104880456D01*
X147327692Y-104880454D01*
X147327694Y-104880454D01*
X147327697Y-104880452D01*
X147470884Y-104790481D01*
X147470885Y-104790480D01*
X147470890Y-104790477D01*
X147590477Y-104670890D01*
X147680452Y-104527697D01*
X147680454Y-104527694D01*
X147680454Y-104527692D01*
X147680456Y-104527690D01*
X147736313Y-104368059D01*
X147736313Y-104368058D01*
X147736314Y-104368056D01*
X147755249Y-104200002D01*
X147755249Y-104199997D01*
X147736314Y-104031943D01*
X147680454Y-103872305D01*
X147680452Y-103872302D01*
X147590481Y-103729115D01*
X147590476Y-103729109D01*
X147470890Y-103609523D01*
X147470884Y-103609518D01*
X147327697Y-103519547D01*
X147327694Y-103519545D01*
X147168056Y-103463685D01*
X147000003Y-103444751D01*
X146999997Y-103444751D01*
X146831943Y-103463685D01*
X146672305Y-103519545D01*
X146672302Y-103519547D01*
X146529115Y-103609518D01*
X146529109Y-103609523D01*
X146409523Y-103729109D01*
X146409518Y-103729115D01*
X146319547Y-103872302D01*
X146319545Y-103872305D01*
X146263685Y-104031943D01*
X146244751Y-104199997D01*
X140500500Y-104199997D01*
X140500500Y-100199997D01*
X142244751Y-100199997D01*
X142244751Y-100200002D01*
X142263685Y-100368056D01*
X142319545Y-100527694D01*
X142319547Y-100527697D01*
X142409518Y-100670884D01*
X142409523Y-100670890D01*
X142529109Y-100790476D01*
X142529115Y-100790481D01*
X142672302Y-100880452D01*
X142672305Y-100880454D01*
X142672309Y-100880455D01*
X142672310Y-100880456D01*
X142831941Y-100936313D01*
X142831944Y-100936314D01*
X142846091Y-100937908D01*
X142910505Y-100964974D01*
X142950061Y-101022568D01*
X142952200Y-101092405D01*
X142916242Y-101152312D01*
X142898182Y-101166121D01*
X142829112Y-101209521D01*
X142829109Y-101209523D01*
X142709523Y-101329109D01*
X142709518Y-101329115D01*
X142619547Y-101472302D01*
X142619545Y-101472305D01*
X142563685Y-101631943D01*
X142544751Y-101799997D01*
X142544751Y-101800002D01*
X142563685Y-101968056D01*
X142619545Y-102127694D01*
X142619547Y-102127697D01*
X142709518Y-102270884D01*
X142709523Y-102270890D01*
X142736299Y-102297666D01*
X142769784Y-102358989D01*
X142765661Y-102426297D01*
X142763686Y-102431939D01*
X142763686Y-102431941D01*
X142744751Y-102599997D01*
X142744751Y-102600002D01*
X142763685Y-102768056D01*
X142819545Y-102927694D01*
X142819547Y-102927697D01*
X142909518Y-103070884D01*
X142909523Y-103070890D01*
X143029109Y-103190476D01*
X143029115Y-103190481D01*
X143172302Y-103280452D01*
X143172305Y-103280454D01*
X143172309Y-103280455D01*
X143172310Y-103280456D01*
X143244913Y-103305860D01*
X143331943Y-103336314D01*
X143499997Y-103355249D01*
X143500000Y-103355249D01*
X143500003Y-103355249D01*
X143668056Y-103336314D01*
X143668059Y-103336313D01*
X143827690Y-103280456D01*
X143827692Y-103280454D01*
X143827694Y-103280454D01*
X143827697Y-103280452D01*
X143970884Y-103190481D01*
X143970885Y-103190480D01*
X143970890Y-103190477D01*
X144090477Y-103070890D01*
X144090481Y-103070884D01*
X144180452Y-102927697D01*
X144180454Y-102927694D01*
X144180454Y-102927692D01*
X144180456Y-102927690D01*
X144225137Y-102799997D01*
X147744751Y-102799997D01*
X147744751Y-102800002D01*
X147763685Y-102968056D01*
X147819545Y-103127694D01*
X147819547Y-103127697D01*
X147909518Y-103270884D01*
X147909523Y-103270890D01*
X148029109Y-103390476D01*
X148029115Y-103390481D01*
X148172302Y-103480452D01*
X148172305Y-103480454D01*
X148172309Y-103480455D01*
X148172310Y-103480456D01*
X148244913Y-103505860D01*
X148331943Y-103536314D01*
X148499997Y-103555249D01*
X148500000Y-103555249D01*
X148500003Y-103555249D01*
X148668056Y-103536314D01*
X148668059Y-103536313D01*
X148827690Y-103480456D01*
X148827692Y-103480454D01*
X148827694Y-103480454D01*
X148827697Y-103480452D01*
X148970884Y-103390481D01*
X148970885Y-103390480D01*
X148970890Y-103390477D01*
X149090477Y-103270890D01*
X149180452Y-103127697D01*
X149180454Y-103127694D01*
X149180454Y-103127692D01*
X149180456Y-103127690D01*
X149236313Y-102968059D01*
X149236313Y-102968058D01*
X149236314Y-102968056D01*
X149255249Y-102800002D01*
X149255249Y-102799997D01*
X149236314Y-102631943D01*
X149180454Y-102472305D01*
X149180452Y-102472302D01*
X149090481Y-102329115D01*
X149090476Y-102329109D01*
X148970890Y-102209523D01*
X148970884Y-102209518D01*
X148827697Y-102119547D01*
X148827694Y-102119545D01*
X148668056Y-102063685D01*
X148500003Y-102044751D01*
X148499997Y-102044751D01*
X148331943Y-102063685D01*
X148172305Y-102119545D01*
X148172302Y-102119547D01*
X148029115Y-102209518D01*
X148029109Y-102209523D01*
X147909523Y-102329109D01*
X147909518Y-102329115D01*
X147819547Y-102472302D01*
X147819545Y-102472305D01*
X147763685Y-102631943D01*
X147744751Y-102799997D01*
X144225137Y-102799997D01*
X144236313Y-102768059D01*
X144236313Y-102768058D01*
X144236314Y-102768056D01*
X144255249Y-102600002D01*
X144255249Y-102599997D01*
X144236314Y-102431943D01*
X144180454Y-102272305D01*
X144180452Y-102272302D01*
X144090481Y-102129115D01*
X144090476Y-102129109D01*
X144063700Y-102102333D01*
X144030215Y-102041010D01*
X144034340Y-101973696D01*
X144036313Y-101968059D01*
X144055249Y-101800000D01*
X144055249Y-101799997D01*
X144036314Y-101631943D01*
X143980454Y-101472305D01*
X143980452Y-101472302D01*
X143890481Y-101329115D01*
X143890476Y-101329109D01*
X143770890Y-101209523D01*
X143770884Y-101209518D01*
X143627697Y-101119547D01*
X143627694Y-101119545D01*
X143468056Y-101063686D01*
X143453903Y-101062091D01*
X143389490Y-101035022D01*
X143349936Y-100977426D01*
X143347801Y-100907589D01*
X143383761Y-100847684D01*
X143401815Y-100833879D01*
X143470890Y-100790477D01*
X143590477Y-100670890D01*
X143680452Y-100527697D01*
X143680454Y-100527694D01*
X143680454Y-100527692D01*
X143680456Y-100527690D01*
X143736313Y-100368059D01*
X143736313Y-100368058D01*
X143736314Y-100368056D01*
X143755249Y-100200002D01*
X143755249Y-100199997D01*
X143736314Y-100031943D01*
X143680454Y-99872305D01*
X143680452Y-99872302D01*
X143590481Y-99729115D01*
X143590476Y-99729109D01*
X143470890Y-99609523D01*
X143470884Y-99609518D01*
X143327697Y-99519547D01*
X143327694Y-99519545D01*
X143168056Y-99463685D01*
X143000003Y-99444751D01*
X142999997Y-99444751D01*
X142831943Y-99463685D01*
X142672305Y-99519545D01*
X142672302Y-99519547D01*
X142529115Y-99609518D01*
X142529109Y-99609523D01*
X142409523Y-99729109D01*
X142409518Y-99729115D01*
X142319547Y-99872302D01*
X142319545Y-99872305D01*
X142263685Y-100031943D01*
X142244751Y-100199997D01*
X140500500Y-100199997D01*
X140500500Y-95299997D01*
X142044751Y-95299997D01*
X142044751Y-95300002D01*
X142063685Y-95468056D01*
X142096853Y-95562844D01*
X142119544Y-95627690D01*
X142119545Y-95627691D01*
X142123529Y-95634033D01*
X142142525Y-95701270D01*
X142123529Y-95765967D01*
X142123523Y-95765977D01*
X142119544Y-95772310D01*
X142109067Y-95802250D01*
X142063685Y-95931943D01*
X142044751Y-96099997D01*
X142044751Y-96100002D01*
X142063685Y-96268056D01*
X142119545Y-96427694D01*
X142119547Y-96427697D01*
X142209518Y-96570884D01*
X142209523Y-96570890D01*
X142329109Y-96690476D01*
X142329115Y-96690481D01*
X142472302Y-96780452D01*
X142472308Y-96780455D01*
X142472310Y-96780456D01*
X142625906Y-96834201D01*
X142682682Y-96874923D01*
X142708430Y-96939875D01*
X142694974Y-97008437D01*
X142646587Y-97058840D01*
X142625914Y-97068282D01*
X142622313Y-97069542D01*
X142622302Y-97069547D01*
X142479115Y-97159518D01*
X142479109Y-97159523D01*
X142359523Y-97279109D01*
X142359518Y-97279115D01*
X142269547Y-97422302D01*
X142269545Y-97422305D01*
X142213685Y-97581943D01*
X142194751Y-97749997D01*
X142194751Y-97750002D01*
X142213685Y-97918056D01*
X142269545Y-98077694D01*
X142269547Y-98077697D01*
X142359518Y-98220884D01*
X142359523Y-98220890D01*
X142479109Y-98340476D01*
X142479115Y-98340481D01*
X142622302Y-98430452D01*
X142622305Y-98430454D01*
X142622309Y-98430455D01*
X142622310Y-98430456D01*
X142694913Y-98455860D01*
X142781943Y-98486314D01*
X142949997Y-98505249D01*
X142950000Y-98505249D01*
X142950003Y-98505249D01*
X143118056Y-98486314D01*
X143118059Y-98486313D01*
X143277690Y-98430456D01*
X143277692Y-98430454D01*
X143277694Y-98430454D01*
X143277697Y-98430452D01*
X143420884Y-98340481D01*
X143420885Y-98340480D01*
X143420890Y-98340477D01*
X143540477Y-98220890D01*
X143630452Y-98077697D01*
X143630454Y-98077694D01*
X143630454Y-98077692D01*
X143630456Y-98077690D01*
X143686313Y-97918059D01*
X143686313Y-97918058D01*
X143686314Y-97918056D01*
X143705249Y-97750002D01*
X143705249Y-97749997D01*
X143686314Y-97581943D01*
X143630454Y-97422305D01*
X143630452Y-97422302D01*
X143540481Y-97279115D01*
X143540476Y-97279109D01*
X143420890Y-97159523D01*
X143420884Y-97159518D01*
X143277697Y-97069547D01*
X143277694Y-97069545D01*
X143124092Y-97015798D01*
X143067316Y-96975076D01*
X143041569Y-96910123D01*
X143043556Y-96899997D01*
X144044751Y-96899997D01*
X144044751Y-96900002D01*
X144063685Y-97068056D01*
X144119545Y-97227694D01*
X144119547Y-97227697D01*
X144209518Y-97370884D01*
X144209523Y-97370890D01*
X144329109Y-97490476D01*
X144329115Y-97490481D01*
X144472302Y-97580452D01*
X144472305Y-97580454D01*
X144472309Y-97580455D01*
X144472310Y-97580456D01*
X144476560Y-97581943D01*
X144631943Y-97636314D01*
X144799997Y-97655249D01*
X144800000Y-97655249D01*
X144800003Y-97655249D01*
X144968056Y-97636314D01*
X144968059Y-97636313D01*
X145127690Y-97580456D01*
X145127692Y-97580454D01*
X145127694Y-97580454D01*
X145127697Y-97580452D01*
X145270884Y-97490481D01*
X145270885Y-97490480D01*
X145270890Y-97490477D01*
X145390477Y-97370890D01*
X145390481Y-97370884D01*
X145480452Y-97227697D01*
X145480454Y-97227694D01*
X145480454Y-97227692D01*
X145480456Y-97227690D01*
X145536313Y-97068059D01*
X145536313Y-97068058D01*
X145536314Y-97068056D01*
X145555249Y-96900002D01*
X145555249Y-96899997D01*
X145536314Y-96731943D01*
X145480454Y-96572305D01*
X145480452Y-96572302D01*
X145390481Y-96429115D01*
X145390476Y-96429109D01*
X145270890Y-96309523D01*
X145270884Y-96309518D01*
X145127697Y-96219547D01*
X145127694Y-96219545D01*
X144968056Y-96163685D01*
X144800003Y-96144751D01*
X144799997Y-96144751D01*
X144631943Y-96163685D01*
X144472305Y-96219545D01*
X144472302Y-96219547D01*
X144329115Y-96309518D01*
X144329109Y-96309523D01*
X144209523Y-96429109D01*
X144209518Y-96429115D01*
X144119547Y-96572302D01*
X144119545Y-96572305D01*
X144063685Y-96731943D01*
X144044751Y-96899997D01*
X143043556Y-96899997D01*
X143055025Y-96841561D01*
X143103413Y-96791159D01*
X143124093Y-96781714D01*
X143127690Y-96780456D01*
X143127692Y-96780454D01*
X143127694Y-96780454D01*
X143127697Y-96780452D01*
X143270884Y-96690481D01*
X143270885Y-96690480D01*
X143270890Y-96690477D01*
X143390477Y-96570890D01*
X143479564Y-96429110D01*
X143480452Y-96427697D01*
X143480454Y-96427694D01*
X143480454Y-96427692D01*
X143480456Y-96427690D01*
X143536313Y-96268059D01*
X143536313Y-96268058D01*
X143536314Y-96268056D01*
X143555249Y-96100002D01*
X143555249Y-96099997D01*
X143536313Y-95931942D01*
X143480457Y-95772312D01*
X143480456Y-95772310D01*
X143476475Y-95765975D01*
X143457472Y-95698742D01*
X143476475Y-95634024D01*
X143480456Y-95627690D01*
X143536313Y-95468059D01*
X143555249Y-95300000D01*
X143555249Y-95299997D01*
X143536314Y-95131943D01*
X143480454Y-94972305D01*
X143480452Y-94972302D01*
X143390481Y-94829115D01*
X143390476Y-94829109D01*
X143270890Y-94709523D01*
X143270884Y-94709518D01*
X143127697Y-94619547D01*
X143127694Y-94619545D01*
X142968056Y-94563685D01*
X142800003Y-94544751D01*
X142799997Y-94544751D01*
X142631943Y-94563685D01*
X142472305Y-94619545D01*
X142472302Y-94619547D01*
X142329115Y-94709518D01*
X142329109Y-94709523D01*
X142209523Y-94829109D01*
X142209518Y-94829115D01*
X142119547Y-94972302D01*
X142119545Y-94972305D01*
X142063685Y-95131943D01*
X142044751Y-95299997D01*
X140500500Y-95299997D01*
X140500500Y-93599997D01*
X148744751Y-93599997D01*
X148744751Y-93600002D01*
X148763685Y-93768056D01*
X148819545Y-93927694D01*
X148819547Y-93927697D01*
X148909518Y-94070884D01*
X148909523Y-94070890D01*
X149029109Y-94190476D01*
X149029115Y-94190481D01*
X149172302Y-94280452D01*
X149172305Y-94280454D01*
X149172309Y-94280455D01*
X149172310Y-94280456D01*
X149244913Y-94305860D01*
X149331943Y-94336314D01*
X149499997Y-94355249D01*
X149506744Y-94355249D01*
X149573783Y-94374934D01*
X149615450Y-94422038D01*
X149615840Y-94421794D01*
X149617325Y-94424158D01*
X149618462Y-94425443D01*
X149619542Y-94427686D01*
X149619543Y-94427688D01*
X149619544Y-94427690D01*
X149685050Y-94531941D01*
X149709523Y-94570890D01*
X149829109Y-94690476D01*
X149829115Y-94690481D01*
X149972302Y-94780452D01*
X149972305Y-94780454D01*
X149972309Y-94780455D01*
X149972310Y-94780456D01*
X150111353Y-94829109D01*
X150131944Y-94836314D01*
X150284209Y-94853470D01*
X150348623Y-94880536D01*
X150387368Y-94935735D01*
X150419545Y-95027694D01*
X150419547Y-95027697D01*
X150509518Y-95170884D01*
X150509523Y-95170890D01*
X150629109Y-95290476D01*
X150629115Y-95290481D01*
X150772302Y-95380452D01*
X150772305Y-95380454D01*
X150772309Y-95380455D01*
X150772310Y-95380456D01*
X150844913Y-95405860D01*
X150931943Y-95436314D01*
X151099997Y-95455249D01*
X151100000Y-95455249D01*
X151100003Y-95455249D01*
X151268056Y-95436314D01*
X151268059Y-95436313D01*
X151427690Y-95380456D01*
X151427692Y-95380454D01*
X151427694Y-95380454D01*
X151427697Y-95380452D01*
X151570884Y-95290481D01*
X151570885Y-95290480D01*
X151570890Y-95290477D01*
X151690477Y-95170890D01*
X151714949Y-95131943D01*
X151780452Y-95027697D01*
X151780454Y-95027694D01*
X151780454Y-95027692D01*
X151780456Y-95027690D01*
X151836313Y-94868059D01*
X151836313Y-94868058D01*
X151836314Y-94868056D01*
X151855249Y-94700002D01*
X151855249Y-94699997D01*
X151836314Y-94531943D01*
X151780454Y-94372305D01*
X151780452Y-94372302D01*
X151690481Y-94229115D01*
X151690476Y-94229109D01*
X151570890Y-94109523D01*
X151570884Y-94109518D01*
X151427697Y-94019547D01*
X151427694Y-94019545D01*
X151268055Y-93963685D01*
X151115789Y-93946529D01*
X151051375Y-93919462D01*
X151012632Y-93864264D01*
X150980456Y-93772310D01*
X150980455Y-93772307D01*
X150980452Y-93772302D01*
X150890481Y-93629115D01*
X150890476Y-93629109D01*
X150770890Y-93509523D01*
X150770884Y-93509518D01*
X150627697Y-93419547D01*
X150627694Y-93419545D01*
X150468056Y-93363685D01*
X150300003Y-93344751D01*
X150293256Y-93344751D01*
X150226217Y-93325066D01*
X150184552Y-93277960D01*
X150184162Y-93278206D01*
X150182672Y-93275834D01*
X150181533Y-93274547D01*
X150180451Y-93272300D01*
X150090481Y-93129115D01*
X150090476Y-93129109D01*
X149970890Y-93009523D01*
X149970884Y-93009518D01*
X149827697Y-92919547D01*
X149827694Y-92919545D01*
X149771826Y-92899996D01*
X151794435Y-92899996D01*
X151794435Y-92900003D01*
X151814630Y-93079249D01*
X151814631Y-93079254D01*
X151874211Y-93249523D01*
X151892234Y-93278206D01*
X151970184Y-93402262D01*
X152097738Y-93529816D01*
X152250478Y-93625789D01*
X152420745Y-93685368D01*
X152420750Y-93685369D01*
X152599996Y-93705565D01*
X152600000Y-93705565D01*
X152600004Y-93705565D01*
X152779249Y-93685369D01*
X152779252Y-93685368D01*
X152779255Y-93685368D01*
X152949522Y-93625789D01*
X153102262Y-93529816D01*
X153229816Y-93402262D01*
X153325789Y-93249522D01*
X153385368Y-93079255D01*
X153393225Y-93009523D01*
X153405565Y-92900003D01*
X153405565Y-92899996D01*
X153385369Y-92720750D01*
X153385368Y-92720745D01*
X153325788Y-92550476D01*
X153229815Y-92397737D01*
X153102262Y-92270184D01*
X152949523Y-92174211D01*
X152779254Y-92114631D01*
X152779249Y-92114630D01*
X152600004Y-92094435D01*
X152599996Y-92094435D01*
X152420750Y-92114630D01*
X152420745Y-92114631D01*
X152250476Y-92174211D01*
X152097737Y-92270184D01*
X151970184Y-92397737D01*
X151874211Y-92550476D01*
X151814631Y-92720745D01*
X151814630Y-92720750D01*
X151794435Y-92899996D01*
X149771826Y-92899996D01*
X149668056Y-92863685D01*
X149500003Y-92844751D01*
X149499997Y-92844751D01*
X149331943Y-92863685D01*
X149172305Y-92919545D01*
X149172302Y-92919547D01*
X149029115Y-93009518D01*
X149029109Y-93009523D01*
X148909523Y-93129109D01*
X148909518Y-93129115D01*
X148819547Y-93272302D01*
X148819545Y-93272305D01*
X148763685Y-93431943D01*
X148744751Y-93599997D01*
X140500500Y-93599997D01*
X140500500Y-91561229D01*
X140520185Y-91494190D01*
X140572989Y-91448435D01*
X140642147Y-91438491D01*
X140705703Y-91467516D01*
X140712181Y-91473548D01*
X140729109Y-91490476D01*
X140729115Y-91490481D01*
X140872302Y-91580452D01*
X140872305Y-91580454D01*
X140872309Y-91580455D01*
X140872310Y-91580456D01*
X140944913Y-91605860D01*
X141031943Y-91636314D01*
X141199997Y-91655249D01*
X141200000Y-91655249D01*
X141200003Y-91655249D01*
X141368056Y-91636314D01*
X141368059Y-91636313D01*
X141527690Y-91580456D01*
X141527692Y-91580454D01*
X141527694Y-91580454D01*
X141527697Y-91580452D01*
X141670884Y-91490481D01*
X141670885Y-91490480D01*
X141670890Y-91490477D01*
X141790477Y-91370890D01*
X141812203Y-91336314D01*
X141880452Y-91227697D01*
X141880454Y-91227694D01*
X141880454Y-91227692D01*
X141880456Y-91227690D01*
X141936313Y-91068059D01*
X141936313Y-91068058D01*
X141936314Y-91068056D01*
X141955249Y-90900002D01*
X141955249Y-90899997D01*
X141936314Y-90731943D01*
X141883306Y-90580456D01*
X141880456Y-90572310D01*
X141880455Y-90572309D01*
X141880454Y-90572305D01*
X141880452Y-90572302D01*
X141790481Y-90429115D01*
X141790476Y-90429109D01*
X141670890Y-90309523D01*
X141670884Y-90309518D01*
X141527697Y-90219547D01*
X141527694Y-90219545D01*
X141368056Y-90163685D01*
X141200003Y-90144751D01*
X141199997Y-90144751D01*
X141031943Y-90163685D01*
X140872305Y-90219545D01*
X140872302Y-90219547D01*
X140729115Y-90309518D01*
X140729109Y-90309523D01*
X140712181Y-90326452D01*
X140650858Y-90359937D01*
X140581166Y-90354953D01*
X140525233Y-90313081D01*
X140500816Y-90247617D01*
X140500500Y-90238771D01*
X140500500Y-86661229D01*
X140520185Y-86594190D01*
X140572989Y-86548435D01*
X140642147Y-86538491D01*
X140705703Y-86567516D01*
X140712181Y-86573548D01*
X140729109Y-86590476D01*
X140729115Y-86590481D01*
X140872302Y-86680452D01*
X140872305Y-86680454D01*
X140872309Y-86680455D01*
X140872310Y-86680456D01*
X140944913Y-86705860D01*
X141031943Y-86736314D01*
X141199997Y-86755249D01*
X141200000Y-86755249D01*
X141200003Y-86755249D01*
X141368056Y-86736314D01*
X141380548Y-86731943D01*
X141527690Y-86680456D01*
X141527692Y-86680454D01*
X141527694Y-86680454D01*
X141527697Y-86680452D01*
X141670884Y-86590481D01*
X141670885Y-86590480D01*
X141670890Y-86590477D01*
X141790477Y-86470890D01*
X141845006Y-86384107D01*
X141897341Y-86337817D01*
X141966395Y-86327169D01*
X142030243Y-86355544D01*
X142054994Y-86384108D01*
X142109523Y-86470890D01*
X142229109Y-86590476D01*
X142229115Y-86590481D01*
X142372302Y-86680452D01*
X142372305Y-86680454D01*
X142372309Y-86680455D01*
X142372310Y-86680456D01*
X142444913Y-86705860D01*
X142531943Y-86736314D01*
X142699997Y-86755249D01*
X142700000Y-86755249D01*
X142700003Y-86755249D01*
X142868056Y-86736314D01*
X142880548Y-86731943D01*
X143027690Y-86680456D01*
X143027692Y-86680454D01*
X143027694Y-86680454D01*
X143027697Y-86680452D01*
X143170884Y-86590481D01*
X143170885Y-86590480D01*
X143170890Y-86590477D01*
X143290477Y-86470890D01*
X143316726Y-86429115D01*
X143380452Y-86327697D01*
X143380454Y-86327694D01*
X143380454Y-86327692D01*
X143380456Y-86327690D01*
X143436313Y-86168059D01*
X143436313Y-86168058D01*
X143436314Y-86168056D01*
X143455249Y-86000002D01*
X143455249Y-85999997D01*
X143436314Y-85831943D01*
X143398659Y-85724331D01*
X143380456Y-85672310D01*
X143380455Y-85672309D01*
X143380454Y-85672305D01*
X143380452Y-85672302D01*
X143290481Y-85529115D01*
X143290476Y-85529109D01*
X143170890Y-85409523D01*
X143170884Y-85409518D01*
X143027697Y-85319547D01*
X143027694Y-85319545D01*
X142868056Y-85263685D01*
X142700003Y-85244751D01*
X142699997Y-85244751D01*
X142531943Y-85263685D01*
X142372305Y-85319545D01*
X142372302Y-85319547D01*
X142229115Y-85409518D01*
X142229109Y-85409523D01*
X142109523Y-85529109D01*
X142109521Y-85529112D01*
X142054993Y-85615892D01*
X142002658Y-85662183D01*
X141933605Y-85672830D01*
X141869756Y-85644455D01*
X141845007Y-85615892D01*
X141790478Y-85529112D01*
X141790476Y-85529109D01*
X141670890Y-85409523D01*
X141670888Y-85409522D01*
X141668024Y-85407722D01*
X141666569Y-85406077D01*
X141665444Y-85405180D01*
X141665601Y-85404982D01*
X141621734Y-85355386D01*
X141611088Y-85286332D01*
X141639465Y-85222485D01*
X141646318Y-85215049D01*
X141659988Y-85201379D01*
X141690477Y-85170890D01*
X141780452Y-85027697D01*
X141780454Y-85027694D01*
X141780454Y-85027692D01*
X141780456Y-85027690D01*
X141836313Y-84868059D01*
X141836313Y-84868058D01*
X141836314Y-84868056D01*
X141855249Y-84700002D01*
X141855249Y-84699997D01*
X141836314Y-84531943D01*
X141780454Y-84372305D01*
X141780452Y-84372302D01*
X141690481Y-84229115D01*
X141690476Y-84229109D01*
X141570890Y-84109523D01*
X141570884Y-84109518D01*
X141427697Y-84019547D01*
X141427694Y-84019545D01*
X141268056Y-83963685D01*
X141100003Y-83944751D01*
X141099997Y-83944751D01*
X140931943Y-83963685D01*
X140772307Y-84019545D01*
X140690472Y-84070966D01*
X140623235Y-84089966D01*
X140556400Y-84069598D01*
X140511186Y-84016330D01*
X140500500Y-83965972D01*
X140500500Y-81624500D01*
X140520185Y-81557461D01*
X140572989Y-81511706D01*
X140624500Y-81500500D01*
X143810678Y-81500500D01*
X143877717Y-81520185D01*
G37*
G04 #@! TD.AperFunction*
M02*
