G04 #@! TF.GenerationSoftware,KiCad,Pcbnew,8.0.3*
G04 #@! TF.CreationDate,2024-06-18T14:47:19-04:00*
G04 #@! TF.ProjectId,SoarerMax,536f6172-6572-44d6-9178-2e6b69636164,rev?*
G04 #@! TF.SameCoordinates,Original*
G04 #@! TF.FileFunction,Soldermask,Bot*
G04 #@! TF.FilePolarity,Negative*
%FSLAX46Y46*%
G04 Gerber Fmt 4.6, Leading zero omitted, Abs format (unit mm)*
G04 Created by KiCad (PCBNEW 8.0.3) date 2024-06-18 14:47:19*
%MOMM*%
%LPD*%
G01*
G04 APERTURE LIST*
%ADD10C,0.700000*%
%ADD11O,0.900000X2.400000*%
%ADD12O,0.900000X1.700000*%
%ADD13R,1.700000X1.700000*%
%ADD14O,1.700000X1.700000*%
%ADD15C,0.600000*%
%ADD16C,0.500000*%
G04 APERTURE END LIST*
D10*
X151975000Y-87025000D03*
X151125000Y-87025000D03*
X150275000Y-87025000D03*
X149425000Y-87025000D03*
X148575000Y-87025000D03*
X147725000Y-87025000D03*
X146875000Y-87025000D03*
X146025000Y-87025000D03*
X146025000Y-85675000D03*
X146875000Y-85675000D03*
X147725000Y-85675000D03*
X148575000Y-85675000D03*
X149425000Y-85675000D03*
X150275000Y-85675000D03*
X151125000Y-85675000D03*
X151975000Y-85675000D03*
D11*
X153325000Y-86045000D03*
D12*
X153325000Y-82665000D03*
D11*
X144675000Y-86045000D03*
D12*
X144675000Y-82665000D03*
D13*
X143500000Y-116500000D03*
D14*
X143500000Y-113960000D03*
X146040000Y-116500000D03*
X146040000Y-113960000D03*
X148580000Y-116500000D03*
X148580000Y-113960000D03*
D13*
X152760000Y-111420000D03*
D14*
X155300000Y-111420000D03*
X152760000Y-113960000D03*
X155300000Y-113960000D03*
X152760000Y-116500000D03*
X155300000Y-116500000D03*
D15*
X152600000Y-92900000D03*
D16*
X153700000Y-89500000D03*
X143100000Y-90100000D03*
X142900000Y-98900000D03*
X146300000Y-108000000D03*
X150800000Y-84300000D03*
X146900000Y-84700000D03*
X144400000Y-89800000D03*
X141200000Y-86000000D03*
X156900000Y-86900000D03*
X142700000Y-86000000D03*
X147000000Y-104200000D03*
X142400000Y-111900000D03*
X144500000Y-88500000D03*
X143800000Y-111900000D03*
X145300000Y-111900000D03*
X141100000Y-84700000D03*
X148200000Y-108400000D03*
X157200000Y-90600000D03*
X144800000Y-96900000D03*
X152400000Y-84300000D03*
X151000000Y-89900000D03*
X142800000Y-96100000D03*
X142800000Y-95300000D03*
X147000000Y-89800000D03*
X142950000Y-97750000D03*
X141200000Y-90900000D03*
X149500000Y-93600000D03*
X156675000Y-108525000D03*
X143300000Y-101800000D03*
X149750000Y-108182820D03*
X150300000Y-94100000D03*
X143500000Y-102600000D03*
X152800000Y-108300000D03*
X154000000Y-108300000D03*
X148500000Y-102800000D03*
X143000000Y-100200000D03*
X151100000Y-94700000D03*
X145500000Y-105200000D03*
X151500000Y-108000000D03*
M02*
