M48
; DRILL file {KiCad 8.0.3} date 2024-06-18T14:47:21-0400
; FORMAT={-:-/ absolute / metric / decimal}
; #@! TF.CreationDate,2024-06-18T14:47:21-04:00
; #@! TF.GenerationSoftware,Kicad,Pcbnew,8.0.3
; #@! TF.FileFunction,Plated,1,6,PTH
FMAT,2
METRIC
; #@! TA.AperFunction,Plated,PTH,ViaDrill
T1C0.300
; #@! TA.AperFunction,Plated,PTH,ViaDrill
T2C0.400
; #@! TA.AperFunction,Plated,PTH,ComponentDrill
T3C0.400
; #@! TA.AperFunction,Plated,PTH,ComponentDrill
T4C0.600
; #@! TA.AperFunction,Plated,PTH,ComponentDrill
T5C1.000
%
G90
G05
T1
X152.6Y-92.9
T2
X141.1Y-84.7
X141.2Y-86.0
X141.2Y-90.9
X142.4Y-111.9
X142.7Y-86.0
X142.8Y-95.3
X142.8Y-96.1
X142.9Y-98.9
X142.95Y-97.75
X143.0Y-100.2
X143.1Y-90.1
X143.3Y-101.8
X143.5Y-102.6
X143.8Y-111.9
X144.4Y-89.8
X144.5Y-88.5
X144.8Y-96.9
X145.3Y-111.9
X145.5Y-105.2
X146.3Y-108.0
X146.9Y-84.7
X147.0Y-89.8
X147.0Y-104.2
X148.2Y-108.4
X148.5Y-102.8
X149.5Y-93.6
X149.75Y-108.183
X150.3Y-94.1
X150.8Y-84.3
X151.0Y-89.9
X151.1Y-94.7
X151.5Y-108.0
X152.4Y-84.3
X152.8Y-108.3
X153.7Y-89.5
X154.0Y-108.3
X156.675Y-108.525
X156.9Y-86.9
X157.2Y-90.6
T3
X146.025Y-85.675
X146.025Y-87.025
X146.875Y-85.675
X146.875Y-87.025
X147.725Y-85.675
X147.725Y-87.025
X148.575Y-85.675
X148.575Y-87.025
X149.425Y-85.675
X149.425Y-87.025
X150.275Y-85.675
X150.275Y-87.025
X151.125Y-85.675
X151.125Y-87.025
X151.975Y-85.675
X151.975Y-87.025
T5
X143.5Y-113.96
X143.5Y-116.5
X146.04Y-113.96
X146.04Y-116.5
X148.58Y-113.96
X148.58Y-116.5
X152.76Y-111.42
X152.76Y-113.96
X152.76Y-116.5
X155.3Y-111.42
X155.3Y-113.96
X155.3Y-116.5
T4
X144.675Y-83.065G85X144.675Y-82.265
G05
X144.675Y-86.795G85X144.675Y-85.295
G05
X153.325Y-83.065G85X153.325Y-82.265
G05
X153.325Y-86.795G85X153.325Y-85.295
G05
M30
