G04 #@! TF.GenerationSoftware,KiCad,Pcbnew,8.0.3*
G04 #@! TF.CreationDate,2024-06-18T14:47:19-04:00*
G04 #@! TF.ProjectId,SoarerMax,536f6172-6572-44d6-9178-2e6b69636164,rev?*
G04 #@! TF.SameCoordinates,Original*
G04 #@! TF.FileFunction,Soldermask,Top*
G04 #@! TF.FilePolarity,Negative*
%FSLAX46Y46*%
G04 Gerber Fmt 4.6, Leading zero omitted, Abs format (unit mm)*
G04 Created by KiCad (PCBNEW 8.0.3) date 2024-06-18 14:47:19*
%MOMM*%
%LPD*%
G01*
G04 APERTURE LIST*
G04 Aperture macros list*
%AMRoundRect*
0 Rectangle with rounded corners*
0 $1 Rounding radius*
0 $2 $3 $4 $5 $6 $7 $8 $9 X,Y pos of 4 corners*
0 Add a 4 corners polygon primitive as box body*
4,1,4,$2,$3,$4,$5,$6,$7,$8,$9,$2,$3,0*
0 Add four circle primitives for the rounded corners*
1,1,$1+$1,$2,$3*
1,1,$1+$1,$4,$5*
1,1,$1+$1,$6,$7*
1,1,$1+$1,$8,$9*
0 Add four rect primitives between the rounded corners*
20,1,$1+$1,$2,$3,$4,$5,0*
20,1,$1+$1,$4,$5,$6,$7,0*
20,1,$1+$1,$6,$7,$8,$9,0*
20,1,$1+$1,$8,$9,$2,$3,0*%
G04 Aperture macros list end*
%ADD10RoundRect,0.237500X0.250000X0.237500X-0.250000X0.237500X-0.250000X-0.237500X0.250000X-0.237500X0*%
%ADD11C,0.700000*%
%ADD12O,0.900000X2.400000*%
%ADD13O,0.900000X1.700000*%
%ADD14RoundRect,0.237500X0.300000X0.237500X-0.300000X0.237500X-0.300000X-0.237500X0.300000X-0.237500X0*%
%ADD15R,0.400000X1.900000*%
%ADD16RoundRect,0.237500X-0.237500X0.300000X-0.237500X-0.300000X0.237500X-0.300000X0.237500X0.300000X0*%
%ADD17RoundRect,0.237500X0.237500X-0.300000X0.237500X0.300000X-0.237500X0.300000X-0.237500X-0.300000X0*%
%ADD18R,1.700000X1.700000*%
%ADD19O,1.700000X1.700000*%
%ADD20R,1.500000X0.550000*%
%ADD21R,0.550000X1.500000*%
%ADD22RoundRect,0.237500X-0.250000X-0.237500X0.250000X-0.237500X0.250000X0.237500X-0.250000X0.237500X0*%
%ADD23C,0.600000*%
%ADD24C,0.500000*%
G04 APERTURE END LIST*
D10*
X147912500Y-89000000D03*
X146087500Y-89000000D03*
X142912500Y-83500000D03*
X141087500Y-83500000D03*
D11*
X151975000Y-87025000D03*
X151125000Y-87025000D03*
X150275000Y-87025000D03*
X149425000Y-87025000D03*
X148575000Y-87025000D03*
X147725000Y-87025000D03*
X146875000Y-87025000D03*
X146025000Y-87025000D03*
X146025000Y-85675000D03*
X146875000Y-85675000D03*
X147725000Y-85675000D03*
X148575000Y-85675000D03*
X149425000Y-85675000D03*
X150275000Y-85675000D03*
X151125000Y-85675000D03*
X151975000Y-85675000D03*
D12*
X153325000Y-86045000D03*
D13*
X153325000Y-82665000D03*
D12*
X144675000Y-86045000D03*
D13*
X144675000Y-82665000D03*
D14*
X156862500Y-89500000D03*
X155137500Y-89500000D03*
D15*
X149500000Y-110000000D03*
X148300000Y-110000000D03*
X147100000Y-110000000D03*
D16*
X142750000Y-87137500D03*
X142750000Y-88862500D03*
D17*
X145500000Y-110862500D03*
X145500000Y-109137500D03*
X143890000Y-110862500D03*
X143890000Y-109137500D03*
D18*
X143500000Y-116500000D03*
D19*
X143500000Y-113960000D03*
X146040000Y-116500000D03*
X146040000Y-113960000D03*
X148580000Y-116500000D03*
X148580000Y-113960000D03*
D20*
X141400000Y-92950000D03*
X141400000Y-93750000D03*
X141400000Y-94550000D03*
X141400000Y-95350000D03*
X141400000Y-96150000D03*
X141400000Y-96950000D03*
X141400000Y-97750000D03*
X141400000Y-98550000D03*
X141400000Y-99350000D03*
X141400000Y-100150000D03*
X141400000Y-100950000D03*
X141400000Y-101750000D03*
X141400000Y-102550000D03*
X141400000Y-103350000D03*
X141400000Y-104150000D03*
X141400000Y-104950000D03*
D21*
X143100000Y-106650000D03*
X143900000Y-106650000D03*
X144700000Y-106650000D03*
X145500000Y-106650000D03*
X146300000Y-106650000D03*
X147100000Y-106650000D03*
X147900000Y-106650000D03*
X148700000Y-106650000D03*
X149500000Y-106650000D03*
X150300000Y-106650000D03*
X151100000Y-106650000D03*
X151900000Y-106650000D03*
X152700000Y-106650000D03*
X153500000Y-106650000D03*
X154300000Y-106650000D03*
X155100000Y-106650000D03*
D20*
X156800000Y-104950000D03*
X156800000Y-104150000D03*
X156800000Y-103350000D03*
X156800000Y-102550000D03*
X156800000Y-101750000D03*
X156800000Y-100950000D03*
X156800000Y-100150000D03*
X156800000Y-99350000D03*
X156800000Y-98550000D03*
X156800000Y-97750000D03*
X156800000Y-96950000D03*
X156800000Y-96150000D03*
X156800000Y-95350000D03*
X156800000Y-94550000D03*
X156800000Y-93750000D03*
X156800000Y-92950000D03*
D21*
X155100000Y-91250000D03*
X154300000Y-91250000D03*
X153500000Y-91250000D03*
X152700000Y-91250000D03*
X151900000Y-91250000D03*
X151100000Y-91250000D03*
X150300000Y-91250000D03*
X149500000Y-91250000D03*
X148700000Y-91250000D03*
X147900000Y-91250000D03*
X147100000Y-91250000D03*
X146300000Y-91250000D03*
X145500000Y-91250000D03*
X144700000Y-91250000D03*
X143900000Y-91250000D03*
X143100000Y-91250000D03*
D17*
X142500000Y-110862500D03*
X142500000Y-109137500D03*
D22*
X155087500Y-88000000D03*
X156912500Y-88000000D03*
D16*
X141250000Y-87137500D03*
X141250000Y-88862500D03*
D10*
X151912500Y-89000000D03*
X150087500Y-89000000D03*
D18*
X152760000Y-111420000D03*
D19*
X155300000Y-111420000D03*
X152760000Y-113960000D03*
X155300000Y-113960000D03*
X152760000Y-116500000D03*
X155300000Y-116500000D03*
D23*
X152600000Y-92900000D03*
D24*
X153700000Y-89500000D03*
X143100000Y-90100000D03*
X142900000Y-98900000D03*
X146300000Y-108000000D03*
X150800000Y-84300000D03*
X146900000Y-84700000D03*
X144400000Y-89800000D03*
X141200000Y-86000000D03*
X156900000Y-86900000D03*
X142700000Y-86000000D03*
X147000000Y-104200000D03*
X142400000Y-111900000D03*
X144500000Y-88500000D03*
X143800000Y-111900000D03*
X145300000Y-111900000D03*
X141100000Y-84700000D03*
X148200000Y-108400000D03*
X157200000Y-90600000D03*
X144800000Y-96900000D03*
X152400000Y-84300000D03*
X151000000Y-89900000D03*
X142800000Y-96100000D03*
X142800000Y-95300000D03*
X147000000Y-89800000D03*
X142950000Y-97750000D03*
X141200000Y-90900000D03*
X149500000Y-93600000D03*
X156675000Y-108525000D03*
X143300000Y-101800000D03*
X149750000Y-108182820D03*
X150300000Y-94100000D03*
X143500000Y-102600000D03*
X152800000Y-108300000D03*
X154000000Y-108300000D03*
X148500000Y-102800000D03*
X143000000Y-100200000D03*
X151100000Y-94700000D03*
X145500000Y-105200000D03*
X151500000Y-108000000D03*
M02*
