G04 #@! TF.GenerationSoftware,KiCad,Pcbnew,8.0.3*
G04 #@! TF.CreationDate,2024-06-18T14:47:19-04:00*
G04 #@! TF.ProjectId,SoarerMax,536f6172-6572-44d6-9178-2e6b69636164,rev?*
G04 #@! TF.SameCoordinates,Original*
G04 #@! TF.FileFunction,Copper,L5,Inr*
G04 #@! TF.FilePolarity,Positive*
%FSLAX46Y46*%
G04 Gerber Fmt 4.6, Leading zero omitted, Abs format (unit mm)*
G04 Created by KiCad (PCBNEW 8.0.3) date 2024-06-18 14:47:19*
%MOMM*%
%LPD*%
G01*
G04 APERTURE LIST*
G04 #@! TA.AperFunction,ComponentPad*
%ADD10C,0.700000*%
G04 #@! TD*
G04 #@! TA.AperFunction,ComponentPad*
%ADD11O,0.900000X2.400000*%
G04 #@! TD*
G04 #@! TA.AperFunction,ComponentPad*
%ADD12O,0.900000X1.700000*%
G04 #@! TD*
G04 #@! TA.AperFunction,ComponentPad*
%ADD13R,1.700000X1.700000*%
G04 #@! TD*
G04 #@! TA.AperFunction,ComponentPad*
%ADD14O,1.700000X1.700000*%
G04 #@! TD*
G04 #@! TA.AperFunction,ViaPad*
%ADD15C,0.600000*%
G04 #@! TD*
G04 #@! TA.AperFunction,ViaPad*
%ADD16C,0.500000*%
G04 #@! TD*
G04 APERTURE END LIST*
D10*
X151975000Y-87025000D03*
X151125000Y-87025000D03*
X150275000Y-87025000D03*
X149425000Y-87025000D03*
X148575000Y-87025000D03*
X147725000Y-87025000D03*
X146875000Y-87025000D03*
X146025000Y-87025000D03*
X146025000Y-85675000D03*
X146875000Y-85675000D03*
X147725000Y-85675000D03*
X148575000Y-85675000D03*
X149425000Y-85675000D03*
X150275000Y-85675000D03*
X151125000Y-85675000D03*
X151975000Y-85675000D03*
D11*
X153325000Y-86045000D03*
D12*
X153325000Y-82665000D03*
D11*
X144675000Y-86045000D03*
D12*
X144675000Y-82665000D03*
D13*
X143500000Y-116500000D03*
D14*
X143500000Y-113960000D03*
X146040000Y-116500000D03*
X146040000Y-113960000D03*
X148580000Y-116500000D03*
X148580000Y-113960000D03*
D13*
X152760000Y-111420000D03*
D14*
X155300000Y-111420000D03*
X152760000Y-113960000D03*
X155300000Y-113960000D03*
X152760000Y-116500000D03*
X155300000Y-116500000D03*
D15*
X152600000Y-92900000D03*
D16*
X153700000Y-89500000D03*
X143100000Y-90100000D03*
X142900000Y-98900000D03*
X146300000Y-108000000D03*
X150800000Y-84300000D03*
X146900000Y-84700000D03*
X144400000Y-89800000D03*
X141200000Y-86000000D03*
X156900000Y-86900000D03*
X142700000Y-86000000D03*
X147000000Y-104200000D03*
X142400000Y-111900000D03*
X144500000Y-88500000D03*
X143800000Y-111900000D03*
X145300000Y-111900000D03*
X141100000Y-84700000D03*
X148200000Y-108400000D03*
X157200000Y-90600000D03*
X144800000Y-96900000D03*
X152400000Y-84300000D03*
X151000000Y-89900000D03*
X142800000Y-96100000D03*
X142800000Y-95300000D03*
X147000000Y-89800000D03*
X142950000Y-97750000D03*
X141200000Y-90900000D03*
X149500000Y-93600000D03*
X156675000Y-108525000D03*
X143300000Y-101800000D03*
X149750000Y-108182820D03*
X150300000Y-94100000D03*
X143500000Y-102600000D03*
X152800000Y-108300000D03*
X154000000Y-108300000D03*
X148500000Y-102800000D03*
X143000000Y-100200000D03*
X151100000Y-94700000D03*
X145500000Y-105200000D03*
X151500000Y-108000000D03*
G04 #@! TA.AperFunction,Conductor*
G36*
X143878318Y-81520185D02*
G01*
X143924073Y-81572989D01*
X143934017Y-81642147D01*
X143914381Y-81693391D01*
X143833124Y-81814999D01*
X143833119Y-81815008D01*
X143761508Y-81987894D01*
X143761506Y-81987902D01*
X143725000Y-82171428D01*
X143725000Y-82415000D01*
X144375000Y-82415000D01*
X144375000Y-82915000D01*
X143725000Y-82915000D01*
X143725000Y-83158571D01*
X143761506Y-83342097D01*
X143761508Y-83342105D01*
X143833119Y-83514991D01*
X143833124Y-83515000D01*
X143937086Y-83670589D01*
X143937089Y-83670593D01*
X144069406Y-83802910D01*
X144069410Y-83802913D01*
X144224999Y-83906875D01*
X144225012Y-83906882D01*
X144397889Y-83978489D01*
X144397896Y-83978491D01*
X144425000Y-83983882D01*
X144425000Y-83231988D01*
X144434940Y-83249205D01*
X144490795Y-83305060D01*
X144559204Y-83344556D01*
X144635504Y-83365000D01*
X144714496Y-83365000D01*
X144790796Y-83344556D01*
X144859205Y-83305060D01*
X144915060Y-83249205D01*
X144925000Y-83231988D01*
X144925000Y-83983881D01*
X144952103Y-83978491D01*
X144952110Y-83978489D01*
X145124987Y-83906882D01*
X145125000Y-83906875D01*
X145280589Y-83802913D01*
X145280593Y-83802910D01*
X145412910Y-83670593D01*
X145412913Y-83670589D01*
X145516875Y-83515000D01*
X145516880Y-83514991D01*
X145588491Y-83342105D01*
X145588493Y-83342097D01*
X145624999Y-83158571D01*
X145625000Y-83158569D01*
X145625000Y-82915000D01*
X144975000Y-82915000D01*
X144975000Y-82415000D01*
X145625000Y-82415000D01*
X145625000Y-82171430D01*
X145624999Y-82171428D01*
X145588493Y-81987902D01*
X145588491Y-81987894D01*
X145516880Y-81815008D01*
X145516875Y-81814999D01*
X145435619Y-81693391D01*
X145414741Y-81626713D01*
X145433226Y-81559333D01*
X145485204Y-81512643D01*
X145538721Y-81500500D01*
X152461279Y-81500500D01*
X152528318Y-81520185D01*
X152574073Y-81572989D01*
X152584017Y-81642147D01*
X152564381Y-81693391D01*
X152483124Y-81814999D01*
X152483119Y-81815008D01*
X152411508Y-81987894D01*
X152411506Y-81987902D01*
X152375000Y-82171428D01*
X152375000Y-82415000D01*
X153025000Y-82415000D01*
X153025000Y-82915000D01*
X152375000Y-82915000D01*
X152375000Y-83158571D01*
X152411506Y-83342097D01*
X152411508Y-83342105D01*
X152483119Y-83514991D01*
X152483124Y-83515000D01*
X152587086Y-83670589D01*
X152587089Y-83670593D01*
X152719406Y-83802910D01*
X152719410Y-83802913D01*
X152874999Y-83906875D01*
X152875012Y-83906882D01*
X153047889Y-83978489D01*
X153047896Y-83978491D01*
X153075000Y-83983882D01*
X153075000Y-83231988D01*
X153084940Y-83249205D01*
X153140795Y-83305060D01*
X153209204Y-83344556D01*
X153285504Y-83365000D01*
X153364496Y-83365000D01*
X153440796Y-83344556D01*
X153509205Y-83305060D01*
X153565060Y-83249205D01*
X153575000Y-83231988D01*
X153575000Y-83983881D01*
X153602103Y-83978491D01*
X153602110Y-83978489D01*
X153774987Y-83906882D01*
X153775000Y-83906875D01*
X153930589Y-83802913D01*
X153930593Y-83802910D01*
X154062910Y-83670593D01*
X154062913Y-83670589D01*
X154166875Y-83515000D01*
X154166880Y-83514991D01*
X154238491Y-83342105D01*
X154238493Y-83342097D01*
X154274999Y-83158571D01*
X154275000Y-83158569D01*
X154275000Y-82915000D01*
X153625000Y-82915000D01*
X153625000Y-82415000D01*
X154275000Y-82415000D01*
X154275000Y-82171430D01*
X154274999Y-82171428D01*
X154238493Y-81987902D01*
X154238491Y-81987894D01*
X154166880Y-81815008D01*
X154166875Y-81814999D01*
X154085619Y-81693391D01*
X154064741Y-81626713D01*
X154083226Y-81559333D01*
X154135204Y-81512643D01*
X154188721Y-81500500D01*
X157375500Y-81500500D01*
X157442539Y-81520185D01*
X157488294Y-81572989D01*
X157499500Y-81624500D01*
X157499500Y-107996141D01*
X157479815Y-108063180D01*
X157427011Y-108108935D01*
X157357853Y-108118879D01*
X157294297Y-108089854D01*
X157270509Y-108062117D01*
X157265479Y-108054113D01*
X157265476Y-108054109D01*
X157145890Y-107934523D01*
X157145884Y-107934518D01*
X157002697Y-107844547D01*
X157002694Y-107844545D01*
X156843056Y-107788685D01*
X156675003Y-107769751D01*
X156674997Y-107769751D01*
X156506943Y-107788685D01*
X156347305Y-107844545D01*
X156347302Y-107844547D01*
X156204115Y-107934518D01*
X156204109Y-107934523D01*
X156084523Y-108054109D01*
X156084518Y-108054115D01*
X155994547Y-108197302D01*
X155994545Y-108197305D01*
X155938685Y-108356943D01*
X155919751Y-108524997D01*
X155919751Y-108525002D01*
X155938685Y-108693056D01*
X155994545Y-108852694D01*
X155994547Y-108852697D01*
X156084518Y-108995884D01*
X156084523Y-108995890D01*
X156204109Y-109115476D01*
X156204115Y-109115481D01*
X156347302Y-109205452D01*
X156347305Y-109205454D01*
X156347309Y-109205455D01*
X156347310Y-109205456D01*
X156419913Y-109230860D01*
X156506943Y-109261314D01*
X156674997Y-109280249D01*
X156675000Y-109280249D01*
X156675003Y-109280249D01*
X156843056Y-109261314D01*
X156843059Y-109261313D01*
X157002690Y-109205456D01*
X157002692Y-109205454D01*
X157002694Y-109205454D01*
X157002697Y-109205452D01*
X157145884Y-109115481D01*
X157145885Y-109115480D01*
X157145890Y-109115477D01*
X157265477Y-108995890D01*
X157270506Y-108987885D01*
X157322841Y-108941595D01*
X157391895Y-108930947D01*
X157455743Y-108959322D01*
X157494115Y-109017712D01*
X157499500Y-109053858D01*
X157499500Y-118375500D01*
X157479815Y-118442539D01*
X157427011Y-118488294D01*
X157375500Y-118499500D01*
X140624500Y-118499500D01*
X140557461Y-118479815D01*
X140511706Y-118427011D01*
X140500500Y-118375500D01*
X140500500Y-113959999D01*
X142144341Y-113959999D01*
X142144341Y-113960000D01*
X142164936Y-114195403D01*
X142164938Y-114195413D01*
X142226094Y-114423655D01*
X142226096Y-114423659D01*
X142226097Y-114423663D01*
X142230000Y-114432032D01*
X142325965Y-114637830D01*
X142325967Y-114637834D01*
X142434281Y-114792521D01*
X142461501Y-114831396D01*
X142461506Y-114831402D01*
X142583430Y-114953326D01*
X142616915Y-115014649D01*
X142611931Y-115084341D01*
X142570059Y-115140274D01*
X142539083Y-115157189D01*
X142407669Y-115206203D01*
X142407664Y-115206206D01*
X142292455Y-115292452D01*
X142292452Y-115292455D01*
X142206206Y-115407664D01*
X142206202Y-115407671D01*
X142155908Y-115542517D01*
X142149501Y-115602116D01*
X142149500Y-115602135D01*
X142149500Y-117397870D01*
X142149501Y-117397876D01*
X142155908Y-117457483D01*
X142206202Y-117592328D01*
X142206206Y-117592335D01*
X142292452Y-117707544D01*
X142292455Y-117707547D01*
X142407664Y-117793793D01*
X142407671Y-117793797D01*
X142542517Y-117844091D01*
X142542516Y-117844091D01*
X142549444Y-117844835D01*
X142602127Y-117850500D01*
X144397872Y-117850499D01*
X144457483Y-117844091D01*
X144592331Y-117793796D01*
X144707546Y-117707546D01*
X144793796Y-117592331D01*
X144842810Y-117460916D01*
X144884681Y-117404984D01*
X144950145Y-117380566D01*
X145018418Y-117395417D01*
X145046673Y-117416569D01*
X145168599Y-117538495D01*
X145265384Y-117606265D01*
X145362165Y-117674032D01*
X145362167Y-117674033D01*
X145362170Y-117674035D01*
X145576337Y-117773903D01*
X145804592Y-117835063D01*
X145981034Y-117850500D01*
X146039999Y-117855659D01*
X146040000Y-117855659D01*
X146040001Y-117855659D01*
X146098966Y-117850500D01*
X146275408Y-117835063D01*
X146503663Y-117773903D01*
X146717830Y-117674035D01*
X146911401Y-117538495D01*
X147078495Y-117371401D01*
X147208425Y-117185842D01*
X147263002Y-117142217D01*
X147332500Y-117135023D01*
X147394855Y-117166546D01*
X147411575Y-117185842D01*
X147541500Y-117371395D01*
X147541505Y-117371401D01*
X147708599Y-117538495D01*
X147805384Y-117606265D01*
X147902165Y-117674032D01*
X147902167Y-117674033D01*
X147902170Y-117674035D01*
X148116337Y-117773903D01*
X148344592Y-117835063D01*
X148521034Y-117850500D01*
X148579999Y-117855659D01*
X148580000Y-117855659D01*
X148580001Y-117855659D01*
X148638966Y-117850500D01*
X148815408Y-117835063D01*
X149043663Y-117773903D01*
X149257830Y-117674035D01*
X149451401Y-117538495D01*
X149618495Y-117371401D01*
X149754035Y-117177830D01*
X149853903Y-116963663D01*
X149915063Y-116735408D01*
X149935659Y-116500000D01*
X149915063Y-116264592D01*
X149853903Y-116036337D01*
X149754035Y-115822171D01*
X149748731Y-115814595D01*
X149618494Y-115628597D01*
X149451402Y-115461506D01*
X149451396Y-115461501D01*
X149265842Y-115331575D01*
X149222217Y-115276998D01*
X149215023Y-115207500D01*
X149246546Y-115145145D01*
X149265842Y-115128425D01*
X149378054Y-115049853D01*
X149451401Y-114998495D01*
X149618495Y-114831401D01*
X149754035Y-114637830D01*
X149853903Y-114423663D01*
X149915063Y-114195408D01*
X149935659Y-113960000D01*
X149935659Y-113959999D01*
X151404341Y-113959999D01*
X151404341Y-113960000D01*
X151424936Y-114195403D01*
X151424938Y-114195413D01*
X151486094Y-114423655D01*
X151486096Y-114423659D01*
X151486097Y-114423663D01*
X151490000Y-114432032D01*
X151585965Y-114637830D01*
X151585967Y-114637834D01*
X151694281Y-114792521D01*
X151721501Y-114831396D01*
X151721506Y-114831402D01*
X151888597Y-114998493D01*
X151888603Y-114998498D01*
X152074158Y-115128425D01*
X152117783Y-115183002D01*
X152124977Y-115252500D01*
X152093454Y-115314855D01*
X152074158Y-115331575D01*
X151888597Y-115461505D01*
X151721505Y-115628597D01*
X151585965Y-115822169D01*
X151585964Y-115822171D01*
X151486098Y-116036335D01*
X151486094Y-116036344D01*
X151424938Y-116264586D01*
X151424936Y-116264596D01*
X151404341Y-116499999D01*
X151404341Y-116500000D01*
X151424936Y-116735403D01*
X151424938Y-116735413D01*
X151486094Y-116963655D01*
X151486096Y-116963659D01*
X151486097Y-116963663D01*
X151566004Y-117135023D01*
X151585965Y-117177830D01*
X151585967Y-117177834D01*
X151694281Y-117332521D01*
X151721505Y-117371401D01*
X151888599Y-117538495D01*
X151985384Y-117606265D01*
X152082165Y-117674032D01*
X152082167Y-117674033D01*
X152082170Y-117674035D01*
X152296337Y-117773903D01*
X152524592Y-117835063D01*
X152701034Y-117850500D01*
X152759999Y-117855659D01*
X152760000Y-117855659D01*
X152760001Y-117855659D01*
X152818966Y-117850500D01*
X152995408Y-117835063D01*
X153223663Y-117773903D01*
X153437830Y-117674035D01*
X153631401Y-117538495D01*
X153798495Y-117371401D01*
X153928730Y-117185405D01*
X153983307Y-117141781D01*
X154052805Y-117134587D01*
X154115160Y-117166110D01*
X154131879Y-117185405D01*
X154261890Y-117371078D01*
X154428917Y-117538105D01*
X154622421Y-117673600D01*
X154836507Y-117773429D01*
X154836516Y-117773433D01*
X155050000Y-117830634D01*
X155050000Y-116933012D01*
X155107007Y-116965925D01*
X155234174Y-117000000D01*
X155365826Y-117000000D01*
X155492993Y-116965925D01*
X155550000Y-116933012D01*
X155550000Y-117830633D01*
X155763483Y-117773433D01*
X155763492Y-117773429D01*
X155977578Y-117673600D01*
X156171082Y-117538105D01*
X156338105Y-117371082D01*
X156473600Y-117177578D01*
X156573429Y-116963492D01*
X156573432Y-116963486D01*
X156630636Y-116750000D01*
X155733012Y-116750000D01*
X155765925Y-116692993D01*
X155800000Y-116565826D01*
X155800000Y-116434174D01*
X155765925Y-116307007D01*
X155733012Y-116250000D01*
X156630636Y-116250000D01*
X156630635Y-116249999D01*
X156573432Y-116036513D01*
X156573429Y-116036507D01*
X156473600Y-115822422D01*
X156473599Y-115822420D01*
X156338113Y-115628926D01*
X156338108Y-115628920D01*
X156171078Y-115461890D01*
X155985405Y-115331879D01*
X155941780Y-115277302D01*
X155934588Y-115207804D01*
X155966110Y-115145449D01*
X155985406Y-115128730D01*
X155985842Y-115128425D01*
X156171401Y-114998495D01*
X156338495Y-114831401D01*
X156474035Y-114637830D01*
X156573903Y-114423663D01*
X156635063Y-114195408D01*
X156655659Y-113960000D01*
X156635063Y-113724592D01*
X156573903Y-113496337D01*
X156474035Y-113282171D01*
X156468425Y-113274158D01*
X156338494Y-113088597D01*
X156171402Y-112921506D01*
X156171396Y-112921501D01*
X155985842Y-112791575D01*
X155942217Y-112736998D01*
X155935023Y-112667500D01*
X155966546Y-112605145D01*
X155985842Y-112588425D01*
X156008026Y-112572891D01*
X156171401Y-112458495D01*
X156338495Y-112291401D01*
X156474035Y-112097830D01*
X156573903Y-111883663D01*
X156635063Y-111655408D01*
X156655659Y-111420000D01*
X156635063Y-111184592D01*
X156573903Y-110956337D01*
X156474035Y-110742171D01*
X156338495Y-110548599D01*
X156338494Y-110548597D01*
X156171402Y-110381506D01*
X156171395Y-110381501D01*
X155977834Y-110245967D01*
X155977830Y-110245965D01*
X155977828Y-110245964D01*
X155763663Y-110146097D01*
X155763659Y-110146096D01*
X155763655Y-110146094D01*
X155535413Y-110084938D01*
X155535403Y-110084936D01*
X155300001Y-110064341D01*
X155299999Y-110064341D01*
X155064596Y-110084936D01*
X155064586Y-110084938D01*
X154836344Y-110146094D01*
X154836335Y-110146098D01*
X154622171Y-110245964D01*
X154622169Y-110245965D01*
X154428600Y-110381503D01*
X154306673Y-110503430D01*
X154245350Y-110536914D01*
X154175658Y-110531930D01*
X154119725Y-110490058D01*
X154102810Y-110459081D01*
X154053797Y-110327671D01*
X154053793Y-110327664D01*
X153967547Y-110212455D01*
X153967544Y-110212452D01*
X153852335Y-110126206D01*
X153852328Y-110126202D01*
X153717482Y-110075908D01*
X153717483Y-110075908D01*
X153657883Y-110069501D01*
X153657881Y-110069500D01*
X153657873Y-110069500D01*
X153657864Y-110069500D01*
X151862129Y-110069500D01*
X151862123Y-110069501D01*
X151802516Y-110075908D01*
X151667671Y-110126202D01*
X151667664Y-110126206D01*
X151552455Y-110212452D01*
X151552452Y-110212455D01*
X151466206Y-110327664D01*
X151466202Y-110327671D01*
X151415908Y-110462517D01*
X151409501Y-110522116D01*
X151409500Y-110522135D01*
X151409500Y-112317870D01*
X151409501Y-112317876D01*
X151415908Y-112377483D01*
X151466202Y-112512328D01*
X151466206Y-112512335D01*
X151552452Y-112627544D01*
X151552455Y-112627547D01*
X151667664Y-112713793D01*
X151667671Y-112713797D01*
X151799081Y-112762810D01*
X151855015Y-112804681D01*
X151879432Y-112870145D01*
X151864580Y-112938418D01*
X151843430Y-112966673D01*
X151721503Y-113088600D01*
X151585965Y-113282169D01*
X151585964Y-113282171D01*
X151486098Y-113496335D01*
X151486094Y-113496344D01*
X151424938Y-113724586D01*
X151424936Y-113724596D01*
X151404341Y-113959999D01*
X149935659Y-113959999D01*
X149915063Y-113724592D01*
X149853903Y-113496337D01*
X149754035Y-113282171D01*
X149748425Y-113274158D01*
X149618494Y-113088597D01*
X149451402Y-112921506D01*
X149451395Y-112921501D01*
X149257834Y-112785967D01*
X149257830Y-112785965D01*
X149244448Y-112779725D01*
X149043663Y-112686097D01*
X149043659Y-112686096D01*
X149043655Y-112686094D01*
X148815413Y-112624938D01*
X148815403Y-112624936D01*
X148580001Y-112604341D01*
X148579999Y-112604341D01*
X148344596Y-112624936D01*
X148344586Y-112624938D01*
X148116344Y-112686094D01*
X148116335Y-112686098D01*
X147902171Y-112785964D01*
X147902169Y-112785965D01*
X147708597Y-112921505D01*
X147541505Y-113088597D01*
X147411575Y-113274158D01*
X147356998Y-113317783D01*
X147287500Y-113324977D01*
X147225145Y-113293454D01*
X147208425Y-113274158D01*
X147078494Y-113088597D01*
X146911402Y-112921506D01*
X146911395Y-112921501D01*
X146717834Y-112785967D01*
X146717830Y-112785965D01*
X146704448Y-112779725D01*
X146503663Y-112686097D01*
X146503659Y-112686096D01*
X146503655Y-112686094D01*
X146275413Y-112624938D01*
X146275403Y-112624936D01*
X146040001Y-112604341D01*
X146039999Y-112604341D01*
X145804596Y-112624936D01*
X145804586Y-112624938D01*
X145576344Y-112686094D01*
X145576335Y-112686098D01*
X145362171Y-112785964D01*
X145362169Y-112785965D01*
X145168597Y-112921505D01*
X145001505Y-113088597D01*
X144871575Y-113274158D01*
X144816998Y-113317783D01*
X144747500Y-113324977D01*
X144685145Y-113293454D01*
X144668425Y-113274158D01*
X144538494Y-113088597D01*
X144371402Y-112921506D01*
X144371395Y-112921501D01*
X144177834Y-112785967D01*
X144177830Y-112785965D01*
X144164448Y-112779725D01*
X143963663Y-112686097D01*
X143963659Y-112686096D01*
X143963655Y-112686094D01*
X143735413Y-112624938D01*
X143735403Y-112624936D01*
X143500001Y-112604341D01*
X143499999Y-112604341D01*
X143264596Y-112624936D01*
X143264586Y-112624938D01*
X143036344Y-112686094D01*
X143036335Y-112686098D01*
X142822171Y-112785964D01*
X142822169Y-112785965D01*
X142628597Y-112921505D01*
X142461505Y-113088597D01*
X142325965Y-113282169D01*
X142325964Y-113282171D01*
X142226098Y-113496335D01*
X142226094Y-113496344D01*
X142164938Y-113724586D01*
X142164936Y-113724596D01*
X142144341Y-113959999D01*
X140500500Y-113959999D01*
X140500500Y-107999997D01*
X145544751Y-107999997D01*
X145544751Y-108000002D01*
X145563685Y-108168056D01*
X145619545Y-108327694D01*
X145619547Y-108327697D01*
X145709518Y-108470884D01*
X145709523Y-108470890D01*
X145829109Y-108590476D01*
X145829115Y-108590481D01*
X145972302Y-108680452D01*
X145972305Y-108680454D01*
X145972309Y-108680455D01*
X145972310Y-108680456D01*
X146044913Y-108705860D01*
X146131943Y-108736314D01*
X146299997Y-108755249D01*
X146300000Y-108755249D01*
X146300003Y-108755249D01*
X146468056Y-108736314D01*
X146468059Y-108736313D01*
X146627690Y-108680456D01*
X146627692Y-108680454D01*
X146627694Y-108680454D01*
X146627697Y-108680452D01*
X146770884Y-108590481D01*
X146770885Y-108590480D01*
X146770890Y-108590477D01*
X146890477Y-108470890D01*
X146962075Y-108356943D01*
X146980452Y-108327697D01*
X146980454Y-108327694D01*
X146980454Y-108327692D01*
X146980456Y-108327690D01*
X147031149Y-108182817D01*
X148994751Y-108182817D01*
X148994751Y-108182822D01*
X149013685Y-108350876D01*
X149069545Y-108510514D01*
X149069547Y-108510517D01*
X149159518Y-108653704D01*
X149159523Y-108653710D01*
X149279109Y-108773296D01*
X149279115Y-108773301D01*
X149422302Y-108863272D01*
X149422305Y-108863274D01*
X149422309Y-108863275D01*
X149422310Y-108863276D01*
X149494913Y-108888680D01*
X149581943Y-108919134D01*
X149749997Y-108938069D01*
X149750000Y-108938069D01*
X149750003Y-108938069D01*
X149918056Y-108919134D01*
X149918059Y-108919133D01*
X150077690Y-108863276D01*
X150077692Y-108863274D01*
X150077694Y-108863274D01*
X150077697Y-108863272D01*
X150220884Y-108773301D01*
X150220885Y-108773300D01*
X150220890Y-108773297D01*
X150340477Y-108653710D01*
X150356827Y-108627690D01*
X150430452Y-108510517D01*
X150430454Y-108510514D01*
X150430454Y-108510512D01*
X150430456Y-108510510D01*
X150486313Y-108350879D01*
X150486313Y-108350878D01*
X150486314Y-108350876D01*
X150505249Y-108182822D01*
X150505249Y-108182817D01*
X150486314Y-108014763D01*
X150481147Y-107999997D01*
X150744751Y-107999997D01*
X150744751Y-108000002D01*
X150763685Y-108168056D01*
X150819545Y-108327694D01*
X150819547Y-108327697D01*
X150909518Y-108470884D01*
X150909523Y-108470890D01*
X151029109Y-108590476D01*
X151029115Y-108590481D01*
X151172302Y-108680452D01*
X151172305Y-108680454D01*
X151172309Y-108680455D01*
X151172310Y-108680456D01*
X151244913Y-108705860D01*
X151331943Y-108736314D01*
X151499997Y-108755249D01*
X151500000Y-108755249D01*
X151500003Y-108755249D01*
X151668056Y-108736314D01*
X151668059Y-108736313D01*
X151827690Y-108680456D01*
X151955707Y-108600016D01*
X152022944Y-108581016D01*
X152089779Y-108601383D01*
X152126673Y-108639037D01*
X152209521Y-108770888D01*
X152329109Y-108890476D01*
X152329115Y-108890481D01*
X152472302Y-108980452D01*
X152472305Y-108980454D01*
X152472309Y-108980455D01*
X152472310Y-108980456D01*
X152493544Y-108987886D01*
X152631943Y-109036314D01*
X152799997Y-109055249D01*
X152800000Y-109055249D01*
X152800003Y-109055249D01*
X152968056Y-109036314D01*
X152968059Y-109036313D01*
X153127690Y-108980456D01*
X153127692Y-108980454D01*
X153127694Y-108980454D01*
X153127697Y-108980452D01*
X153270884Y-108890481D01*
X153270885Y-108890480D01*
X153270890Y-108890477D01*
X153312319Y-108849048D01*
X153373642Y-108815563D01*
X153443334Y-108820547D01*
X153487681Y-108849048D01*
X153529109Y-108890476D01*
X153529115Y-108890481D01*
X153672302Y-108980452D01*
X153672305Y-108980454D01*
X153672309Y-108980455D01*
X153672310Y-108980456D01*
X153693544Y-108987886D01*
X153831943Y-109036314D01*
X153999997Y-109055249D01*
X154000000Y-109055249D01*
X154000003Y-109055249D01*
X154168056Y-109036314D01*
X154168059Y-109036313D01*
X154327690Y-108980456D01*
X154327692Y-108980454D01*
X154327694Y-108980454D01*
X154327697Y-108980452D01*
X154470884Y-108890481D01*
X154470885Y-108890480D01*
X154470890Y-108890477D01*
X154590477Y-108770890D01*
X154612203Y-108736314D01*
X154680452Y-108627697D01*
X154680454Y-108627694D01*
X154680454Y-108627692D01*
X154680456Y-108627690D01*
X154736313Y-108468059D01*
X154736313Y-108468058D01*
X154736314Y-108468056D01*
X154755249Y-108300002D01*
X154755249Y-108299997D01*
X154736314Y-108131943D01*
X154680454Y-107972305D01*
X154680452Y-107972302D01*
X154590481Y-107829115D01*
X154590476Y-107829109D01*
X154470890Y-107709523D01*
X154470884Y-107709518D01*
X154327697Y-107619547D01*
X154327694Y-107619545D01*
X154168056Y-107563685D01*
X154000003Y-107544751D01*
X153999997Y-107544751D01*
X153831943Y-107563685D01*
X153672305Y-107619545D01*
X153672302Y-107619547D01*
X153529115Y-107709518D01*
X153529108Y-107709524D01*
X153487680Y-107750952D01*
X153426357Y-107784436D01*
X153356665Y-107779451D01*
X153312320Y-107750952D01*
X153270891Y-107709524D01*
X153270884Y-107709518D01*
X153127697Y-107619547D01*
X153127694Y-107619545D01*
X152968056Y-107563685D01*
X152800003Y-107544751D01*
X152799997Y-107544751D01*
X152631943Y-107563685D01*
X152472307Y-107619545D01*
X152344291Y-107699983D01*
X152277054Y-107718983D01*
X152210219Y-107698615D01*
X152173325Y-107660961D01*
X152090476Y-107529109D01*
X151970890Y-107409523D01*
X151970884Y-107409518D01*
X151827697Y-107319547D01*
X151827694Y-107319545D01*
X151668056Y-107263685D01*
X151500003Y-107244751D01*
X151499997Y-107244751D01*
X151331943Y-107263685D01*
X151172305Y-107319545D01*
X151172302Y-107319547D01*
X151029115Y-107409518D01*
X151029109Y-107409523D01*
X150909523Y-107529109D01*
X150909518Y-107529115D01*
X150819547Y-107672302D01*
X150819545Y-107672305D01*
X150763685Y-107831943D01*
X150744751Y-107999997D01*
X150481147Y-107999997D01*
X150430454Y-107855125D01*
X150430452Y-107855122D01*
X150340481Y-107711935D01*
X150340476Y-107711929D01*
X150220890Y-107592343D01*
X150220884Y-107592338D01*
X150077697Y-107502367D01*
X150077694Y-107502365D01*
X149918056Y-107446505D01*
X149750003Y-107427571D01*
X149749997Y-107427571D01*
X149581943Y-107446505D01*
X149422305Y-107502365D01*
X149422302Y-107502367D01*
X149279115Y-107592338D01*
X149279109Y-107592343D01*
X149159523Y-107711929D01*
X149159518Y-107711935D01*
X149069547Y-107855122D01*
X149069545Y-107855125D01*
X149013685Y-108014763D01*
X148994751Y-108182817D01*
X147031149Y-108182817D01*
X147036313Y-108168059D01*
X147036313Y-108168058D01*
X147036314Y-108168056D01*
X147055249Y-108000002D01*
X147055249Y-107999997D01*
X147036314Y-107831943D01*
X147005860Y-107744913D01*
X146980456Y-107672310D01*
X146980455Y-107672309D01*
X146980454Y-107672305D01*
X146980452Y-107672302D01*
X146890481Y-107529115D01*
X146890476Y-107529109D01*
X146770890Y-107409523D01*
X146770884Y-107409518D01*
X146627697Y-107319547D01*
X146627694Y-107319545D01*
X146468056Y-107263685D01*
X146300003Y-107244751D01*
X146299997Y-107244751D01*
X146131943Y-107263685D01*
X145972305Y-107319545D01*
X145972302Y-107319547D01*
X145829115Y-107409518D01*
X145829109Y-107409523D01*
X145709523Y-107529109D01*
X145709518Y-107529115D01*
X145619547Y-107672302D01*
X145619545Y-107672305D01*
X145563685Y-107831943D01*
X145544751Y-107999997D01*
X140500500Y-107999997D01*
X140500500Y-105199997D01*
X144744751Y-105199997D01*
X144744751Y-105200002D01*
X144763685Y-105368056D01*
X144819545Y-105527694D01*
X144819547Y-105527697D01*
X144909518Y-105670884D01*
X144909523Y-105670890D01*
X145029109Y-105790476D01*
X145029115Y-105790481D01*
X145172302Y-105880452D01*
X145172305Y-105880454D01*
X145172309Y-105880455D01*
X145172310Y-105880456D01*
X145244913Y-105905860D01*
X145331943Y-105936314D01*
X145499997Y-105955249D01*
X145500000Y-105955249D01*
X145500003Y-105955249D01*
X145668056Y-105936314D01*
X145668059Y-105936313D01*
X145827690Y-105880456D01*
X145827692Y-105880454D01*
X145827694Y-105880454D01*
X145827697Y-105880452D01*
X145970884Y-105790481D01*
X145970885Y-105790480D01*
X145970890Y-105790477D01*
X146090477Y-105670890D01*
X146180452Y-105527697D01*
X146180454Y-105527694D01*
X146180454Y-105527692D01*
X146180456Y-105527690D01*
X146236313Y-105368059D01*
X146236313Y-105368058D01*
X146236314Y-105368056D01*
X146255249Y-105200002D01*
X146255249Y-105199997D01*
X146236314Y-105031943D01*
X146180454Y-104872305D01*
X146180452Y-104872302D01*
X146090481Y-104729115D01*
X146090476Y-104729109D01*
X145970890Y-104609523D01*
X145970884Y-104609518D01*
X145827697Y-104519547D01*
X145827694Y-104519545D01*
X145668056Y-104463685D01*
X145500003Y-104444751D01*
X145499997Y-104444751D01*
X145331943Y-104463685D01*
X145172305Y-104519545D01*
X145172302Y-104519547D01*
X145029115Y-104609518D01*
X145029109Y-104609523D01*
X144909523Y-104729109D01*
X144909518Y-104729115D01*
X144819547Y-104872302D01*
X144819545Y-104872305D01*
X144763685Y-105031943D01*
X144744751Y-105199997D01*
X140500500Y-105199997D01*
X140500500Y-95299997D01*
X142044751Y-95299997D01*
X142044751Y-95300002D01*
X142063685Y-95468056D01*
X142096853Y-95562844D01*
X142119544Y-95627690D01*
X142119545Y-95627691D01*
X142123529Y-95634033D01*
X142142525Y-95701270D01*
X142123529Y-95765967D01*
X142123523Y-95765977D01*
X142119544Y-95772310D01*
X142109067Y-95802250D01*
X142063685Y-95931943D01*
X142044751Y-96099997D01*
X142044751Y-96100002D01*
X142063685Y-96268056D01*
X142119545Y-96427694D01*
X142119547Y-96427697D01*
X142209518Y-96570884D01*
X142209523Y-96570890D01*
X142329109Y-96690476D01*
X142329115Y-96690481D01*
X142472302Y-96780452D01*
X142472308Y-96780455D01*
X142472310Y-96780456D01*
X142625906Y-96834201D01*
X142682682Y-96874923D01*
X142708430Y-96939875D01*
X142694974Y-97008437D01*
X142646587Y-97058840D01*
X142625914Y-97068282D01*
X142622313Y-97069542D01*
X142622302Y-97069547D01*
X142479115Y-97159518D01*
X142479109Y-97159523D01*
X142359523Y-97279109D01*
X142359518Y-97279115D01*
X142269547Y-97422302D01*
X142269545Y-97422305D01*
X142213685Y-97581943D01*
X142194751Y-97749997D01*
X142194751Y-97750002D01*
X142213685Y-97918056D01*
X142269545Y-98077694D01*
X142269547Y-98077697D01*
X142359520Y-98220886D01*
X142360632Y-98222281D01*
X142361069Y-98223351D01*
X142363227Y-98226786D01*
X142362625Y-98227164D01*
X142387037Y-98286969D01*
X142374278Y-98355664D01*
X142351363Y-98387269D01*
X142309524Y-98429108D01*
X142309518Y-98429115D01*
X142219547Y-98572302D01*
X142219545Y-98572305D01*
X142163685Y-98731943D01*
X142144751Y-98899997D01*
X142144751Y-98900002D01*
X142163685Y-99068056D01*
X142219545Y-99227694D01*
X142219547Y-99227697D01*
X142309518Y-99370884D01*
X142309523Y-99370890D01*
X142429110Y-99490477D01*
X142431967Y-99492272D01*
X142433418Y-99493912D01*
X142434556Y-99494820D01*
X142434397Y-99495019D01*
X142478261Y-99544604D01*
X142488913Y-99613657D01*
X142460542Y-99677507D01*
X142453683Y-99684949D01*
X142409524Y-99729108D01*
X142409518Y-99729115D01*
X142319547Y-99872302D01*
X142319545Y-99872305D01*
X142263685Y-100031943D01*
X142244751Y-100199997D01*
X142244751Y-100200002D01*
X142263685Y-100368056D01*
X142319545Y-100527694D01*
X142319547Y-100527697D01*
X142409518Y-100670884D01*
X142409523Y-100670890D01*
X142529109Y-100790476D01*
X142529115Y-100790481D01*
X142672302Y-100880452D01*
X142672305Y-100880454D01*
X142672309Y-100880455D01*
X142672310Y-100880456D01*
X142831941Y-100936313D01*
X142831944Y-100936314D01*
X142846091Y-100937908D01*
X142910505Y-100964974D01*
X142950061Y-101022568D01*
X142952200Y-101092405D01*
X142916242Y-101152312D01*
X142898182Y-101166121D01*
X142829112Y-101209521D01*
X142829109Y-101209523D01*
X142709523Y-101329109D01*
X142709518Y-101329115D01*
X142619547Y-101472302D01*
X142619545Y-101472305D01*
X142563685Y-101631943D01*
X142544751Y-101799997D01*
X142544751Y-101800002D01*
X142563685Y-101968056D01*
X142619545Y-102127694D01*
X142619547Y-102127697D01*
X142709518Y-102270884D01*
X142709523Y-102270890D01*
X142736299Y-102297666D01*
X142769784Y-102358989D01*
X142765661Y-102426297D01*
X142763686Y-102431939D01*
X142763686Y-102431941D01*
X142744751Y-102599997D01*
X142744751Y-102600002D01*
X142763685Y-102768056D01*
X142819545Y-102927694D01*
X142819547Y-102927697D01*
X142909518Y-103070884D01*
X142909523Y-103070890D01*
X143029109Y-103190476D01*
X143029115Y-103190481D01*
X143172302Y-103280452D01*
X143172305Y-103280454D01*
X143172309Y-103280455D01*
X143172310Y-103280456D01*
X143244913Y-103305860D01*
X143331943Y-103336314D01*
X143499997Y-103355249D01*
X143500000Y-103355249D01*
X143500003Y-103355249D01*
X143668056Y-103336314D01*
X143668059Y-103336313D01*
X143827690Y-103280456D01*
X143827692Y-103280454D01*
X143827694Y-103280454D01*
X143827697Y-103280452D01*
X143970884Y-103190481D01*
X143970885Y-103190480D01*
X143970890Y-103190477D01*
X144090477Y-103070890D01*
X144090481Y-103070884D01*
X144180452Y-102927697D01*
X144180454Y-102927694D01*
X144180454Y-102927692D01*
X144180456Y-102927690D01*
X144225137Y-102799997D01*
X147744751Y-102799997D01*
X147744751Y-102800002D01*
X147763685Y-102968056D01*
X147819545Y-103127694D01*
X147819547Y-103127697D01*
X147909518Y-103270884D01*
X147909523Y-103270890D01*
X148029109Y-103390476D01*
X148029115Y-103390481D01*
X148172302Y-103480452D01*
X148172305Y-103480454D01*
X148172309Y-103480455D01*
X148172310Y-103480456D01*
X148244913Y-103505860D01*
X148331943Y-103536314D01*
X148499997Y-103555249D01*
X148500000Y-103555249D01*
X148500003Y-103555249D01*
X148668056Y-103536314D01*
X148668059Y-103536313D01*
X148827690Y-103480456D01*
X148827692Y-103480454D01*
X148827694Y-103480454D01*
X148827697Y-103480452D01*
X148970884Y-103390481D01*
X148970885Y-103390480D01*
X148970890Y-103390477D01*
X149090477Y-103270890D01*
X149180452Y-103127697D01*
X149180454Y-103127694D01*
X149180454Y-103127692D01*
X149180456Y-103127690D01*
X149236313Y-102968059D01*
X149236313Y-102968058D01*
X149236314Y-102968056D01*
X149255249Y-102800002D01*
X149255249Y-102799997D01*
X149236314Y-102631943D01*
X149180454Y-102472305D01*
X149180452Y-102472302D01*
X149090481Y-102329115D01*
X149090476Y-102329109D01*
X148970890Y-102209523D01*
X148970884Y-102209518D01*
X148827697Y-102119547D01*
X148827694Y-102119545D01*
X148668056Y-102063685D01*
X148500003Y-102044751D01*
X148499997Y-102044751D01*
X148331943Y-102063685D01*
X148172305Y-102119545D01*
X148172302Y-102119547D01*
X148029115Y-102209518D01*
X148029109Y-102209523D01*
X147909523Y-102329109D01*
X147909518Y-102329115D01*
X147819547Y-102472302D01*
X147819545Y-102472305D01*
X147763685Y-102631943D01*
X147744751Y-102799997D01*
X144225137Y-102799997D01*
X144236313Y-102768059D01*
X144236313Y-102768058D01*
X144236314Y-102768056D01*
X144255249Y-102600002D01*
X144255249Y-102599997D01*
X144236314Y-102431943D01*
X144180454Y-102272305D01*
X144180452Y-102272302D01*
X144090481Y-102129115D01*
X144090476Y-102129109D01*
X144063700Y-102102333D01*
X144030215Y-102041010D01*
X144034340Y-101973696D01*
X144036313Y-101968059D01*
X144055249Y-101800000D01*
X144055249Y-101799997D01*
X144036314Y-101631943D01*
X143980454Y-101472305D01*
X143980452Y-101472302D01*
X143890481Y-101329115D01*
X143890476Y-101329109D01*
X143770890Y-101209523D01*
X143770884Y-101209518D01*
X143627697Y-101119547D01*
X143627694Y-101119545D01*
X143468056Y-101063686D01*
X143453903Y-101062091D01*
X143389490Y-101035022D01*
X143349936Y-100977426D01*
X143347801Y-100907589D01*
X143383761Y-100847684D01*
X143401815Y-100833879D01*
X143470890Y-100790477D01*
X143590477Y-100670890D01*
X143680452Y-100527697D01*
X143680454Y-100527694D01*
X143680454Y-100527692D01*
X143680456Y-100527690D01*
X143736313Y-100368059D01*
X143736313Y-100368058D01*
X143736314Y-100368056D01*
X143755249Y-100200002D01*
X143755249Y-100199997D01*
X143736314Y-100031943D01*
X143680454Y-99872305D01*
X143680452Y-99872302D01*
X143590481Y-99729115D01*
X143590476Y-99729109D01*
X143470890Y-99609523D01*
X143470888Y-99609522D01*
X143468024Y-99607722D01*
X143466569Y-99606077D01*
X143465444Y-99605180D01*
X143465601Y-99604982D01*
X143421734Y-99555386D01*
X143411088Y-99486332D01*
X143439465Y-99422485D01*
X143446318Y-99415049D01*
X143490477Y-99370890D01*
X143580452Y-99227697D01*
X143580454Y-99227694D01*
X143580454Y-99227692D01*
X143580456Y-99227690D01*
X143636313Y-99068059D01*
X143636313Y-99068058D01*
X143636314Y-99068056D01*
X143655249Y-98900002D01*
X143655249Y-98899997D01*
X143636314Y-98731943D01*
X143580454Y-98572305D01*
X143580452Y-98572302D01*
X143490478Y-98429111D01*
X143489369Y-98427720D01*
X143488932Y-98426650D01*
X143486773Y-98423214D01*
X143487375Y-98422835D01*
X143462962Y-98363032D01*
X143475720Y-98294337D01*
X143498635Y-98262731D01*
X143540477Y-98220890D01*
X143630452Y-98077697D01*
X143630454Y-98077694D01*
X143630454Y-98077692D01*
X143630456Y-98077690D01*
X143686313Y-97918059D01*
X143686313Y-97918058D01*
X143686314Y-97918056D01*
X143705249Y-97750002D01*
X143705249Y-97749997D01*
X143686314Y-97581943D01*
X143630454Y-97422305D01*
X143630452Y-97422302D01*
X143540481Y-97279115D01*
X143540476Y-97279109D01*
X143420890Y-97159523D01*
X143420884Y-97159518D01*
X143277697Y-97069547D01*
X143277694Y-97069545D01*
X143124092Y-97015798D01*
X143067316Y-96975076D01*
X143041569Y-96910123D01*
X143055025Y-96841561D01*
X143103413Y-96791159D01*
X143124093Y-96781714D01*
X143127690Y-96780456D01*
X143127692Y-96780454D01*
X143127694Y-96780454D01*
X143127697Y-96780452D01*
X143270884Y-96690481D01*
X143270885Y-96690480D01*
X143270890Y-96690477D01*
X143390477Y-96570890D01*
X143480452Y-96427697D01*
X143480454Y-96427694D01*
X143480454Y-96427692D01*
X143480456Y-96427690D01*
X143536313Y-96268059D01*
X143536313Y-96268058D01*
X143536314Y-96268056D01*
X143555249Y-96100002D01*
X143555249Y-96099997D01*
X143536313Y-95931942D01*
X143480457Y-95772312D01*
X143480456Y-95772310D01*
X143476475Y-95765975D01*
X143457472Y-95698742D01*
X143476475Y-95634024D01*
X143480456Y-95627690D01*
X143536313Y-95468059D01*
X143555249Y-95300000D01*
X143555249Y-95299997D01*
X143536314Y-95131943D01*
X143480454Y-94972305D01*
X143480452Y-94972302D01*
X143390481Y-94829115D01*
X143390476Y-94829109D01*
X143270890Y-94709523D01*
X143270884Y-94709518D01*
X143127697Y-94619547D01*
X143127694Y-94619545D01*
X142968056Y-94563685D01*
X142800003Y-94544751D01*
X142799997Y-94544751D01*
X142631943Y-94563685D01*
X142472305Y-94619545D01*
X142472302Y-94619547D01*
X142329115Y-94709518D01*
X142329109Y-94709523D01*
X142209523Y-94829109D01*
X142209518Y-94829115D01*
X142119547Y-94972302D01*
X142119545Y-94972305D01*
X142063685Y-95131943D01*
X142044751Y-95299997D01*
X140500500Y-95299997D01*
X140500500Y-93599997D01*
X148744751Y-93599997D01*
X148744751Y-93600002D01*
X148763685Y-93768056D01*
X148819545Y-93927694D01*
X148819547Y-93927697D01*
X148909518Y-94070884D01*
X148909523Y-94070890D01*
X149029109Y-94190476D01*
X149029115Y-94190481D01*
X149172302Y-94280452D01*
X149172305Y-94280454D01*
X149172309Y-94280455D01*
X149172310Y-94280456D01*
X149244913Y-94305860D01*
X149331943Y-94336314D01*
X149499997Y-94355249D01*
X149506744Y-94355249D01*
X149573783Y-94374934D01*
X149615450Y-94422038D01*
X149615840Y-94421794D01*
X149617325Y-94424158D01*
X149618462Y-94425443D01*
X149619542Y-94427686D01*
X149619543Y-94427688D01*
X149619544Y-94427690D01*
X149685050Y-94531941D01*
X149709523Y-94570890D01*
X149829109Y-94690476D01*
X149829115Y-94690481D01*
X149972302Y-94780452D01*
X149972305Y-94780454D01*
X149972309Y-94780455D01*
X149972310Y-94780456D01*
X150111353Y-94829109D01*
X150131944Y-94836314D01*
X150284209Y-94853470D01*
X150348623Y-94880536D01*
X150387368Y-94935735D01*
X150419545Y-95027694D01*
X150419547Y-95027697D01*
X150509518Y-95170884D01*
X150509523Y-95170890D01*
X150629109Y-95290476D01*
X150629115Y-95290481D01*
X150772302Y-95380452D01*
X150772305Y-95380454D01*
X150772309Y-95380455D01*
X150772310Y-95380456D01*
X150844913Y-95405860D01*
X150931943Y-95436314D01*
X151099997Y-95455249D01*
X151100000Y-95455249D01*
X151100003Y-95455249D01*
X151268056Y-95436314D01*
X151268059Y-95436313D01*
X151427690Y-95380456D01*
X151427692Y-95380454D01*
X151427694Y-95380454D01*
X151427697Y-95380452D01*
X151570884Y-95290481D01*
X151570885Y-95290480D01*
X151570890Y-95290477D01*
X151690477Y-95170890D01*
X151714949Y-95131943D01*
X151780452Y-95027697D01*
X151780454Y-95027694D01*
X151780454Y-95027692D01*
X151780456Y-95027690D01*
X151836313Y-94868059D01*
X151836313Y-94868058D01*
X151836314Y-94868056D01*
X151855249Y-94700002D01*
X151855249Y-94699997D01*
X151836314Y-94531943D01*
X151780454Y-94372305D01*
X151780452Y-94372302D01*
X151690481Y-94229115D01*
X151690476Y-94229109D01*
X151570890Y-94109523D01*
X151570884Y-94109518D01*
X151427697Y-94019547D01*
X151427694Y-94019545D01*
X151268055Y-93963685D01*
X151115789Y-93946529D01*
X151051375Y-93919462D01*
X151012632Y-93864264D01*
X150980456Y-93772310D01*
X150980455Y-93772307D01*
X150980452Y-93772302D01*
X150890481Y-93629115D01*
X150890476Y-93629109D01*
X150770890Y-93509523D01*
X150770884Y-93509518D01*
X150627697Y-93419547D01*
X150627694Y-93419545D01*
X150468056Y-93363685D01*
X150300003Y-93344751D01*
X150293256Y-93344751D01*
X150226217Y-93325066D01*
X150184552Y-93277960D01*
X150184162Y-93278206D01*
X150182672Y-93275834D01*
X150181533Y-93274547D01*
X150180451Y-93272300D01*
X150090481Y-93129115D01*
X150090476Y-93129109D01*
X149970890Y-93009523D01*
X149970884Y-93009518D01*
X149827697Y-92919547D01*
X149827694Y-92919545D01*
X149668056Y-92863685D01*
X149500003Y-92844751D01*
X149499997Y-92844751D01*
X149331943Y-92863685D01*
X149172305Y-92919545D01*
X149172302Y-92919547D01*
X149029115Y-93009518D01*
X149029109Y-93009523D01*
X148909523Y-93129109D01*
X148909518Y-93129115D01*
X148819547Y-93272302D01*
X148819545Y-93272305D01*
X148763685Y-93431943D01*
X148744751Y-93599997D01*
X140500500Y-93599997D01*
X140500500Y-91561229D01*
X140520185Y-91494190D01*
X140572989Y-91448435D01*
X140642147Y-91438491D01*
X140705703Y-91467516D01*
X140712181Y-91473548D01*
X140729109Y-91490476D01*
X140729115Y-91490481D01*
X140872302Y-91580452D01*
X140872305Y-91580454D01*
X140872309Y-91580455D01*
X140872310Y-91580456D01*
X140944913Y-91605860D01*
X141031943Y-91636314D01*
X141199997Y-91655249D01*
X141200000Y-91655249D01*
X141200003Y-91655249D01*
X141368056Y-91636314D01*
X141368059Y-91636313D01*
X141527690Y-91580456D01*
X141527692Y-91580454D01*
X141527694Y-91580454D01*
X141527697Y-91580452D01*
X141670884Y-91490481D01*
X141670885Y-91490480D01*
X141670890Y-91490477D01*
X141790477Y-91370890D01*
X141880452Y-91227697D01*
X141880454Y-91227694D01*
X141880454Y-91227692D01*
X141880456Y-91227690D01*
X141936313Y-91068059D01*
X141936313Y-91068058D01*
X141936314Y-91068056D01*
X141955249Y-90900002D01*
X141955249Y-90899997D01*
X141936314Y-90731943D01*
X141883306Y-90580456D01*
X141880456Y-90572310D01*
X141880455Y-90572309D01*
X141880454Y-90572305D01*
X141880452Y-90572302D01*
X141790481Y-90429115D01*
X141790476Y-90429109D01*
X141670890Y-90309523D01*
X141670884Y-90309518D01*
X141527697Y-90219547D01*
X141527694Y-90219545D01*
X141368056Y-90163685D01*
X141200003Y-90144751D01*
X141199997Y-90144751D01*
X141031943Y-90163685D01*
X140872305Y-90219545D01*
X140872302Y-90219547D01*
X140729115Y-90309518D01*
X140729109Y-90309523D01*
X140712181Y-90326452D01*
X140650858Y-90359937D01*
X140581166Y-90354953D01*
X140525233Y-90313081D01*
X140500816Y-90247617D01*
X140500500Y-90238771D01*
X140500500Y-90099997D01*
X142344751Y-90099997D01*
X142344751Y-90100002D01*
X142363685Y-90268056D01*
X142419545Y-90427694D01*
X142419547Y-90427697D01*
X142509518Y-90570884D01*
X142509523Y-90570890D01*
X142629109Y-90690476D01*
X142629115Y-90690481D01*
X142772302Y-90780452D01*
X142772305Y-90780454D01*
X142772309Y-90780455D01*
X142772310Y-90780456D01*
X142844913Y-90805860D01*
X142931943Y-90836314D01*
X143099997Y-90855249D01*
X143100000Y-90855249D01*
X143100003Y-90855249D01*
X143268056Y-90836314D01*
X143268059Y-90836313D01*
X143427690Y-90780456D01*
X143427692Y-90780454D01*
X143427694Y-90780454D01*
X143427697Y-90780452D01*
X143570884Y-90690481D01*
X143570885Y-90690480D01*
X143570890Y-90690477D01*
X143690477Y-90570890D01*
X143712203Y-90536314D01*
X143780452Y-90427697D01*
X143780454Y-90427694D01*
X143780454Y-90427692D01*
X143780456Y-90427690D01*
X143836313Y-90268059D01*
X143836313Y-90268058D01*
X143836314Y-90268056D01*
X143855249Y-90100002D01*
X143855249Y-90099997D01*
X143836314Y-89931943D01*
X143790144Y-89799997D01*
X146244751Y-89799997D01*
X146244751Y-89800002D01*
X146263685Y-89968056D01*
X146319545Y-90127694D01*
X146319547Y-90127697D01*
X146409518Y-90270884D01*
X146409523Y-90270890D01*
X146529109Y-90390476D01*
X146529115Y-90390481D01*
X146672302Y-90480452D01*
X146672305Y-90480454D01*
X146672309Y-90480455D01*
X146672310Y-90480456D01*
X146700946Y-90490476D01*
X146831943Y-90536314D01*
X146999997Y-90555249D01*
X147000000Y-90555249D01*
X147000003Y-90555249D01*
X147168056Y-90536314D01*
X147168059Y-90536313D01*
X147327690Y-90480456D01*
X147327692Y-90480454D01*
X147327694Y-90480454D01*
X147327697Y-90480452D01*
X147470884Y-90390481D01*
X147470885Y-90390480D01*
X147470890Y-90390477D01*
X147590477Y-90270890D01*
X147600305Y-90255249D01*
X147680452Y-90127697D01*
X147680454Y-90127694D01*
X147680454Y-90127692D01*
X147680456Y-90127690D01*
X147736313Y-89968059D01*
X147736313Y-89968058D01*
X147736314Y-89968056D01*
X147743982Y-89899997D01*
X150244751Y-89899997D01*
X150244751Y-89900002D01*
X150263685Y-90068056D01*
X150319545Y-90227694D01*
X150319547Y-90227697D01*
X150409518Y-90370884D01*
X150409523Y-90370890D01*
X150529109Y-90490476D01*
X150529115Y-90490481D01*
X150672302Y-90580452D01*
X150672305Y-90580454D01*
X150672309Y-90580455D01*
X150672310Y-90580456D01*
X150744913Y-90605860D01*
X150831943Y-90636314D01*
X150999997Y-90655249D01*
X151000000Y-90655249D01*
X151000003Y-90655249D01*
X151168056Y-90636314D01*
X151195434Y-90626734D01*
X151327690Y-90580456D01*
X151327692Y-90580454D01*
X151327694Y-90580454D01*
X151327697Y-90580452D01*
X151470884Y-90490481D01*
X151470885Y-90490480D01*
X151470890Y-90490477D01*
X151590477Y-90370890D01*
X151590481Y-90370884D01*
X151680452Y-90227697D01*
X151680454Y-90227694D01*
X151680454Y-90227692D01*
X151680456Y-90227690D01*
X151736313Y-90068059D01*
X151736313Y-90068058D01*
X151736314Y-90068056D01*
X151755249Y-89900002D01*
X151755249Y-89899997D01*
X151736314Y-89731943D01*
X151680454Y-89572305D01*
X151680452Y-89572302D01*
X151635019Y-89499997D01*
X152944751Y-89499997D01*
X152944751Y-89500002D01*
X152963685Y-89668056D01*
X153019545Y-89827694D01*
X153019547Y-89827697D01*
X153109518Y-89970884D01*
X153109523Y-89970890D01*
X153229109Y-90090476D01*
X153229115Y-90090481D01*
X153372302Y-90180452D01*
X153372305Y-90180454D01*
X153372309Y-90180455D01*
X153372310Y-90180456D01*
X153444913Y-90205860D01*
X153531943Y-90236314D01*
X153699997Y-90255249D01*
X153700000Y-90255249D01*
X153700003Y-90255249D01*
X153868056Y-90236314D01*
X153892682Y-90227697D01*
X154027690Y-90180456D01*
X154027692Y-90180454D01*
X154027694Y-90180454D01*
X154027697Y-90180452D01*
X154170884Y-90090481D01*
X154170885Y-90090480D01*
X154170890Y-90090477D01*
X154290477Y-89970890D01*
X154314949Y-89931943D01*
X154380452Y-89827697D01*
X154380454Y-89827694D01*
X154380454Y-89827692D01*
X154380456Y-89827690D01*
X154436313Y-89668059D01*
X154436313Y-89668058D01*
X154436314Y-89668056D01*
X154455249Y-89500002D01*
X154455249Y-89499997D01*
X154436314Y-89331943D01*
X154393477Y-89209523D01*
X154380456Y-89172310D01*
X154380455Y-89172309D01*
X154380454Y-89172305D01*
X154380452Y-89172302D01*
X154290481Y-89029115D01*
X154290476Y-89029109D01*
X154170890Y-88909523D01*
X154170884Y-88909518D01*
X154027697Y-88819547D01*
X154027694Y-88819545D01*
X153868056Y-88763685D01*
X153700003Y-88744751D01*
X153699997Y-88744751D01*
X153531943Y-88763685D01*
X153372305Y-88819545D01*
X153372302Y-88819547D01*
X153229115Y-88909518D01*
X153229109Y-88909523D01*
X153109523Y-89029109D01*
X153109518Y-89029115D01*
X153019547Y-89172302D01*
X153019545Y-89172305D01*
X152963685Y-89331943D01*
X152944751Y-89499997D01*
X151635019Y-89499997D01*
X151590481Y-89429115D01*
X151590476Y-89429109D01*
X151470890Y-89309523D01*
X151470884Y-89309518D01*
X151327697Y-89219547D01*
X151327694Y-89219545D01*
X151168056Y-89163685D01*
X151000003Y-89144751D01*
X150999997Y-89144751D01*
X150831943Y-89163685D01*
X150672305Y-89219545D01*
X150672302Y-89219547D01*
X150529115Y-89309518D01*
X150529109Y-89309523D01*
X150409523Y-89429109D01*
X150409518Y-89429115D01*
X150319547Y-89572302D01*
X150319545Y-89572305D01*
X150263685Y-89731943D01*
X150244751Y-89899997D01*
X147743982Y-89899997D01*
X147755249Y-89800002D01*
X147755249Y-89799997D01*
X147736314Y-89631943D01*
X147693477Y-89509523D01*
X147680456Y-89472310D01*
X147680455Y-89472309D01*
X147680454Y-89472305D01*
X147680452Y-89472302D01*
X147590481Y-89329115D01*
X147590476Y-89329109D01*
X147470890Y-89209523D01*
X147470884Y-89209518D01*
X147327697Y-89119547D01*
X147327694Y-89119545D01*
X147168056Y-89063685D01*
X147000003Y-89044751D01*
X146999997Y-89044751D01*
X146831943Y-89063685D01*
X146672305Y-89119545D01*
X146672302Y-89119547D01*
X146529115Y-89209518D01*
X146529109Y-89209523D01*
X146409523Y-89329109D01*
X146409518Y-89329115D01*
X146319547Y-89472302D01*
X146319545Y-89472305D01*
X146263685Y-89631943D01*
X146244751Y-89799997D01*
X143790144Y-89799997D01*
X143780454Y-89772305D01*
X143780452Y-89772302D01*
X143690481Y-89629115D01*
X143690476Y-89629109D01*
X143570890Y-89509523D01*
X143570884Y-89509518D01*
X143427697Y-89419547D01*
X143427694Y-89419545D01*
X143268056Y-89363685D01*
X143100003Y-89344751D01*
X143099997Y-89344751D01*
X142931943Y-89363685D01*
X142772305Y-89419545D01*
X142772302Y-89419547D01*
X142629115Y-89509518D01*
X142629109Y-89509523D01*
X142509523Y-89629109D01*
X142509518Y-89629115D01*
X142419547Y-89772302D01*
X142419545Y-89772305D01*
X142363685Y-89931943D01*
X142344751Y-90099997D01*
X140500500Y-90099997D01*
X140500500Y-85201428D01*
X143725000Y-85201428D01*
X143725000Y-85795000D01*
X144375000Y-85795000D01*
X144375000Y-86295000D01*
X143725000Y-86295000D01*
X143725000Y-86888571D01*
X143761506Y-87072097D01*
X143761508Y-87072105D01*
X143833119Y-87244991D01*
X143833124Y-87245000D01*
X143937086Y-87400589D01*
X143937089Y-87400593D01*
X144069406Y-87532910D01*
X144069410Y-87532913D01*
X144224999Y-87636875D01*
X144225012Y-87636882D01*
X144397889Y-87708489D01*
X144397896Y-87708491D01*
X144425000Y-87713882D01*
X144425000Y-86961988D01*
X144434940Y-86979205D01*
X144490795Y-87035060D01*
X144559204Y-87074556D01*
X144635504Y-87095000D01*
X144714496Y-87095000D01*
X144790796Y-87074556D01*
X144859205Y-87035060D01*
X144915060Y-86979205D01*
X144925000Y-86961988D01*
X144925000Y-87713881D01*
X144952103Y-87708491D01*
X144952110Y-87708489D01*
X145124989Y-87636881D01*
X145124990Y-87636880D01*
X145274253Y-87537146D01*
X145276348Y-87515871D01*
X145270973Y-87506028D01*
X145275957Y-87436336D01*
X145304458Y-87391989D01*
X145813126Y-86883320D01*
X145874449Y-86849835D01*
X145917778Y-86852933D01*
X145911709Y-86855448D01*
X145855448Y-86911709D01*
X145825000Y-86985218D01*
X145825000Y-87064782D01*
X145855448Y-87138291D01*
X145911709Y-87194552D01*
X145985218Y-87225000D01*
X146045715Y-87225000D01*
X146054810Y-87252993D01*
X146056805Y-87322834D01*
X146024560Y-87378991D01*
X145625833Y-87777718D01*
X145625833Y-87777719D01*
X145760884Y-87837849D01*
X145760889Y-87837851D01*
X145935661Y-87875000D01*
X146114339Y-87875000D01*
X146289110Y-87837851D01*
X146289111Y-87837851D01*
X146398946Y-87788948D01*
X146468196Y-87779662D01*
X146499818Y-87788947D01*
X146609655Y-87837849D01*
X146610733Y-87838329D01*
X146785609Y-87875500D01*
X146785610Y-87875500D01*
X146964389Y-87875500D01*
X146964391Y-87875500D01*
X147139267Y-87838329D01*
X147249565Y-87789220D01*
X147318814Y-87779937D01*
X147350432Y-87789219D01*
X147460733Y-87838329D01*
X147635609Y-87875500D01*
X147635610Y-87875500D01*
X147814389Y-87875500D01*
X147814391Y-87875500D01*
X147989267Y-87838329D01*
X148099565Y-87789220D01*
X148168814Y-87779937D01*
X148200432Y-87789219D01*
X148310733Y-87838329D01*
X148485609Y-87875500D01*
X148485610Y-87875500D01*
X148664389Y-87875500D01*
X148664391Y-87875500D01*
X148839267Y-87838329D01*
X148949565Y-87789220D01*
X149018814Y-87779937D01*
X149050432Y-87789219D01*
X149160733Y-87838329D01*
X149335609Y-87875500D01*
X149335610Y-87875500D01*
X149514389Y-87875500D01*
X149514391Y-87875500D01*
X149689267Y-87838329D01*
X149799565Y-87789220D01*
X149868814Y-87779937D01*
X149900432Y-87789219D01*
X150010733Y-87838329D01*
X150185609Y-87875500D01*
X150185610Y-87875500D01*
X150364389Y-87875500D01*
X150364391Y-87875500D01*
X150539267Y-87838329D01*
X150649565Y-87789220D01*
X150718814Y-87779937D01*
X150750432Y-87789219D01*
X150860733Y-87838329D01*
X151035609Y-87875500D01*
X151035610Y-87875500D01*
X151214389Y-87875500D01*
X151214391Y-87875500D01*
X151389267Y-87838329D01*
X151500179Y-87788947D01*
X151569428Y-87779663D01*
X151601050Y-87788947D01*
X151710891Y-87837851D01*
X151885661Y-87875000D01*
X152064339Y-87875000D01*
X152239111Y-87837851D01*
X152239113Y-87837850D01*
X152374165Y-87777719D01*
X152374165Y-87777718D01*
X151975439Y-87378992D01*
X151941954Y-87317669D01*
X151945188Y-87252993D01*
X151954285Y-87225000D01*
X152014782Y-87225000D01*
X152088291Y-87194552D01*
X152144552Y-87138291D01*
X152175000Y-87064782D01*
X152175000Y-86985218D01*
X152144552Y-86911709D01*
X152088291Y-86855448D01*
X152081679Y-86852709D01*
X152103911Y-86847091D01*
X152170153Y-86869313D01*
X152186873Y-86883320D01*
X152695541Y-87391988D01*
X152729026Y-87453311D01*
X152724172Y-87521172D01*
X152725745Y-87537146D01*
X152875008Y-87636880D01*
X152875010Y-87636881D01*
X153047889Y-87708489D01*
X153047896Y-87708491D01*
X153075000Y-87713882D01*
X153075000Y-86961988D01*
X153084940Y-86979205D01*
X153140795Y-87035060D01*
X153209204Y-87074556D01*
X153285504Y-87095000D01*
X153364496Y-87095000D01*
X153440796Y-87074556D01*
X153509205Y-87035060D01*
X153565060Y-86979205D01*
X153575000Y-86961988D01*
X153575000Y-87713881D01*
X153602103Y-87708491D01*
X153602110Y-87708489D01*
X153774987Y-87636882D01*
X153775000Y-87636875D01*
X153930589Y-87532913D01*
X153930593Y-87532910D01*
X154062910Y-87400593D01*
X154062913Y-87400589D01*
X154166875Y-87245000D01*
X154166880Y-87244991D01*
X154238491Y-87072105D01*
X154238493Y-87072097D01*
X154274999Y-86888571D01*
X154275000Y-86888569D01*
X154275000Y-86295000D01*
X153625000Y-86295000D01*
X153625000Y-85795000D01*
X154275000Y-85795000D01*
X154275000Y-85201430D01*
X154274999Y-85201428D01*
X154238493Y-85017902D01*
X154238491Y-85017894D01*
X154166880Y-84845008D01*
X154166875Y-84844999D01*
X154062913Y-84689410D01*
X154062910Y-84689406D01*
X153930593Y-84557089D01*
X153930589Y-84557086D01*
X153775000Y-84453124D01*
X153774991Y-84453119D01*
X153602103Y-84381507D01*
X153602100Y-84381506D01*
X153575000Y-84376115D01*
X153575000Y-85128011D01*
X153565060Y-85110795D01*
X153509205Y-85054940D01*
X153440796Y-85015444D01*
X153364496Y-84995000D01*
X153285504Y-84995000D01*
X153209204Y-85015444D01*
X153140795Y-85054940D01*
X153084940Y-85110795D01*
X153075000Y-85128011D01*
X153075000Y-84376116D01*
X153074999Y-84376115D01*
X153047899Y-84381506D01*
X153047896Y-84381507D01*
X152875008Y-84453119D01*
X152874999Y-84453124D01*
X152719410Y-84557086D01*
X152719406Y-84557089D01*
X152587089Y-84689406D01*
X152587083Y-84689414D01*
X152479737Y-84850070D01*
X152478736Y-84849401D01*
X152434235Y-84894701D01*
X152366096Y-84910159D01*
X152323408Y-84899681D01*
X152239108Y-84862148D01*
X152064339Y-84825000D01*
X151885661Y-84825000D01*
X151710890Y-84862148D01*
X151710887Y-84862149D01*
X151601048Y-84911052D01*
X151531798Y-84920336D01*
X151500175Y-84911050D01*
X151476279Y-84900410D01*
X151423044Y-84855159D01*
X151402724Y-84788309D01*
X151421725Y-84721159D01*
X151441675Y-84689410D01*
X151480456Y-84627690D01*
X151536313Y-84468059D01*
X151536313Y-84468058D01*
X151536314Y-84468056D01*
X151555249Y-84300002D01*
X151555249Y-84299997D01*
X151536314Y-84131943D01*
X151480454Y-83972305D01*
X151480452Y-83972302D01*
X151390481Y-83829115D01*
X151390476Y-83829109D01*
X151270890Y-83709523D01*
X151270884Y-83709518D01*
X151127697Y-83619547D01*
X151127694Y-83619545D01*
X150968056Y-83563685D01*
X150800003Y-83544751D01*
X150799997Y-83544751D01*
X150631943Y-83563685D01*
X150472305Y-83619545D01*
X150472302Y-83619547D01*
X150329115Y-83709518D01*
X150329109Y-83709523D01*
X150209523Y-83829109D01*
X150209518Y-83829115D01*
X150119547Y-83972302D01*
X150119545Y-83972305D01*
X150063685Y-84131943D01*
X150044751Y-84299997D01*
X150044751Y-84300002D01*
X150063685Y-84468056D01*
X150119545Y-84627692D01*
X150141953Y-84663354D01*
X150160953Y-84730591D01*
X150140585Y-84797426D01*
X150087318Y-84842640D01*
X150062741Y-84850616D01*
X150010733Y-84861671D01*
X150010729Y-84861672D01*
X149900434Y-84910778D01*
X149831184Y-84920062D01*
X149799566Y-84910778D01*
X149689270Y-84861672D01*
X149689265Y-84861670D01*
X149561594Y-84834533D01*
X149514391Y-84824500D01*
X149335609Y-84824500D01*
X149298439Y-84832400D01*
X149160734Y-84861670D01*
X149160729Y-84861672D01*
X149050434Y-84910778D01*
X148981184Y-84920062D01*
X148949566Y-84910778D01*
X148839270Y-84861672D01*
X148839265Y-84861670D01*
X148711594Y-84834533D01*
X148664391Y-84824500D01*
X148485609Y-84824500D01*
X148448439Y-84832400D01*
X148310734Y-84861670D01*
X148310729Y-84861672D01*
X148200434Y-84910778D01*
X148131184Y-84920062D01*
X148099566Y-84910778D01*
X147989270Y-84861672D01*
X147989265Y-84861670D01*
X147861594Y-84834533D01*
X147814391Y-84824500D01*
X147814390Y-84824500D01*
X147779249Y-84824500D01*
X147712210Y-84804815D01*
X147666455Y-84752011D01*
X147656630Y-84706852D01*
X147656029Y-84706920D01*
X147655366Y-84701040D01*
X147655249Y-84700500D01*
X147655249Y-84699997D01*
X147636314Y-84531943D01*
X147580454Y-84372305D01*
X147580452Y-84372302D01*
X147490481Y-84229115D01*
X147490476Y-84229109D01*
X147370890Y-84109523D01*
X147370884Y-84109518D01*
X147227697Y-84019547D01*
X147227694Y-84019545D01*
X147068056Y-83963685D01*
X146900003Y-83944751D01*
X146899997Y-83944751D01*
X146731943Y-83963685D01*
X146572305Y-84019545D01*
X146572302Y-84019547D01*
X146429115Y-84109518D01*
X146429109Y-84109523D01*
X146309523Y-84229109D01*
X146309518Y-84229115D01*
X146219547Y-84372302D01*
X146219545Y-84372305D01*
X146163685Y-84531943D01*
X146144751Y-84699997D01*
X146144751Y-84701000D01*
X146144567Y-84701624D01*
X146143971Y-84706920D01*
X146143043Y-84706815D01*
X146125066Y-84768039D01*
X146072262Y-84813794D01*
X146020751Y-84825000D01*
X145935661Y-84825000D01*
X145760889Y-84862148D01*
X145760888Y-84862148D01*
X145676591Y-84899680D01*
X145607340Y-84908964D01*
X145544064Y-84879335D01*
X145520695Y-84849782D01*
X145520264Y-84850071D01*
X145412913Y-84689410D01*
X145412910Y-84689406D01*
X145280593Y-84557089D01*
X145280589Y-84557086D01*
X145125000Y-84453124D01*
X145124991Y-84453119D01*
X144952103Y-84381507D01*
X144952100Y-84381506D01*
X144925000Y-84376115D01*
X144925000Y-85128011D01*
X144915060Y-85110795D01*
X144859205Y-85054940D01*
X144790796Y-85015444D01*
X144714496Y-84995000D01*
X144635504Y-84995000D01*
X144559204Y-85015444D01*
X144490795Y-85054940D01*
X144434940Y-85110795D01*
X144425000Y-85128011D01*
X144425000Y-84376116D01*
X144424999Y-84376115D01*
X144397899Y-84381506D01*
X144397896Y-84381507D01*
X144225008Y-84453119D01*
X144224999Y-84453124D01*
X144069410Y-84557086D01*
X144069406Y-84557089D01*
X143937089Y-84689406D01*
X143937086Y-84689410D01*
X143833124Y-84844999D01*
X143833119Y-84845008D01*
X143761508Y-85017894D01*
X143761506Y-85017902D01*
X143725000Y-85201428D01*
X140500500Y-85201428D01*
X140500500Y-81624500D01*
X140520185Y-81557461D01*
X140572989Y-81511706D01*
X140624500Y-81500500D01*
X143811279Y-81500500D01*
X143878318Y-81520185D01*
G37*
G04 #@! TD.AperFunction*
M02*
