%TF.GenerationSoftware,KiCad,Pcbnew,8.0.3*%
%TF.CreationDate,2024-06-18T14:47:22-04:00*%
%TF.ProjectId,SoarerMax,536f6172-6572-44d6-9178-2e6b69636164,rev?*%
%TF.SameCoordinates,Original*%
%TF.FileFunction,Drillmap*%
%TF.FilePolarity,Positive*%
%FSLAX45Y45*%
G04 Gerber Fmt 4.5, Leading zero omitted, Abs format (unit mm)*
G04 Created by KiCad (PCBNEW 8.0.3) date 2024-06-18 14:47:22*
%MOMM*%
%LPD*%
G01*
G04 APERTURE LIST*
%ADD10C,0.050000*%
%ADD11C,0.200000*%
G04 APERTURE END LIST*
D10*
X14000000Y-8100000D02*
X15800000Y-8100000D01*
X15800000Y-11900000D01*
X14000000Y-11900000D01*
X14000000Y-8100000D01*
D11*
X14258277Y-12213984D02*
X14258277Y-12013984D01*
X14258277Y-12013984D02*
X14305896Y-12013984D01*
X14305896Y-12013984D02*
X14334467Y-12023508D01*
X14334467Y-12023508D02*
X14353515Y-12042555D01*
X14353515Y-12042555D02*
X14363039Y-12061603D01*
X14363039Y-12061603D02*
X14372562Y-12099698D01*
X14372562Y-12099698D02*
X14372562Y-12128269D01*
X14372562Y-12128269D02*
X14363039Y-12166365D01*
X14363039Y-12166365D02*
X14353515Y-12185412D01*
X14353515Y-12185412D02*
X14334467Y-12204460D01*
X14334467Y-12204460D02*
X14305896Y-12213984D01*
X14305896Y-12213984D02*
X14258277Y-12213984D01*
X14458277Y-12213984D02*
X14458277Y-12080650D01*
X14458277Y-12118746D02*
X14467801Y-12099698D01*
X14467801Y-12099698D02*
X14477324Y-12090174D01*
X14477324Y-12090174D02*
X14496372Y-12080650D01*
X14496372Y-12080650D02*
X14515420Y-12080650D01*
X14582086Y-12213984D02*
X14582086Y-12080650D01*
X14582086Y-12013984D02*
X14572562Y-12023508D01*
X14572562Y-12023508D02*
X14582086Y-12033031D01*
X14582086Y-12033031D02*
X14591610Y-12023508D01*
X14591610Y-12023508D02*
X14582086Y-12013984D01*
X14582086Y-12013984D02*
X14582086Y-12033031D01*
X14705896Y-12213984D02*
X14686848Y-12204460D01*
X14686848Y-12204460D02*
X14677324Y-12185412D01*
X14677324Y-12185412D02*
X14677324Y-12013984D01*
X14810658Y-12213984D02*
X14791610Y-12204460D01*
X14791610Y-12204460D02*
X14782086Y-12185412D01*
X14782086Y-12185412D02*
X14782086Y-12013984D01*
X15039229Y-12213984D02*
X15039229Y-12013984D01*
X15039229Y-12013984D02*
X15105896Y-12156841D01*
X15105896Y-12156841D02*
X15172562Y-12013984D01*
X15172562Y-12013984D02*
X15172562Y-12213984D01*
X15353515Y-12213984D02*
X15353515Y-12109222D01*
X15353515Y-12109222D02*
X15343991Y-12090174D01*
X15343991Y-12090174D02*
X15324943Y-12080650D01*
X15324943Y-12080650D02*
X15286848Y-12080650D01*
X15286848Y-12080650D02*
X15267801Y-12090174D01*
X15353515Y-12204460D02*
X15334467Y-12213984D01*
X15334467Y-12213984D02*
X15286848Y-12213984D01*
X15286848Y-12213984D02*
X15267801Y-12204460D01*
X15267801Y-12204460D02*
X15258277Y-12185412D01*
X15258277Y-12185412D02*
X15258277Y-12166365D01*
X15258277Y-12166365D02*
X15267801Y-12147317D01*
X15267801Y-12147317D02*
X15286848Y-12137793D01*
X15286848Y-12137793D02*
X15334467Y-12137793D01*
X15334467Y-12137793D02*
X15353515Y-12128269D01*
X15448753Y-12080650D02*
X15448753Y-12280650D01*
X15448753Y-12090174D02*
X15467801Y-12080650D01*
X15467801Y-12080650D02*
X15505896Y-12080650D01*
X15505896Y-12080650D02*
X15524943Y-12090174D01*
X15524943Y-12090174D02*
X15534467Y-12099698D01*
X15534467Y-12099698D02*
X15543991Y-12118746D01*
X15543991Y-12118746D02*
X15543991Y-12175888D01*
X15543991Y-12175888D02*
X15534467Y-12194936D01*
X15534467Y-12194936D02*
X15524943Y-12204460D01*
X15524943Y-12204460D02*
X15505896Y-12213984D01*
X15505896Y-12213984D02*
X15467801Y-12213984D01*
X15467801Y-12213984D02*
X15448753Y-12204460D01*
X15629705Y-12194936D02*
X15639229Y-12204460D01*
X15639229Y-12204460D02*
X15629705Y-12213984D01*
X15629705Y-12213984D02*
X15620182Y-12204460D01*
X15620182Y-12204460D02*
X15629705Y-12194936D01*
X15629705Y-12194936D02*
X15629705Y-12213984D01*
X15629705Y-12090174D02*
X15639229Y-12099698D01*
X15639229Y-12099698D02*
X15629705Y-12109222D01*
X15629705Y-12109222D02*
X15620182Y-12099698D01*
X15620182Y-12099698D02*
X15629705Y-12090174D01*
X15629705Y-12090174D02*
X15629705Y-12109222D01*
M02*
